<svg width="424" height="103" viewBox="0 0 424 103" fill="none" xmlns="http://www.w3.org/2000/svg">
<path d="M12.4478 44.7896C34.1014 59.185 56.3546 69.921 79.768 73.4475C70.1986 88.3825 58.7917 98.2036 45.5551 102.942C17.7113 92.1593 -0.282755 60.9131 0.900759 36.4385L9.9017 43.124C12.697 64.4396 23.333 81.9706 45.5551 93.9186C53.5126 89.9933 60.349 84.809 65.8461 78.1313C42.3783 69.8037 25.9025 58.0356 12.4478 44.7974V44.7896Z" fill="white"/>
<path d="M70.1588 11.4164V11.3695L52.9979 4.74646L51.6742 13.598L54.1346 14.5363L58.5339 16.2331C58.5339 16.2409 58.5339 16.2487 58.5339 16.2566L81.3944 25.0455C81.4256 25.5225 81.4567 25.9917 81.4801 26.4608V27.8292H81.5501C82.2509 44.0544 78.2721 57.707 73.0631 66.3787L82.0796 67.6298C86.8137 60.9833 90.4576 46.2047 90.4888 27.8292V19.3061L70.1822 11.4086L70.1588 11.4164ZM41.5754 11.5806C41.9491 15.0055 42.5331 17.3591 43.74 16.4599C44.0281 12.5893 44.651 10.0949 45.8189 9.81341C46.9868 10.0949 47.6097 12.5893 47.8978 16.4599C49.1047 17.3591 49.6809 15.0055 50.0624 11.5806L50.1403 7.61617C50.8644 6.07576 51.2849 4.76992 51.316 3.75341C51.0513 1.47797 50.078 0.234692 48.1003 0.461454V0.430176C47.9835 0.461453 47.8667 0.484911 47.7499 0.516189C47.6798 0.531828 47.6097 0.539647 47.5319 0.555286C47.4696 0.570925 47.4073 0.586563 47.345 0.602202C46.8623 0.696034 46.4029 0.75077 45.9591 0.766409C45.9123 0.766409 45.8656 0.766409 45.8111 0.766409C45.7644 0.766409 45.7177 0.766409 45.6632 0.766409C45.2271 0.75077 44.76 0.696034 44.2772 0.602202C44.2149 0.586563 44.1526 0.578744 44.0904 0.555286C44.0125 0.539647 43.9424 0.524008 43.8723 0.516189C43.7555 0.484911 43.6387 0.461453 43.5142 0.430176V0.461454C41.5442 0.234692 40.571 1.47797 40.3062 3.75341C40.3296 4.7621 40.75 6.06794 41.4819 7.61617L41.5598 11.5806H41.5754ZM9.81515 25.0768L15.3201 22.903L39.8858 13.2461L38.3908 4.66827L36.0393 5.58314V5.5675L0.744141 19.2357V28.1811C25.9094 49.309 46.6365 59.5837 64.4437 62.7036C64.4048 62.6879 64.3658 62.6723 64.3347 62.6488C64.3892 62.6567 64.4437 62.6645 64.4904 62.6801C44.5575 53.4767 26.0028 41.5991 9.81515 25.0846V25.0768Z" fill="white"/>
<path d="M138.344 47.0418C137.464 46.4006 136.171 45.9393 134.497 45.6734C132.854 45.4076 130.667 45.2747 127.988 45.2747H109.363V73.3775H113.389V62.7822H127.879C130.558 62.7822 132.753 62.6336 134.404 62.3365C136.078 62.0394 137.386 61.5546 138.289 60.8977C139.208 60.2253 139.839 59.3339 140.158 58.2392C140.469 57.1835 140.625 55.8855 140.625 54.3842V53.6648C140.625 52.0931 140.469 50.756 140.166 49.6848C139.854 48.5744 139.239 47.683 138.344 47.034V47.0418ZM136.6 53.6727V54.392C136.6 55.4164 136.498 56.2609 136.296 56.9021C136.101 57.5041 135.728 57.9577 135.151 58.2861C134.544 58.6301 133.618 58.8647 132.395 58.9976C131.142 59.1306 129.436 59.2009 127.326 59.2009H113.389V48.8559H127.326C129.429 48.8559 131.134 48.9107 132.395 49.028C133.618 49.1374 134.544 49.3564 135.151 49.6848C135.728 49.9976 136.101 50.4433 136.288 51.0453C136.491 51.6944 136.592 52.5779 136.592 53.6727H136.6Z" fill="white"/>
<path d="M179.308 46.9167C178.428 46.3068 177.135 45.8767 175.461 45.6343C173.818 45.3919 171.63 45.2747 168.952 45.2747H150.327V73.3775H154.353V62.2583H170.509C170.704 62.2583 170.891 62.2583 171.07 62.2505L176.894 73.3775H181.005L175.017 61.9221C176.738 61.6484 178.077 61.1949 178.996 60.585C180.016 59.9125 180.709 59.0133 181.067 57.9186C181.418 56.863 181.589 55.5884 181.589 54.1262V53.4068C181.589 51.8351 181.433 50.5136 181.13 49.4737C180.81 48.3946 180.195 47.5345 179.3 46.9089L179.308 46.9167ZM177.346 56.5111C177.213 57.0663 176.909 57.4885 176.419 57.7935C175.905 58.1141 175.08 58.3408 173.959 58.4737C172.806 58.6067 171.202 58.677 169.193 58.677H154.36V48.8481H168.298C170.4 48.8481 172.113 48.895 173.375 48.981C174.605 49.067 175.531 49.2625 176.131 49.5519C176.699 49.8255 177.065 50.24 177.26 50.8186C177.462 51.4441 177.564 52.3121 177.564 53.4068V54.1262C177.564 55.0958 177.486 55.9012 177.338 56.5033L177.346 56.5111Z" fill="white"/>
<path d="M224.445 48.6526C223.837 47.5657 222.996 46.7291 221.945 46.1504C220.91 45.5874 219.602 45.1965 218.052 44.9932C216.526 44.7977 214.665 44.696 212.524 44.696H205.337C203.196 44.696 201.335 44.7977 199.809 44.9932C198.259 45.1965 196.944 45.5796 195.916 46.1504C194.865 46.7213 194.024 47.5657 193.416 48.6526C192.817 49.7161 192.389 51.1157 192.147 52.7969C191.906 54.4546 191.789 56.5346 191.789 58.9742V59.6936C191.789 62.6493 191.984 65.0889 192.373 66.9343C192.77 68.8188 193.479 70.2966 194.483 71.3132C195.488 72.3297 196.897 73.0334 198.672 73.4087C200.408 73.7763 202.651 73.9639 205.329 73.9639H212.516C215.202 73.9639 217.437 73.7763 219.173 73.4087C220.949 73.0334 222.358 72.3297 223.362 71.3132C224.367 70.2966 225.075 68.8266 225.472 66.9343C225.862 65.0811 226.056 62.6493 226.056 59.6936V58.9742C226.056 56.5346 225.932 54.4624 225.698 52.7969C225.457 51.1157 225.029 49.7161 224.429 48.6526H224.445ZM222.039 58.9664V59.6858C222.039 61.6953 221.969 63.3843 221.829 64.698C221.688 65.996 221.431 67.036 221.065 67.8023C220.707 68.5373 220.193 69.0925 219.516 69.46C218.823 69.8353 217.904 70.0777 216.783 70.195C215.638 70.3123 214.198 70.3748 212.516 70.3748H205.329C203.648 70.3748 202.215 70.3123 201.063 70.195C199.941 70.0777 199.023 69.8353 198.33 69.46C197.66 69.1003 197.138 68.5451 196.78 67.8023C196.414 67.036 196.157 65.996 196.017 64.698C195.877 63.3765 195.807 61.6875 195.807 59.6858V58.9664C195.807 56.8864 195.877 55.1505 196.017 53.8056C196.157 52.4841 196.414 51.4363 196.78 50.6857C197.13 49.9663 197.652 49.4268 198.322 49.0983C199.015 48.7543 199.934 48.5275 201.055 48.4337C202.207 48.332 203.648 48.2851 205.322 48.2851H212.508C214.19 48.2851 215.623 48.3399 216.775 48.4337C217.896 48.5354 218.815 48.7543 219.508 49.0983C220.186 49.4346 220.684 49.9585 221.05 50.6857C221.416 51.4363 221.673 52.492 221.813 53.8056C221.953 55.1505 222.023 56.8864 222.023 58.9664H222.039Z" fill="white"/>
<path d="M234.901 48.7465H248.59V73.3775H252.615V48.7465H266.311V45.2747H234.901V48.7465Z" fill="white"/>
<path d="M280.304 60.7805H302.783V57.3008H280.304V48.7465H303.764V45.2747H276.278V73.3775H304.262V69.9057H280.304V60.7805Z" fill="white"/>
<path d="M345.778 45.2747H339.58L321.874 57.3008H317.724V45.2747H313.698V73.3775H317.724V60.7805H321.897L340.148 73.3775H346.338L325.938 59.0446L345.778 45.2747Z" fill="white"/>
<path d="M353.362 48.7465H367.058V73.3775H371.084V48.7465H384.772V45.2747H353.362V48.7465Z" fill="white"/>
<path d="M407.664 45.2747H402.751L386.423 73.3775H391.126L394.552 67.075H415.871L419.297 73.3775H423.999L407.672 45.2747H407.664ZM413.815 63.6032H396.607L405.211 48.4806L413.815 63.6032Z" fill="white"/>
<path d="M121.502 37.854C121.502 37.424 121.471 37.0877 121.401 36.8453C121.331 36.6029 121.183 36.4231 120.949 36.298C120.716 36.1807 120.35 36.1025 119.859 36.0712C119.369 36.0321 118.691 36.0087 117.835 35.993L113.848 35.9383C112.867 35.9226 112.073 35.8679 111.473 35.7584C110.874 35.649 110.422 35.4848 110.118 35.258C109.815 35.0312 109.605 34.7263 109.503 34.3431C109.402 33.96 109.348 33.483 109.348 32.9044C109.348 32.2788 109.418 31.7549 109.558 31.3483C109.698 30.9417 109.955 30.6211 110.321 30.3943C110.695 30.1676 111.216 30.0034 111.894 29.9095C112.571 29.8157 113.451 29.7688 114.526 29.7688H117.593C118.567 29.7688 119.384 29.8001 120.03 29.8626C120.677 29.9252 121.198 30.0659 121.58 30.2927C121.961 30.5195 122.234 30.8713 122.397 31.3405C122.561 31.8175 122.647 32.4665 122.647 33.2953H121.268C121.268 32.6541 121.206 32.1693 121.089 31.8409C120.965 31.5125 120.77 31.2858 120.49 31.1685C120.209 31.0512 119.836 30.9808 119.361 30.973C118.886 30.9652 118.302 30.9573 117.601 30.9573H114.603C113.747 30.9573 113.062 30.973 112.548 31.0043C112.034 31.0355 111.645 31.1137 111.38 31.231C111.115 31.3483 110.944 31.5438 110.85 31.8097C110.765 32.0755 110.718 32.4352 110.718 32.8965C110.718 33.2875 110.749 33.6003 110.811 33.8349C110.874 34.0694 111.014 34.2493 111.232 34.3744C111.45 34.4995 111.785 34.5777 112.236 34.6246C112.688 34.6715 113.311 34.695 114.089 34.7106L118.364 34.7654C119.369 34.781 120.171 34.8357 120.77 34.9452C121.37 35.0469 121.821 35.2111 122.117 35.4457C122.413 35.6724 122.615 35.9852 122.709 36.3762C122.81 36.7671 122.857 37.2597 122.857 37.854C122.857 38.503 122.795 39.0426 122.678 39.4883C122.561 39.934 122.32 40.278 121.969 40.5439C121.619 40.8097 121.113 40.9974 120.459 41.1147C119.797 41.232 118.933 41.2867 117.858 41.2867H114.502C113.521 41.2867 112.704 41.2398 112.034 41.1538C111.372 41.0678 110.843 40.8958 110.445 40.6299C110.048 40.3719 109.768 39.9809 109.597 39.457C109.425 38.9409 109.34 38.245 109.34 37.3849H110.718C110.718 38.0651 110.773 38.5812 110.882 38.9566C110.991 39.3241 111.185 39.5899 111.458 39.7541C111.73 39.9183 112.12 40.0122 112.61 40.0434C113.108 40.0747 113.731 40.0904 114.502 40.0904H117.788C118.644 40.0904 119.322 40.0591 119.812 40.0043C120.311 39.9496 120.677 39.8401 120.918 39.6916C121.159 39.543 121.307 39.3084 121.377 39.0191C121.447 38.7298 121.479 38.3388 121.479 37.8618L121.502 37.854Z" fill="white"/>
<path d="M129.935 41.0522V31.1451H124.43V29.9956H136.818V31.1451H131.313V41.0522H129.935Z" fill="white"/>
<path d="M143.732 41.2867C142.658 41.2867 141.77 41.2163 141.077 41.0678C140.384 40.9192 139.847 40.6534 139.457 40.2546C139.068 39.8636 138.796 39.2928 138.64 38.5578C138.484 37.8227 138.406 36.8531 138.406 35.6724V35.3831C138.406 34.4057 138.453 33.5846 138.546 32.92C138.64 32.2554 138.803 31.7158 139.037 31.2936C139.271 30.8791 139.59 30.5586 139.995 30.3396C140.4 30.1207 140.906 29.9721 141.521 29.8861C142.136 29.8079 142.868 29.7688 143.724 29.7688H146.613C147.469 29.7688 148.209 29.8079 148.816 29.8861C149.432 29.9643 149.938 30.1129 150.343 30.3396C150.748 30.5586 151.067 30.8791 151.3 31.2936C151.534 31.708 151.697 32.2554 151.791 32.92C151.884 33.5846 151.931 34.4057 151.931 35.3831V35.6724C151.931 36.861 151.853 37.8227 151.697 38.5578C151.542 39.2928 151.269 39.8636 150.88 40.2546C150.491 40.6455 149.946 40.9192 149.26 41.0678C148.567 41.2163 147.68 41.2867 146.605 41.2867H143.716H143.732ZM143.732 40.0904H146.621C147.306 40.0904 147.882 40.0669 148.349 40.02C148.817 39.9731 149.198 39.8714 149.494 39.7072C149.79 39.5508 150.016 39.3084 150.164 38.9878C150.311 38.6672 150.428 38.2372 150.483 37.6976C150.537 37.1581 150.568 36.4856 150.568 35.6646V35.3753C150.568 34.5308 150.537 33.8349 150.483 33.2875C150.428 32.7402 150.319 32.3101 150.164 31.9895C150.008 31.6689 149.782 31.4421 149.494 31.2936C149.198 31.145 148.817 31.0512 148.349 31.0121C147.882 30.973 147.306 30.9495 146.621 30.9495H143.732C143.047 30.9495 142.471 30.973 142.004 31.0121C141.536 31.0512 141.155 31.145 140.859 31.2936C140.563 31.4421 140.337 31.6689 140.189 31.9895C140.034 32.3023 139.925 32.7402 139.87 33.2875C139.816 33.8349 139.784 34.5308 139.784 35.3753V35.6646C139.784 36.4778 139.816 37.1581 139.87 37.6976C139.925 38.2372 140.034 38.6672 140.189 38.9878C140.345 39.3084 140.571 39.5508 140.859 39.7072C141.155 39.8636 141.536 39.9652 142.004 40.02C142.471 40.0747 143.047 40.0904 143.732 40.0904Z" fill="white"/>
<path d="M154.268 41.0522V29.9956H156.315L162.973 39.0113L169.529 29.9956H171.576V41.0522H170.198V31.2467L163.627 40.325H162.381L155.638 31.2467V41.0522H154.26H154.268Z" fill="white"/>
<path d="M173.445 41.0522L179.869 29.9956H181.707L188.13 41.0522H186.526L185.148 38.5187H176.435L175.057 41.0522H173.453H173.445ZM177.113 37.3693H184.455L180.788 30.9183L177.12 37.3693H177.113Z" fill="white"/>
<path d="M194.764 41.0522V31.1451H189.259V29.9956H201.647V31.1451H196.142V41.0522H194.764Z" fill="white"/>
<path d="M208.553 41.2867C207.479 41.2867 206.591 41.2163 205.898 41.0678C205.205 40.9192 204.668 40.6534 204.279 40.2546C203.889 39.8636 203.617 39.2928 203.461 38.5578C203.305 37.8227 203.228 36.8531 203.228 35.6724V35.3831C203.228 34.4057 203.274 33.5846 203.368 32.92C203.461 32.2554 203.625 31.7158 203.858 31.2936C204.092 30.8791 204.411 30.5586 204.816 30.3396C205.221 30.1207 205.727 29.9721 206.342 29.8861C206.957 29.8079 207.689 29.7688 208.546 29.7688H211.434C212.291 29.7688 213.03 29.8079 213.638 29.8861C214.253 29.9643 214.759 30.1129 215.164 30.3396C215.569 30.5586 215.888 30.8791 216.122 31.2936C216.355 31.708 216.519 32.2554 216.612 32.92C216.706 33.5846 216.752 34.4057 216.752 35.3831V35.6724C216.752 36.861 216.674 37.8227 216.519 38.5578C216.363 39.2928 216.09 39.8636 215.701 40.2546C215.312 40.6455 214.767 40.9192 214.082 41.0678C213.389 41.2163 212.501 41.2867 211.426 41.2867H208.538H208.553ZM208.553 40.0904H211.442C212.127 40.0904 212.703 40.0669 213.171 40.02C213.638 39.9731 214.019 39.8714 214.315 39.7072C214.611 39.5508 214.837 39.3084 214.985 38.9878C215.133 38.6672 215.25 38.2372 215.304 37.6976C215.359 37.1581 215.39 36.4856 215.39 35.6646V35.3753C215.39 34.5308 215.359 33.8349 215.304 33.2875C215.25 32.7402 215.141 32.3101 214.985 31.9895C214.829 31.6689 214.603 31.4421 214.315 31.2936C214.019 31.145 213.638 31.0512 213.171 31.0121C212.703 30.973 212.127 30.9495 211.442 30.9495H208.553C207.868 30.9495 207.292 30.973 206.825 31.0121C206.358 31.0512 205.976 31.145 205.68 31.2936C205.384 31.4421 205.159 31.6689 205.011 31.9895C204.855 32.3023 204.746 32.7402 204.691 33.2875C204.637 33.8349 204.606 34.5308 204.606 35.3753V35.6646C204.606 36.4778 204.637 37.1581 204.691 37.6976C204.746 38.2372 204.855 38.6672 205.011 38.9878C205.166 39.3084 205.392 39.5508 205.68 39.7072C205.976 39.8636 206.358 39.9652 206.825 40.02C207.292 40.0747 207.868 40.0904 208.553 40.0904Z" fill="white"/>
<path d="M219.064 41.0522V29.9956H220.443V39.9027H229.155V41.0522H219.064Z" fill="white"/>
<path d="M235.851 41.2867C234.777 41.2867 233.889 41.2163 233.196 41.0678C232.503 40.9192 231.966 40.6534 231.577 40.2546C231.187 39.8636 230.915 39.2928 230.759 38.5578C230.603 37.8227 230.525 36.8531 230.525 35.6724V35.3831C230.525 34.4057 230.572 33.5846 230.666 32.92C230.759 32.2554 230.923 31.7158 231.156 31.2936C231.39 30.8791 231.709 30.5586 232.114 30.3396C232.519 30.1207 233.025 29.9721 233.64 29.8861C234.255 29.8079 234.987 29.7688 235.843 29.7688H238.732C239.589 29.7688 240.328 29.8079 240.936 29.8861C241.551 29.9643 242.057 30.1129 242.462 30.3396C242.867 30.5586 243.186 30.8791 243.419 31.2936C243.653 31.708 243.817 32.2554 243.91 32.92C244.003 33.5846 244.05 34.4057 244.05 35.3831V35.6724C244.05 36.861 243.972 37.8227 243.817 38.5578C243.661 39.2928 243.388 39.8636 242.999 40.2546C242.61 40.6455 242.065 40.9192 241.379 41.0678C240.686 41.2163 239.799 41.2867 238.724 41.2867H235.836H235.851ZM235.851 40.0904H238.74C239.425 40.0904 240.001 40.0669 240.468 40.02C240.936 39.9731 241.317 39.8714 241.613 39.7072C241.909 39.5508 242.135 39.3084 242.283 38.9878C242.431 38.6672 242.547 38.2372 242.602 37.6976C242.656 37.1581 242.688 36.4856 242.688 35.6646V35.3753C242.688 34.5308 242.656 33.8349 242.602 33.2875C242.547 32.7402 242.438 32.3101 242.283 31.9895C242.127 31.6689 241.901 31.4421 241.613 31.2936C241.317 31.145 240.936 31.0512 240.468 31.0121C240.001 30.973 239.425 30.9495 238.74 30.9495H235.851C235.166 30.9495 234.59 30.973 234.123 31.0121C233.655 31.0512 233.274 31.145 232.978 31.2936C232.682 31.4421 232.456 31.6689 232.308 31.9895C232.153 32.3023 232.044 32.7402 231.989 33.2875C231.935 33.8349 231.904 34.5308 231.904 35.3753V35.6646C231.904 36.4778 231.935 37.1581 231.989 37.6976C232.044 38.2372 232.153 38.6672 232.308 38.9878C232.464 39.3084 232.69 39.5508 232.978 39.7072C233.274 39.8636 233.655 39.9652 234.123 40.02C234.59 40.0747 235.166 40.0904 235.851 40.0904Z" fill="white"/>
<path d="M258.081 37.8539C258.081 37.4238 258.05 37.0876 257.98 36.8452C257.91 36.6028 257.762 36.4229 257.528 36.2978C257.295 36.1805 256.929 36.1023 256.438 36.071C255.948 36.0319 255.27 36.0085 254.414 35.9928L250.427 35.9381C249.446 35.9225 248.652 35.8677 248.052 35.7583C247.453 35.6488 247.001 35.4846 246.698 35.2578C246.394 35.0311 246.184 34.7261 246.082 34.343C245.981 33.9598 245.927 33.4828 245.927 32.9042C245.927 32.2786 245.997 31.7548 246.137 31.3481C246.277 30.9415 246.534 30.6209 246.9 30.3942C247.274 30.1674 247.795 30.0032 248.473 29.9094C249.15 29.8155 250.03 29.7686 251.105 29.7686H254.172C255.146 29.7686 255.963 29.7999 256.609 29.8625C257.256 29.925 257.777 30.0658 258.159 30.2925C258.541 30.5193 258.813 30.8712 258.977 31.3403C259.14 31.8173 259.226 32.4663 259.226 33.2952H257.848C257.848 32.654 257.785 32.1692 257.668 31.8408C257.544 31.5124 257.349 31.2856 257.069 31.1683C256.789 31.051 256.415 30.9806 255.94 30.9728C255.465 30.965 254.881 30.9572 254.18 30.9572H251.182C250.326 30.9572 249.641 30.9728 249.127 31.0041C248.613 31.0354 248.224 31.1136 247.959 31.2309C247.694 31.3481 247.523 31.5436 247.429 31.8095C247.344 32.0753 247.297 32.435 247.297 32.8964C247.297 33.2873 247.328 33.6001 247.391 33.8347C247.453 34.0693 247.593 34.2491 247.811 34.3742C248.029 34.4993 248.364 34.5775 248.815 34.6245C249.267 34.6714 249.89 34.6948 250.669 34.7105L254.943 34.7652C255.948 34.7808 256.75 34.8356 257.349 34.9451C257.949 35.0467 258.4 35.2109 258.696 35.4455C258.992 35.6723 259.195 35.985 259.288 36.376C259.389 36.767 259.436 37.2596 259.436 37.8539C259.436 38.5029 259.374 39.0424 259.257 39.4881C259.14 39.9338 258.899 40.2779 258.548 40.5437C258.198 40.8096 257.692 40.9972 257.038 41.1145C256.376 41.2318 255.512 41.2866 254.437 41.2866H251.081C250.1 41.2866 249.283 41.2396 248.613 41.1536C247.951 41.0676 247.422 40.8956 247.025 40.6297C246.627 40.3717 246.347 39.9807 246.176 39.4568C246.005 38.9407 245.919 38.2448 245.919 37.3847H247.297C247.297 38.065 247.352 38.5811 247.461 38.9564C247.57 39.3239 247.764 39.5898 248.037 39.754C248.309 39.9182 248.699 40.012 249.189 40.0433C249.687 40.0746 250.31 40.0902 251.081 40.0902H254.367C255.224 40.0902 255.901 40.0589 256.391 40.0042C256.89 39.9494 257.256 39.84 257.497 39.6914C257.739 39.5428 257.886 39.3083 257.957 39.0189C258.027 38.7296 258.058 38.3387 258.058 37.8617L258.081 37.8539ZM251.977 28.8147L249.68 25.3585L250.599 24.6704L252.662 27.892L254.725 24.6704L255.644 25.3585L253.347 28.8147H251.969H251.977Z" fill="white"/>
<path d="M261.718 41.0522V29.9956H263.096V34.8358H264.926L272.042 29.9956H274.106L266.312 35.4066L274.339 41.0522H272.276L264.933 35.9852H263.096V41.0522H261.718Z" fill="white"/>
<path d="M275.242 41.0522L281.666 29.9956H283.503L289.927 41.0522H288.323L286.945 38.5187H278.232L276.854 41.0522H275.25H275.242ZM278.91 37.3693H286.252L282.585 30.9183L278.917 37.3693H278.91Z" fill="white"/>
<path d="M300.797 41.2867C299.722 41.2867 298.834 41.2163 298.141 41.0678C297.448 40.9192 296.911 40.6534 296.522 40.2546C296.133 39.8636 295.86 39.2928 295.704 38.5578C295.549 37.8227 295.471 36.8531 295.471 35.6724V35.3831C295.471 34.4057 295.517 33.5846 295.611 32.92C295.704 32.2554 295.868 31.7158 296.101 31.2936C296.335 30.8791 296.654 30.5586 297.059 30.3396C297.464 30.1207 297.97 29.9721 298.585 29.8861C299.2 29.8079 299.932 29.7688 300.789 29.7688H303.677C304.534 29.7688 305.274 29.8079 305.881 29.8861C306.496 29.9643 307.002 30.1129 307.407 30.3396C307.812 30.5586 308.131 30.8791 308.365 31.2936C308.598 31.708 308.762 32.2554 308.855 32.92C308.949 33.5846 308.995 34.4057 308.995 35.3831V35.6724C308.995 36.861 308.918 37.8227 308.762 38.5578C308.606 39.2928 308.334 39.8636 307.944 40.2546C307.555 40.6455 307.01 40.9192 306.325 41.0678C305.632 41.2163 304.744 41.2867 303.67 41.2867H300.781H300.797ZM300.797 40.0904H303.685C304.37 40.0904 304.947 40.0669 305.414 40.02C305.881 39.9731 306.262 39.8714 306.558 39.7072C306.854 39.5508 307.08 39.3084 307.228 38.9878C307.376 38.6672 307.493 38.2372 307.547 37.6976C307.602 37.1581 307.633 36.4856 307.633 35.6646V35.3753C307.633 34.5308 307.602 33.8349 307.547 33.2875C307.493 32.7402 307.384 32.3101 307.228 31.9895C307.072 31.6689 306.846 31.4421 306.558 31.2936C306.262 31.145 305.881 31.0512 305.414 31.0121C304.947 30.973 304.37 30.9495 303.685 30.9495H300.797C300.111 30.9495 299.535 30.973 299.068 31.0121C298.601 31.0512 298.219 31.145 297.923 31.2936C297.628 31.4421 297.402 31.6689 297.254 31.9895C297.098 32.3023 296.989 32.7402 296.935 33.2875C296.88 33.8349 296.849 34.5308 296.849 35.3753V35.6646C296.849 36.4778 296.88 37.1581 296.935 37.6976C296.989 38.2372 297.098 38.6672 297.254 38.9878C297.409 39.3084 297.635 39.5508 297.923 39.7072C298.219 39.8636 298.601 39.9652 299.068 40.02C299.535 40.0747 300.111 40.0904 300.797 40.0904Z" fill="white"/>
<path d="M311.331 29.9956H318.697C319.771 29.9956 320.636 30.0425 321.297 30.1364C321.952 30.2302 322.45 30.3944 322.792 30.629C323.135 30.8636 323.361 31.1842 323.478 31.5908C323.594 31.9974 323.657 32.5135 323.657 33.139V33.4283C323.657 34.007 323.587 34.4996 323.454 34.914C323.322 35.3284 323.057 35.6647 322.668 35.9227C322.279 36.1807 321.71 36.3606 320.947 36.4622L323.337 41.0366H321.959L319.616 36.5561C319.522 36.5561 319.421 36.5561 319.32 36.5561H312.701V41.0287H311.323V29.9722L311.331 29.9956ZM312.709 35.3832H318.79C319.608 35.3832 320.254 35.3519 320.721 35.2972C321.188 35.2424 321.539 35.1486 321.757 35.0078C321.983 34.8671 322.123 34.6716 322.185 34.4214C322.247 34.1712 322.279 33.8349 322.279 33.4361V33.1468C322.279 32.6933 322.232 32.3336 322.146 32.0678C322.061 31.8019 321.889 31.6064 321.632 31.4813C321.375 31.3562 320.986 31.278 320.48 31.2389C319.966 31.1998 319.289 31.1842 318.432 31.1842H312.709V35.3832Z" fill="white"/>
<path d="M326.289 41.0522V29.9956H334.457C335.531 29.9956 336.419 30.0582 337.112 30.1911C337.805 30.324 338.342 30.5742 338.732 30.9418C339.121 31.3093 339.393 31.8566 339.549 32.5682C339.705 33.2797 339.783 34.2181 339.783 35.3831V35.6725C339.783 36.7985 339.705 37.7211 339.549 38.4249C339.393 39.1286 339.121 39.676 338.732 40.0591C338.342 40.4423 337.797 40.7003 337.112 40.8411C336.419 40.9818 335.539 41.0522 334.457 41.0522H326.289ZM327.667 39.8558H334.465C335.321 39.8558 336.006 39.8167 336.528 39.7307C337.05 39.6525 337.447 39.4727 337.719 39.199C337.992 38.9253 338.179 38.5109 338.272 37.9479C338.366 37.3849 338.412 36.6264 338.412 35.6646V35.3753C338.412 34.5778 338.381 33.9209 338.327 33.4048C338.272 32.8888 338.163 32.4743 338.007 32.1772C337.852 31.8801 337.626 31.6533 337.33 31.5126C337.034 31.3718 336.653 31.278 336.185 31.2389C335.718 31.1998 335.142 31.1841 334.457 31.1841H327.659V39.848L327.667 39.8558Z" fill="white"/>
<path d="M342.079 41.0522V29.9956H343.457V41.0522H342.079Z" fill="white"/>
<path d="M346.207 41.0522V29.9956H347.64L358.696 39.3476H358.712V29.9956H360.09V41.0522H358.657L347.601 31.622H347.585V41.0522H346.207Z" fill="white"/>
<path d="M361.919 41.0522L368.343 29.9956H370.18L376.604 41.0522H375L373.622 38.5187H364.909L363.531 41.0522H361.927H361.919ZM365.586 37.3693H372.929L369.261 30.9183L365.594 37.3693H365.586Z" fill="white"/>
<path d="M377.975 35.6722V35.3829C377.975 34.4054 378.021 33.5844 378.115 32.9198C378.208 32.2551 378.372 31.7156 378.605 31.2933C378.839 30.8789 379.158 30.5583 379.563 30.3394C379.968 30.1204 380.474 29.9719 381.089 29.8858C381.704 29.8076 382.436 29.7686 383.293 29.7686H386.181C387.162 29.7686 387.996 29.8155 388.673 29.9093C389.35 30.0031 389.895 30.1908 390.308 30.4645C390.721 30.7382 391.024 31.1448 391.203 31.6843C391.39 32.216 391.484 32.9276 391.484 33.8112H390.106C390.106 33.1152 390.043 32.5757 389.919 32.1847C389.794 31.8016 389.584 31.5201 389.288 31.3481C388.992 31.176 388.595 31.0666 388.089 31.0275C387.583 30.9884 386.944 30.9649 386.174 30.9649H383.285C382.6 30.9649 382.023 30.9884 381.556 31.0275C381.089 31.0666 380.708 31.1604 380.412 31.309C380.116 31.4575 379.89 31.6843 379.742 32.0049C379.586 32.3177 379.477 32.7555 379.423 33.3029C379.368 33.8503 379.337 34.5462 379.337 35.3907V35.68C379.337 36.4932 379.368 37.1735 379.423 37.713C379.477 38.2526 379.586 38.6826 379.742 39.0032C379.898 39.3238 380.124 39.5662 380.412 39.7226C380.708 39.879 381.089 39.9806 381.556 40.0354C382.023 40.0901 382.6 40.1058 383.285 40.1058H386.174C386.944 40.1058 387.583 40.0901 388.089 40.0588C388.595 40.0276 388.992 39.9259 389.288 39.7617C389.584 39.5975 389.794 39.3238 389.919 38.9485C390.043 38.5653 390.106 38.0336 390.106 37.3377H391.484C391.484 38.2213 391.39 38.925 391.203 39.4567C391.017 39.9885 390.721 40.3794 390.308 40.6453C389.895 40.9111 389.35 41.091 388.673 41.177C387.996 41.263 387.17 41.3099 386.181 41.3099H383.293C382.218 41.3099 381.33 41.2396 380.637 41.091C379.945 40.9424 379.407 40.6766 379.018 40.2778C378.629 39.8868 378.356 39.316 378.2 38.581C378.045 37.846 377.967 36.8764 377.967 35.6956L377.975 35.6722Z" fill="white"/>
<path d="M393.812 41.0522V29.9956H395.19V41.0522H393.812Z" fill="white"/>
<path d="M400.687 41.0519C399.776 41.0519 399.06 40.919 398.546 40.6532C398.032 40.3873 397.713 39.8712 397.588 39.1049C397.511 38.6514 397.472 38.0728 397.472 37.3612V36.8999H398.85V37.3612C398.85 38.4559 398.982 39.1675 399.255 39.5037C399.403 39.6836 399.597 39.8008 399.831 39.8478C400.065 39.8947 400.353 39.9181 400.687 39.9181H403.895C404.721 39.9181 405.312 39.7696 405.663 39.4724C406.013 39.1753 406.192 38.6201 406.192 37.8147V29.9875H407.57V37.8147C407.57 38.9876 407.306 39.8087 406.769 40.2935C406.216 40.7939 405.258 41.0441 403.903 41.0441H400.695L400.687 41.0519Z" fill="white"/>
<path d="M409.314 41.0522L415.738 29.9956H417.576L423.999 41.0522H422.395L421.017 38.5187H412.304L410.926 41.0522H409.322H409.314ZM412.982 37.3693H420.324L416.657 30.9183L412.99 37.3693H412.982Z" fill="white"/>
</svg>
