<svg width="149" height="175" viewBox="0 0 149 175" fill="none" xmlns="http://www.w3.org/2000/svg">
<path d="M74.1339 133.631C95.6898 133.631 89.0427 172.447 107.275 172.447C151.186 172.447 153.475 35.9474 137.061 13.9369C120.648 -8.07368 88.8546 9.07698 74.3534 9.07698C59.8521 9.07698 27.3223 -7.1017 11.6453 13.9369C-4.76855 35.9474 -2.47971 172.447 41.4316 172.447C59.664 172.447 53.0169 133.631 74.5728 133.631H74.1339Z" stroke="white" stroke-width="4" stroke-linecap="round" stroke-linejoin="round"/>
<path d="M36.7285 61.8769C36.7285 61.8769 43.0464 57.1738 50.8378 57.1738C58.6293 57.1738 64.9471 61.8769 64.9471 61.8769" stroke="white" stroke-width="4" stroke-linecap="round" stroke-linejoin="round"/>
<path d="M111.978 61.8769C111.978 61.8769 105.661 57.1738 97.8691 57.1738C90.0776 57.1738 83.7598 61.8769 83.7598 61.8769" stroke="white" stroke-width="4" stroke-linecap="round" stroke-linejoin="round"/>
<path d="M55.541 94.7988C55.541 94.7988 63.9596 101.07 74.3534 101.07C84.7473 101.07 93.1659 94.7988 93.1659 94.7988" stroke="white" stroke-width="4" stroke-linecap="round" stroke-linejoin="round"/>
</svg>
