<svg width="136" height="196" viewBox="0 0 136 196" fill="none" xmlns="http://www.w3.org/2000/svg">
<path d="M96.0923 138.828C96.0923 138.828 96.0923 173.881 92.9556 182.635" stroke="white" stroke-width="4" stroke-linecap="round" stroke-linejoin="round"/>
<path d="M39.2241 138.828C39.2241 138.828 39.2241 173.881 42.3608 182.635" stroke="white" stroke-width="4" stroke-linecap="round" stroke-linejoin="round"/>
<path d="M72.2924 71.2024C80.267 70.3873 93.6113 68.243 97.1202 67.924C105.733 67.1265 112.892 74.5164 111.847 83.0936C110.429 94.7189 97.6696 130.942 96.0924 138.828C88.9329 119.866 73.8873 117.775 67.6493 117.775C61.4113 117.775 46.3658 119.866 39.2063 138.828C37.6291 130.942 24.8696 94.7189 23.4518 83.0936C22.4063 74.4986 29.5658 67.1265 38.1784 67.924C39.6493 68.0657 42.8569 68.5088 46.6493 69.0581" stroke="white" stroke-width="4" stroke-linecap="round" stroke-linejoin="round"/>
<path d="M102.1 23.1419C111.74 25.3394 121.239 31.1166 127.601 44.3014C145.27 80.9495 115.994 119.706 115.994 119.706C115.994 119.706 114.416 194.119 92.9202 193.393C74.5253 192.772 84.9987 134.734 67.6316 134.734C50.2645 134.734 60.7379 192.772 42.343 193.393C20.8645 194.119 19.2696 119.706 19.2696 119.706C19.2696 119.706 -9.98865 80.9495 7.66198 44.3014C23.7 11.0913 59.6569 24.79 67.6493 24.79C68.6949 24.79 70.2012 24.5596 72.0797 24.2229" stroke="white" stroke-width="4" stroke-linecap="round" stroke-linejoin="round"/>
<path d="M104.014 2C87.1257 19.6329 39.3662 90.1291 39.3662 138.58" stroke="white" stroke-width="4" stroke-linecap="round" stroke-linejoin="round"/>
</svg>
