<svg width="120" height="170" viewBox="0 0 120 170" fill="none" xmlns="http://www.w3.org/2000/svg">
<path d="M59.6846 142.595C52.4756 142.595 56.8251 166.69 49.1797 166.946C40.255 167.247 39.6079 136.365 39.6079 136.365C39.6079 136.365 27.4625 120.276 34.7919 105.061C41.4289 91.2749 56.4037 96.9638 59.6846 96.9638C62.9655 96.9638 77.9252 91.2749 84.5773 105.061C91.9066 120.276 79.7613 136.365 79.7613 136.365C79.7613 136.365 79.0991 167.247 70.1895 166.946C62.5591 166.69 66.8935 142.595 59.6846 142.595Z" stroke="white" stroke-width="6.02" stroke-linecap="round" stroke-linejoin="round"/>
<path d="M60.4373 67.4208C51.302 67.4208 43.8823 60.0011 43.8823 50.8658C43.8823 41.7304 51.302 34.3108 60.4373 34.3108C69.5727 34.3108 76.9923 41.7304 76.9923 50.8658C76.9923 60.0011 69.5727 67.4208 60.4373 67.4208Z" stroke="white" stroke-width="6.02" stroke-linecap="round" stroke-linejoin="round"/>
<path d="M28.0801 51.4075C28.0801 33.5582 42.5883 19.05 60.4376 19.05C70.0244 19.05 78.6631 23.249 84.5928 29.886" stroke="white" stroke-width="6.02" stroke-linecap="round" stroke-linejoin="round"/>
<path d="M92.7947 51.4075C92.7947 69.2568 78.2865 83.765 60.4372 83.765C52.6714 83.765 45.5377 81.0108 39.9541 76.4356" stroke="white" stroke-width="6.02" stroke-linecap="round" stroke-linejoin="round"/>
<path d="M84.5923 29.886C94.2995 17.545 95.8045 4 95.8045 4" stroke="white" stroke-width="6.02" stroke-linecap="round" stroke-linejoin="round"/>
<path d="M80.9209 76.4357C91.5311 83.0878 98.0628 95.8953 98.0628 109.35C98.0628 110.042 98.0478 110.75 98.0026 111.442C103.707 103.706 107.093 94.1344 107.093 83.765C107.093 70.8822 101.238 59.8506 92.7953 51.4075C92.7953 51.4075 113.865 34.1 116.875 4" stroke="white" stroke-width="6.02" stroke-linecap="round" stroke-linejoin="round"/>
<path d="M36.2821 29.886C26.5748 17.545 25.0698 4 25.0698 4" stroke="white" stroke-width="6.02" stroke-linecap="round" stroke-linejoin="round"/>
<path d="M39.9544 76.4357C29.3442 83.0878 22.8125 95.8953 22.8125 109.35C22.8125 110.042 22.8275 110.75 22.8727 111.442C17.1687 103.706 13.7825 94.1344 13.7825 83.765C13.7825 70.8822 19.6369 59.8506 28.08 51.4075C28.08 51.4075 7.01 34.1 4 4" stroke="white" stroke-width="6.02" stroke-linecap="round" stroke-linejoin="round"/>
</svg>
