<svg width="129" height="165" viewBox="0 0 129 165" fill="none" xmlns="http://www.w3.org/2000/svg">
<path d="M10.8514 78.1653C4.84138 64.6935 0.137863 44.1229 9.63199 24.4379C24.2942 -5.9898 57.2478 6.56741 64.5644 6.56741C71.881 6.56741 104.835 -5.97529 119.497 24.4379C128.991 44.1229 124.273 64.6935 118.277 78.1653H10.8514Z" stroke="white" stroke-width="6.62286" stroke-linecap="round" stroke-linejoin="round"/>
<path d="M42.7742 18.5586C33.4833 18.5586 27.0813 21.6652 22.7117 30.7384C19.9389 36.5016 18.8356 42.381 18.7485 47.9265" stroke="white" stroke-width="6.62286" stroke-linecap="round" stroke-linejoin="round"/>
<path d="M111.019 78.1653H18.1099V89.7789H111.019V78.1653Z" stroke="white" stroke-width="6.62286" stroke-linecap="round" stroke-linejoin="round"/>
<path d="M47.1153 160.912L35.5308 143.492V89.7791H93.5988V143.492L82.0288 160.912H47.1153Z" stroke="white" stroke-width="6.62286" stroke-linecap="round" stroke-linejoin="round"/>
<path d="M29.564 116.345L99.4053 104.02" stroke="white" stroke-width="6.62286" stroke-linecap="round" stroke-linejoin="round"/>
<path d="M29.564 101.828L93.5985 90.5339" stroke="white" stroke-width="6.62286" stroke-linecap="round" stroke-linejoin="round"/>
<path d="M29.564 130.862L99.4053 118.537" stroke="white" stroke-width="6.62286" stroke-linecap="round" stroke-linejoin="round"/>
<path d="M29.564 145.365L99.4053 133.054" stroke="white" stroke-width="6.62286" stroke-linecap="round" stroke-linejoin="round"/>
<path d="M44.502 157.254L89.795 149.27" stroke="white" stroke-width="6.62286" stroke-linecap="round" stroke-linejoin="round"/>
</svg>
