<svg width="289" height="145" viewBox="0 0 289 145" fill="none" xmlns="http://www.w3.org/2000/svg">
<path d="M286.067 71.8303C286.067 71.8303 221.459 2.26447 174.112 2.23828C164.878 2.23828 155.33 10.3578 144.418 10.3578C133.506 10.3578 123.957 2.23828 114.724 2.23828C67.3764 2.23828 2.76855 71.8303 2.76855 71.8303C2.76855 71.8303 66.2484 142.627 144.418 142.627C222.587 142.627 286.067 71.8303 286.067 71.8303Z" stroke="white" stroke-width="4" stroke-linecap="round" stroke-linejoin="round"/>
<path d="M178.282 77.1995L145.231 64.4702L178.282 51.7409L179.489 48.6241C119.655 43.3333 60.7136 51.2695 2.76855 71.8564C37.2365 84.1142 72.0718 91.8408 107.222 95.0101L104.651 88.3311L84.6366 80.6045L104.651 72.8779L112.389 52.8672L120.128 72.8779L140.168 80.6045L120.128 88.3311L117.242 95.7958C139.696 97.2626 162.281 96.8697 185.024 94.5386L178.335 77.1995H178.282Z" stroke="white" stroke-width="4" stroke-linecap="round" stroke-linejoin="round"/>
<path d="M197.667 93.0455C226.915 89.1429 256.373 82.1234 286.067 71.83C258.445 62.2437 230.981 55.4862 203.701 51.4526L203.806 51.6884L236.857 64.4177L203.806 77.1469L197.667 92.9931V93.0455Z" stroke="white" stroke-width="4" stroke-linecap="round" stroke-linejoin="round"/>
<path d="M191.057 18.7129L203.806 51.7148L236.857 64.444L203.806 77.1995L191.057 110.201L178.282 77.1995L145.231 64.444L178.282 51.7148L191.057 18.7129Z" stroke="white" stroke-width="4" stroke-linecap="round" stroke-linejoin="round"/>
<path d="M112.389 52.8936L120.101 72.878L140.142 80.6046L120.101 88.3051L112.389 108.316L104.651 88.3051L84.6104 80.6046L104.651 72.878L112.389 52.8936Z" stroke="white" stroke-width="4" stroke-linecap="round" stroke-linejoin="round"/>
</svg>
