<svg width="246" height="148" viewBox="0 0 246 148" fill="none" xmlns="http://www.w3.org/2000/svg">
<path d="M116.598 58.6851H129.962C132.423 58.6851 134.417 56.6906 134.417 54.2302V45.3206C134.417 42.8603 132.423 40.8658 129.962 40.8658H116.598C114.137 40.8658 112.143 42.8603 112.143 45.3206V54.2302C112.143 56.6906 114.137 58.6851 116.598 58.6851Z" stroke="white" stroke-width="4.59259" stroke-linecap="round" stroke-linejoin="round"/>
<path d="M190.103 58.6851H203.467C205.927 58.6851 207.922 56.6906 207.922 54.2302V45.3206C207.922 42.8603 205.927 40.8658 203.467 40.8658H190.103C187.642 40.8658 185.648 42.8603 185.648 45.3206V54.2302C185.648 56.6906 187.642 58.6851 190.103 58.6851Z" stroke="white" stroke-width="4.59259" stroke-linecap="round" stroke-linejoin="round"/>
<path d="M105.461 3H143.327C153.172 3 161.147 10.9741 161.147 20.8193V72.0496C161.147 91.7176 145.176 107.688 125.508 107.688H123.281C103.613 107.688 87.6421 91.7176 87.6421 72.0496V20.8193C87.6421 10.9741 95.6162 3 105.461 3Z" stroke="white" stroke-width="4.59259" stroke-linecap="round" stroke-linejoin="round"/>
<path d="M31.9565 3H69.8224C79.6675 3 87.6417 10.9741 87.6417 20.8193V72.0496C87.6417 91.7176 71.6711 107.688 52.0031 107.688H49.7757C30.1077 107.688 14.1372 91.7176 14.1372 72.0496V20.8193C14.1372 10.9741 22.1113 3 31.9565 3Z" stroke="white" stroke-width="4.59259" stroke-linecap="round" stroke-linejoin="round"/>
<path d="M178.965 3H216.831C226.676 3 234.65 10.9741 234.65 20.8193V72.0496C234.65 91.7176 218.68 107.688 199.012 107.688H196.785C177.117 107.688 161.146 91.7176 161.146 72.0496V20.8193C161.146 10.9741 169.12 3 178.965 3Z" stroke="white" stroke-width="4.59259" stroke-linecap="round" stroke-linejoin="round"/>
<path d="M243.56 49.7759H207.922" stroke="white" stroke-width="4.59259" stroke-linecap="round" stroke-linejoin="round"/>
<path d="M185.647 49.7759H134.417" stroke="white" stroke-width="4.59259" stroke-linecap="round" stroke-linejoin="round"/>
<path d="M56.4574 40.866H43.093C40.6327 40.866 38.6382 42.8605 38.6382 45.3208V54.2304C38.6382 56.6907 40.6327 58.6852 43.093 58.6852H56.4574C58.9178 58.6852 60.9123 56.6907 60.9123 54.2304V45.3208C60.9123 42.8605 58.9178 40.866 56.4574 40.866Z" stroke="white" stroke-width="4.59259" stroke-linecap="round" stroke-linejoin="round"/>
<path d="M3 49.7759H38.6385" stroke="white" stroke-width="4.59259" stroke-linecap="round" stroke-linejoin="round"/>
<path d="M60.9121 49.7759H112.142" stroke="white" stroke-width="4.59259" stroke-linecap="round" stroke-linejoin="round"/>
<path d="M11.9096 78.7319H9.68222C5.98473 78.7319 3 81.7167 3 85.4142V136.645C3 141.567 6.98706 145.554 11.9096 145.554H234.65C239.573 145.554 243.56 141.567 243.56 136.645V85.4142C243.56 81.7167 240.575 78.7319 236.878 78.7319H234.65" stroke="white" stroke-width="4.59259" stroke-linecap="round" stroke-linejoin="round"/>
</svg>
