<svg width="236" height="98" viewBox="0 0 236 98" fill="none" xmlns="http://www.w3.org/2000/svg">
<path d="M4.21436 63.9129V21.3042C4.21436 11.8877 11.7579 4.26074 21.0715 4.26074H214.929C224.242 4.26074 231.786 11.8877 231.786 21.3042V63.9129" stroke="white" stroke-width="4" stroke-linecap="round" stroke-linejoin="round"/>
<path d="M203.339 31.9565C219.038 31.9565 231.786 44.8457 231.786 60.7174V85.2174C231.786 89.9257 228.014 93.7392 223.357 93.7392H183.322C178.665 93.7392 174.893 89.9257 174.893 85.2174V60.7174C174.893 44.8457 187.641 31.9565 203.339 31.9565Z" stroke="white" stroke-width="4" stroke-linecap="round" stroke-linejoin="round"/>
<path d="M32.6608 31.9565C48.359 31.9565 61.1072 44.8457 61.1072 60.7174V85.2174C61.1072 89.9257 57.3354 93.7392 52.6786 93.7392H12.6429C7.98614 93.7392 4.21436 89.9257 4.21436 85.2174V60.7174C4.21436 44.8457 16.9626 31.9565 32.6608 31.9565Z" stroke="white" stroke-width="4" stroke-linecap="round" stroke-linejoin="round"/>
<path d="M89.5534 31.9565C105.252 31.9565 118 44.8457 118 60.7174V85.2174C118 89.9257 114.228 93.7392 109.571 93.7392H69.5355C64.8787 93.7392 61.1069 89.9257 61.1069 85.2174V60.7174C61.1069 44.8457 73.8551 31.9565 89.5534 31.9565Z" stroke="white" stroke-width="4" stroke-linecap="round" stroke-linejoin="round"/>
<path d="M146.446 31.9565C162.145 31.9565 174.893 44.8457 174.893 60.7174V85.2174C174.893 89.9257 171.121 93.7392 166.464 93.7392H126.429C121.772 93.7392 118 89.9257 118 85.2174V60.7174C118 44.8457 130.748 31.9565 146.446 31.9565Z" stroke="white" stroke-width="4" stroke-linecap="round" stroke-linejoin="round"/>
</svg>
