<svg width="172" height="172" viewBox="0 0 172 172" fill="none" xmlns="http://www.w3.org/2000/svg">
<path d="M69.5392 169.491C69.5392 169.491 86.4435 122.253 86.521 122.191L108.264 98.6643C110.001 97.4081 108.45 94.7251 106.496 95.5936L80.3176 114.436C80.1315 114.529 51.627 169.491 51.627 169.491" stroke="white" stroke-width="4" stroke-linecap="round" stroke-linejoin="round"/>
<path d="M148.555 22.161C160.109 22.161 169.492 31.5436 169.492 43.0975V64.0339C169.492 67.4613 166.716 70.2373 163.288 70.2373H133.822C130.395 70.2373 127.619 67.4613 127.619 64.0339V43.0975C127.619 31.5436 137.001 22.161 148.555 22.161Z" stroke="white" stroke-width="4" stroke-linecap="round" stroke-linejoin="round"/>
<path d="M22.9364 22.161C34.4903 22.161 43.8729 31.5436 43.8729 43.0975V64.0339C43.8729 67.4613 41.0969 70.2373 37.6695 70.2373H8.20339C4.77602 70.2373 2 67.4613 2 64.0339V43.0975C2 31.5436 11.3826 22.161 22.9364 22.161Z" stroke="white" stroke-width="4" stroke-linecap="round" stroke-linejoin="round"/>
<path d="M64.8095 22.161C76.3633 22.161 85.7459 31.5436 85.7459 43.0975V68.6864C85.7459 72.1138 82.9699 74.8898 79.5425 74.8898H50.0764C46.6491 74.8898 43.873 72.1138 43.873 68.6864V43.0975C43.873 31.5436 53.2557 22.161 64.8095 22.161Z" stroke="white" stroke-width="4" stroke-linecap="round" stroke-linejoin="round"/>
<path d="M114.436 68.6864C102.867 68.6864 93.5 78.0536 93.5 89.6229V104.945L106.496 95.5936C108.45 94.7252 110.001 97.4081 108.264 98.6643L93.5 114.638V115.212C93.5 118.639 96.276 121.415 99.7034 121.415H121.431L110.11 117.057L123.54 111.878L128.72 98.4472L133.9 111.878L135.357 112.436V89.6229C135.357 78.0536 125.99 68.6864 114.421 68.6864H114.436Z" stroke="white" stroke-width="4" stroke-linecap="round" stroke-linejoin="round"/>
<path d="M112.048 68.7485C117.399 68.1591 122.377 69.6014 126.363 72.3775C127.138 71.3384 127.603 70.0822 127.603 68.6864V43.0975C127.603 31.5281 118.236 22.161 106.667 22.161C95.0976 22.161 85.7305 31.5281 85.7305 43.0975V68.6864C85.7305 72.1138 88.5065 74.8898 91.9339 74.8898H99.6416C102.867 71.571 107.148 69.2913 112.033 68.7485H112.048Z" stroke="white" stroke-width="4" stroke-linecap="round" stroke-linejoin="round"/>
<path d="M2 46.9746V14.4068C2 7.55203 7.55203 2 14.4068 2H157.085C163.939 2 169.492 7.55203 169.492 14.4068V46.9746" stroke="white" stroke-width="4" stroke-linecap="round" stroke-linejoin="round"/>
<path d="M128.735 98.4471L133.915 111.862L147.345 117.057L133.915 122.237L128.735 135.667L123.555 122.237L110.125 117.057L123.555 111.862L128.735 98.4471Z" stroke="white" stroke-width="4" stroke-linecap="round" stroke-linejoin="round"/>
</svg>
