<svg width="172" height="175" viewBox="0 0 172 175" fill="none" xmlns="http://www.w3.org/2000/svg">
<path d="M47.206 17.9489C35.1841 17.16 27.138 20.126 21.8528 31.1067C18.8868 37.2754 17.7666 43.6492 17.8139 49.8494" stroke="white" stroke-width="4" stroke-linecap="round" stroke-linejoin="round"/>
<path d="M109.256 150.616C105.832 163.3 100.626 173.271 92.7062 173.003C74.3578 172.388 84.802 114.487 67.4792 114.487C50.1563 114.487 60.6005 172.388 42.2521 173.003C20.8115 173.729 19.2339 99.4832 19.2339 99.4832C19.2339 99.4832 -9.96889 60.8144 7.65374 24.2596C23.6198 -8.87153 59.5908 4.79113 67.4634 4.79113C75.336 4.79113 111.307 -8.87153 127.289 24.2596C127.699 25.1116 128.078 25.9635 128.441 26.7997" stroke="white" stroke-width="4" stroke-linecap="round" stroke-linejoin="round"/>
<path d="M121.026 137.994C121.026 137.994 70.3035 107.088 72.1179 37.0232C90.6713 46.3473 107.063 46.7732 120.994 37.0232C134.925 46.7732 151.317 46.3473 169.871 37.0232C171.685 107.088 120.963 137.994 120.963 137.994H121.01H121.026Z" stroke="white" stroke-width="4" stroke-linecap="round" stroke-linejoin="round"/>
<path d="M120.994 122.265C110.266 113.241 89.9928 91.7054 85.5596 55.3084C90.0086 56.3023 94.3472 56.8072 98.5596 56.8072C106.495 56.8072 114.005 55.0717 120.994 51.6482C127.983 55.0717 135.509 56.8072 143.429 56.8072C147.641 56.8072 151.98 56.3023 156.429 55.3084C151.995 91.7054 131.722 113.241 120.994 122.265Z" stroke="white" stroke-width="4" stroke-linecap="round" stroke-linejoin="round"/>
</svg>
