<svg width="236" height="100" viewBox="0 0 236 100" fill="none" xmlns="http://www.w3.org/2000/svg">
<g clip-path="url(#clip0_239_105)">
<path d="M80.0003 47.9484C79.5226 47.6015 78.812 47.3502 77.8983 47.2007C77.0026 47.0571 75.8023 46.9854 74.3453 46.9854H64.1698V62.2982H66.3673V56.526H74.2796C75.7426 56.526 76.9429 56.4422 77.8446 56.2867C78.7582 56.1252 79.4748 55.862 79.9645 55.5031C80.4661 55.1382 80.8124 54.6537 80.9856 54.0556C81.1528 53.4813 81.2424 52.7755 81.2424 51.956V51.5672C81.2424 50.7119 81.1588 49.9821 80.9916 49.4019C80.8184 48.7978 80.484 48.3133 79.9943 47.9603L80.0003 47.9484ZM79.0508 51.5553V51.9441C79.0508 52.5004 78.9971 52.9609 78.8836 53.3139C78.7761 53.6428 78.5731 53.8881 78.2566 54.0675C77.9282 54.253 77.4206 54.3846 76.7518 54.4563C76.0651 54.5281 75.1395 54.57 73.987 54.57H66.3733V48.9353H73.987C75.1335 48.9353 76.0651 48.9653 76.7578 49.0251C77.4266 49.0849 77.9342 49.2045 78.2626 49.384C78.5791 49.5514 78.7821 49.7967 78.8836 50.1257C78.9971 50.4786 79.0508 50.9631 79.0508 51.5553Z" fill="#474748"/>
<path d="M102.376 47.8826C101.898 47.5536 101.187 47.3143 100.274 47.1827C99.3779 47.0511 98.1836 46.9854 96.7205 46.9854H86.5451V62.2982H88.7426V56.2448H97.5685C97.676 56.2448 97.7775 56.2448 97.873 56.2448L101.056 62.3042H103.301L100.029 56.0654C100.966 55.9158 101.701 55.6706 102.202 55.3356C102.758 54.9708 103.14 54.4803 103.337 53.8821C103.528 53.3079 103.624 52.608 103.624 51.8185V51.4297C103.624 50.5743 103.54 49.8505 103.373 49.2883C103.2 48.7021 102.865 48.2295 102.376 47.8945V47.8826ZM101.301 53.1045C101.229 53.4096 101.062 53.6369 100.793 53.8043C100.512 53.9778 100.059 54.1034 99.4495 54.1752C98.8225 54.247 97.9447 54.2889 96.8459 54.2889H88.7486V48.9353H96.3622C97.5088 48.9353 98.4463 48.9593 99.133 49.0071C99.8018 49.055 100.309 49.1567 100.638 49.3182C100.948 49.4677 101.151 49.695 101.253 50.012C101.366 50.353 101.42 50.8255 101.42 51.4237V51.8125C101.42 52.3448 101.378 52.7755 101.301 53.1105V53.1045Z" fill="#474748"/>
<path d="M127.026 48.8216C126.692 48.2294 126.232 47.7748 125.658 47.4578C125.097 47.1527 124.381 46.9374 123.533 46.8297C122.697 46.722 121.681 46.6682 120.511 46.6682H116.588C115.417 46.6682 114.402 46.722 113.566 46.8297C112.718 46.9374 112.002 47.1527 111.44 47.4578C110.867 47.7688 110.407 48.2294 110.073 48.8216C109.744 49.4018 109.512 50.1615 109.38 51.0766C109.249 51.9799 109.183 53.1104 109.183 54.4383V54.8271C109.183 56.4361 109.291 57.764 109.506 58.7689C109.721 59.7978 110.109 60.5993 110.658 61.1556C111.207 61.7119 111.978 62.0947 112.945 62.2981C113.895 62.4955 115.119 62.5972 116.582 62.5972H120.505C121.968 62.5972 123.192 62.4955 124.142 62.2981C125.109 62.0947 125.879 61.7119 126.429 61.1556C126.978 60.5993 127.366 59.7978 127.581 58.7689C127.796 57.764 127.904 56.4361 127.904 54.8271V54.4383C127.904 53.1104 127.838 51.9799 127.707 51.0766C127.575 50.1615 127.342 49.4018 127.014 48.8216H127.026ZM125.712 54.4443V54.8331C125.712 55.9277 125.676 56.8489 125.599 57.5666C125.521 58.2725 125.384 58.8407 125.181 59.2594C124.984 59.6602 124.703 59.9653 124.339 60.1627C123.963 60.366 123.461 60.5036 122.846 60.5634C122.219 60.6292 121.437 60.6591 120.517 60.6591H116.594C115.674 60.6591 114.892 60.6292 114.265 60.5634C113.656 60.5036 113.154 60.366 112.772 60.1627C112.408 59.9653 112.121 59.6602 111.93 59.2594C111.727 58.8407 111.59 58.2725 111.512 57.5666C111.434 56.8489 111.399 55.9277 111.399 54.8331V54.4443C111.399 53.3137 111.44 52.3687 111.512 51.6329C111.59 50.9151 111.727 50.3409 111.93 49.9342C112.121 49.5394 112.408 49.2523 112.772 49.0668C113.148 48.8814 113.656 48.7558 114.265 48.702C114.898 48.6481 115.68 48.6182 116.6 48.6182H120.523C121.443 48.6182 122.225 48.6481 122.858 48.702C123.473 48.7558 123.974 48.8754 124.351 49.0668C124.721 49.2523 124.996 49.5334 125.193 49.9342C125.396 50.3469 125.533 50.9151 125.611 51.6329C125.688 52.3627 125.724 53.3078 125.724 54.4443H125.712Z" fill="#474748"/>
<path d="M132.735 48.8755H140.211V62.2922H142.415V48.8755H149.891V46.9854H132.735V48.8755Z" fill="#474748"/>
<path d="M157.534 55.4313H169.806V53.5352H157.534V48.8755H170.343V46.9854H155.331V62.2922H170.618V60.402H157.534V55.4313Z" fill="#474748"/>
<path d="M193.286 46.9854H189.9L180.232 53.5352H177.969V46.9854H175.771V62.2922H177.969V55.4313H180.244L190.21 62.2922H193.59L182.453 54.4862L193.286 46.9854Z" fill="#474748"/>
<path d="M197.43 48.8755H204.906V62.2922H207.11V48.8755H214.586V46.9854H197.43V48.8755Z" fill="#474748"/>
<path d="M227.085 46.9854H224.403L215.488 62.2982H218.056L219.925 58.8648H231.563L233.432 62.2982H236L227.085 46.9854ZM230.441 56.9686H221.041L225.741 48.732L230.441 56.9686Z" fill="#474748"/>
<path d="M70.8042 42.9417C70.8042 42.7085 70.7863 42.529 70.7505 42.3914C70.7146 42.2598 70.631 42.1582 70.5056 42.0924C70.3802 42.0266 70.1772 41.9847 69.9085 41.9668C69.6398 41.9488 69.2695 41.9309 68.8037 41.9249L66.6301 41.895C66.0927 41.889 65.6627 41.8531 65.3343 41.7993C65.0059 41.7394 64.761 41.6497 64.5938 41.5241C64.4266 41.3985 64.3132 41.231 64.2594 41.0217C64.2057 40.8123 64.1758 40.5491 64.1758 40.2381C64.1758 39.8971 64.2117 39.616 64.2893 39.3887C64.3669 39.1674 64.5043 38.9939 64.7073 38.8683C64.9103 38.7427 65.197 38.653 65.5672 38.6051C65.9374 38.5572 66.4151 38.5273 67.0063 38.5273H68.6843C69.2158 38.5273 69.6577 38.5453 70.016 38.5812C70.3683 38.6171 70.6549 38.6948 70.8639 38.8145C71.0729 38.9401 71.2222 39.1255 71.3118 39.3887C71.4014 39.6459 71.4491 40.0048 71.4491 40.4534H70.6967C70.6967 40.1005 70.6609 39.8373 70.5952 39.6579C70.5295 39.4784 70.422 39.3588 70.2668 39.293C70.1115 39.2272 69.9085 39.1913 69.6517 39.1853C69.3949 39.1793 69.0725 39.1793 68.6903 39.1793H67.0541C66.5883 39.1793 66.2121 39.1913 65.9315 39.2092C65.6508 39.2272 65.4418 39.2691 65.2925 39.3349C65.1492 39.4007 65.0536 39.5023 65.0059 39.6459C64.9581 39.7895 64.9342 39.9868 64.9342 40.2381C64.9342 40.4474 64.9521 40.6209 64.988 40.7465C65.0238 40.8721 65.0954 40.9738 65.2149 41.0396C65.3343 41.1054 65.5194 41.1533 65.7642 41.1772C66.0091 41.2011 66.3495 41.2191 66.7794 41.225L69.1143 41.2549C69.6636 41.2609 70.0996 41.2968 70.428 41.3506C70.7564 41.4045 71.0013 41.5002 71.1625 41.6258C71.3237 41.7514 71.4312 41.9189 71.485 42.1342C71.5387 42.3496 71.5626 42.6187 71.5626 42.9417C71.5626 43.2947 71.5268 43.5878 71.4611 43.827C71.3954 44.0663 71.264 44.2577 71.0729 44.4013C70.8818 44.5448 70.6071 44.6465 70.2489 44.7123C69.8906 44.7781 69.4128 44.808 68.8276 44.808H66.9944C66.4569 44.808 66.0091 44.7841 65.6508 44.7362C65.2865 44.6884 64.9999 44.5927 64.7849 44.4491C64.5699 44.3055 64.4147 44.0962 64.3191 43.8151C64.2236 43.5339 64.1758 43.1571 64.1758 42.6845H64.9282C64.9282 43.0554 64.9581 43.3365 65.0178 43.5399C65.0775 43.7433 65.185 43.8868 65.3343 43.9706C65.4836 44.0603 65.6926 44.1082 65.9673 44.1261C66.236 44.144 66.5823 44.15 67.0003 44.15H68.7918C69.2576 44.15 69.6278 44.1321 69.8965 44.1022C70.1653 44.0723 70.3683 44.0124 70.4997 43.9287C70.631 43.845 70.7146 43.7194 70.7505 43.5638C70.7863 43.4083 70.8102 43.193 70.8102 42.9298L70.8042 42.9417Z" fill="#474748"/>
<path d="M75.4142 44.6824V39.287H72.4105V38.6589H79.1762V39.287H76.1726V44.6824H75.4201H75.4142Z" fill="#474748"/>
<path d="M82.9443 44.8079C82.359 44.8079 81.8754 44.766 81.4932 44.6882C81.111 44.6105 80.8184 44.4609 80.6094 44.2456C80.3944 44.0303 80.2451 43.7252 80.1615 43.3185C80.0779 42.9117 80.0361 42.3913 80.0361 41.7453V41.5898C80.0361 41.0574 80.06 40.6088 80.1138 40.2499C80.1675 39.885 80.2571 39.5919 80.3825 39.3646C80.5079 39.1373 80.687 38.9639 80.902 38.8442C81.1229 38.7246 81.3976 38.6409 81.732 38.599C82.0664 38.5571 82.4665 38.5332 82.9383 38.5332H84.5148C84.9865 38.5332 85.3866 38.5571 85.721 38.599C86.0554 38.6409 86.3301 38.7246 86.5511 38.8442C86.772 38.9639 86.9452 39.1373 87.0706 39.3646C87.196 39.5919 87.2855 39.885 87.3393 40.2499C87.393 40.6148 87.4169 41.0574 87.4169 41.5898V41.7453C87.4169 42.3913 87.3751 42.9177 87.2915 43.3185C87.2079 43.7192 87.0586 44.0303 86.8436 44.2456C86.6287 44.4609 86.3361 44.6045 85.9599 44.6882C85.5837 44.766 85.1 44.8079 84.5088 44.8079H82.9323H82.9443ZM82.9443 44.1619H84.5207C84.891 44.1619 85.2075 44.1499 85.4642 44.12C85.721 44.0901 85.93 44.0363 86.0912 43.9525C86.2525 43.8688 86.3719 43.7372 86.4615 43.5577C86.551 43.3783 86.6048 43.151 86.6347 42.8579C86.6645 42.5648 86.6824 42.1939 86.6824 41.7513V41.5958C86.6824 41.1352 86.6645 40.7584 86.6347 40.4593C86.6048 40.1602 86.5451 39.9269 86.4615 39.7534C86.3779 39.58 86.2525 39.4544 86.0912 39.3766C85.93 39.2988 85.721 39.245 85.4642 39.2211C85.2075 39.1972 84.8969 39.1852 84.5207 39.1852H82.9443C82.574 39.1852 82.2575 39.1972 82.0008 39.2211C81.744 39.245 81.535 39.2929 81.3738 39.3766C81.2125 39.4544 81.0931 39.58 81.0035 39.7534C80.9199 39.9269 80.8602 40.1602 80.8303 40.4593C80.8005 40.7584 80.7826 41.1352 80.7826 41.5958V41.7513C80.7826 42.1939 80.8005 42.5648 80.8303 42.8579C80.8602 43.151 80.9199 43.3843 81.0035 43.5577C81.0871 43.7312 81.2125 43.8628 81.3738 43.9525C81.535 44.0363 81.744 44.0961 82.0008 44.12C82.2575 44.1439 82.568 44.1619 82.9443 44.1619Z" fill="#474748"/>
<path d="M88.7008 44.6824V38.6589H89.8175L93.4541 43.5698L97.037 38.6589H98.1537V44.6824H97.4013V39.3408L93.8124 44.2876H93.1317L89.4472 39.3408V44.6824H88.6948H88.7008Z" fill="#474748"/>
<path d="M99.1748 44.6824L102.68 38.6589H103.683L107.189 44.6824H106.311L105.558 43.3006H100.799L100.047 44.6824H99.1689H99.1748ZM101.175 42.6786H105.182L103.176 39.1674L101.169 42.6786H101.175Z" fill="#474748"/>
<path d="M110.813 44.6824V39.287H107.81V38.6589H114.575V39.287H111.572V44.6824H110.819H110.813Z" fill="#474748"/>
<path d="M118.349 44.8079C117.764 44.8079 117.28 44.766 116.898 44.6882C116.516 44.6105 116.223 44.4609 116.014 44.2456C115.799 44.0303 115.65 43.7252 115.567 43.3185C115.483 42.9117 115.441 42.3913 115.441 41.7453V41.5898C115.441 41.0574 115.465 40.6088 115.519 40.2499C115.573 39.885 115.662 39.5919 115.788 39.3646C115.913 39.1373 116.092 38.9639 116.307 38.8442C116.528 38.7246 116.803 38.6409 117.137 38.599C117.472 38.5571 117.872 38.5332 118.343 38.5332H119.92C120.392 38.5332 120.792 38.5571 121.126 38.599C121.46 38.6409 121.735 38.7246 121.956 38.8442C122.177 38.9639 122.35 39.1373 122.476 39.3646C122.601 39.5919 122.691 39.885 122.744 40.2499C122.798 40.6148 122.822 41.0574 122.822 41.5898V41.7453C122.822 42.3913 122.78 42.9177 122.697 43.3185C122.613 43.7192 122.464 44.0303 122.249 44.2456C122.034 44.4609 121.741 44.6045 121.365 44.6882C120.989 44.766 120.505 44.8079 119.914 44.8079H118.337H118.349ZM118.349 44.1619H119.926C120.296 44.1619 120.613 44.1499 120.869 44.12C121.126 44.0901 121.335 44.0363 121.496 43.9525C121.658 43.8688 121.777 43.7372 121.867 43.5577C121.956 43.3783 122.01 43.151 122.04 42.8579C122.07 42.5648 122.087 42.1939 122.087 41.7513V41.5958C122.087 41.1352 122.07 40.7584 122.04 40.4593C122.01 40.1602 121.95 39.9269 121.867 39.7534C121.783 39.58 121.658 39.4544 121.496 39.3766C121.335 39.2988 121.126 39.245 120.869 39.2211C120.613 39.1972 120.302 39.1852 119.926 39.1852H118.349C117.979 39.1852 117.663 39.1972 117.406 39.2211C117.149 39.245 116.94 39.2929 116.779 39.3766C116.618 39.4544 116.498 39.58 116.409 39.7534C116.325 39.9269 116.265 40.1602 116.235 40.4593C116.206 40.7584 116.188 41.1352 116.188 41.5958V41.7513C116.188 42.1939 116.206 42.5648 116.235 42.8579C116.265 43.151 116.325 43.3843 116.409 43.5577C116.492 43.7312 116.618 43.8628 116.779 43.9525C116.94 44.0363 117.149 44.0961 117.406 44.12C117.663 44.1439 117.973 44.1619 118.349 44.1619Z" fill="#474748"/>
<path d="M124.088 44.6824V38.6589H124.84V44.0543H129.6V44.6824H124.088Z" fill="#474748"/>
<path d="M133.254 44.8079C132.669 44.8079 132.185 44.766 131.803 44.6882C131.421 44.6105 131.128 44.4609 130.919 44.2456C130.704 44.0303 130.555 43.7252 130.471 43.3185C130.388 42.9117 130.346 42.3913 130.346 41.7453V41.5898C130.346 41.0574 130.37 40.6088 130.424 40.2499C130.477 39.885 130.567 39.5919 130.692 39.3646C130.818 39.1373 130.997 38.9639 131.212 38.8442C131.433 38.7246 131.708 38.6409 132.042 38.599C132.376 38.5571 132.776 38.5332 133.248 38.5332H134.825C135.296 38.5332 135.697 38.5571 136.031 38.599C136.365 38.6409 136.64 38.7246 136.861 38.8442C137.082 38.9639 137.255 39.1373 137.381 39.3646C137.506 39.5919 137.596 39.885 137.649 40.2499C137.703 40.6148 137.727 41.0574 137.727 41.5898V41.7453C137.727 42.3913 137.685 42.9177 137.601 43.3185C137.518 43.7192 137.369 44.0303 137.154 44.2456C136.939 44.4609 136.646 44.6045 136.27 44.6882C135.894 44.766 135.41 44.8079 134.819 44.8079H133.242H133.254ZM133.254 44.1619H134.831C135.201 44.1619 135.517 44.1499 135.774 44.12C136.031 44.0901 136.24 44.0363 136.401 43.9525C136.562 43.8688 136.682 43.7372 136.771 43.5577C136.861 43.3783 136.915 43.151 136.945 42.8579C136.974 42.5648 136.992 42.1939 136.992 41.7513V41.5958C136.992 41.1352 136.974 40.7584 136.945 40.4593C136.915 40.1602 136.855 39.9269 136.771 39.7534C136.688 39.58 136.562 39.4544 136.401 39.3766C136.24 39.2988 136.031 39.245 135.774 39.2211C135.517 39.1972 135.207 39.1852 134.831 39.1852H133.254C132.884 39.1852 132.567 39.1972 132.311 39.2211C132.054 39.245 131.845 39.2929 131.684 39.3766C131.522 39.4544 131.403 39.58 131.313 39.7534C131.23 39.9269 131.17 40.1602 131.14 40.4593C131.11 40.7584 131.093 41.1352 131.093 41.5958V41.7513C131.093 42.1939 131.11 42.5648 131.14 42.8579C131.17 43.151 131.23 43.3843 131.313 43.5577C131.397 43.7312 131.522 43.8628 131.684 43.9525C131.845 44.0363 132.054 44.0961 132.311 44.12C132.567 44.1439 132.878 44.1619 133.254 44.1619Z" fill="#474748"/>
<path d="M145.394 42.9417C145.394 42.7084 145.376 42.529 145.341 42.3914C145.305 42.2598 145.221 42.1581 145.096 42.0923C144.97 42.0265 144.767 41.9846 144.499 41.9667C144.23 41.9487 143.86 41.9308 143.394 41.9248L141.22 41.8949C140.683 41.8889 140.253 41.853 139.924 41.7992C139.596 41.7394 139.351 41.6497 139.184 41.5241C139.017 41.3984 138.903 41.231 138.85 41.0216C138.796 40.8122 138.766 40.5491 138.766 40.238C138.766 39.8971 138.802 39.6159 138.879 39.3886C138.957 39.1673 139.094 38.9938 139.297 38.8682C139.5 38.7426 139.787 38.6529 140.157 38.605C140.528 38.5572 141.005 38.5273 141.596 38.5273H143.274C143.806 38.5273 144.248 38.5452 144.606 38.5811C144.958 38.617 145.245 38.6948 145.454 38.8144C145.663 38.94 145.812 39.1254 145.902 39.3886C145.991 39.6458 146.039 40.0047 146.039 40.4533H145.287C145.287 40.1004 145.251 39.8373 145.185 39.6578C145.12 39.4784 145.012 39.3587 144.857 39.2929C144.702 39.2271 144.499 39.1912 144.242 39.1853C143.985 39.1793 143.663 39.1793 143.28 39.1793H141.644C141.178 39.1793 140.802 39.1912 140.522 39.2092C140.241 39.2271 140.032 39.269 139.883 39.3348C139.739 39.4006 139.644 39.5023 139.596 39.6458C139.548 39.7894 139.524 39.9868 139.524 40.238C139.524 40.4474 139.542 40.6208 139.578 40.7464C139.614 40.8721 139.686 40.9737 139.805 41.0395C139.924 41.1053 140.11 41.1532 140.354 41.1771C140.599 41.201 140.94 41.219 141.37 41.225L143.704 41.2549C144.254 41.2609 144.69 41.2968 145.018 41.3506C145.347 41.4044 145.591 41.5001 145.753 41.6257C145.914 41.7514 146.021 41.9188 146.075 42.1342C146.129 42.3495 146.153 42.6187 146.153 42.9417C146.153 43.2946 146.117 43.5877 146.051 43.827C145.985 44.0662 145.854 44.2576 145.663 44.4012C145.472 44.5448 145.197 44.6464 144.839 44.7122C144.481 44.778 144.003 44.8079 143.418 44.8079H141.584C141.047 44.8079 140.599 44.784 140.241 44.7362C139.877 44.6883 139.59 44.5926 139.375 44.449C139.16 44.3055 139.005 44.0961 138.909 43.815C138.814 43.5339 138.766 43.157 138.766 42.6845H139.518C139.518 43.0553 139.548 43.3365 139.608 43.5398C139.668 43.7432 139.775 43.8868 139.924 43.9705C140.074 44.0602 140.283 44.1081 140.557 44.126C140.826 44.144 141.172 44.15 141.59 44.15H143.382C143.848 44.15 144.218 44.132 144.487 44.1021C144.755 44.0722 144.958 44.0124 145.09 43.9286C145.221 43.8449 145.305 43.7193 145.341 43.5638C145.376 43.4083 145.4 43.1929 145.4 42.9297L145.394 42.9417ZM142.062 38.0189L140.808 36.1347L141.31 35.7578L142.438 37.5164L143.567 35.7578L144.069 36.1347L142.815 38.0189H142.062Z" fill="#474748"/>
<path d="M147.377 44.6824V38.6589H148.129V41.2908H149.126L153.014 38.6589H154.143L149.885 41.6079L154.268 44.6824H153.139L149.132 41.9249H148.129V44.6824H147.377Z" fill="#474748"/>
<path d="M154.77 44.6824L158.275 38.6589H159.278L162.783 44.6824H161.906L161.153 43.3006H156.394L155.641 44.6824H154.764H154.77ZM156.77 42.6786H160.777L158.77 39.1674L156.764 42.6786H156.77Z" fill="#474748"/>
<path d="M168.719 44.8079C168.134 44.8079 167.65 44.766 167.268 44.6882C166.886 44.6105 166.593 44.4609 166.384 44.2456C166.169 44.0303 166.02 43.7252 165.936 43.3185C165.853 42.9117 165.811 42.3913 165.811 41.7453V41.5898C165.811 41.0574 165.835 40.6088 165.889 40.2499C165.942 39.885 166.032 39.5919 166.157 39.3646C166.283 39.1373 166.462 38.9639 166.677 38.8442C166.898 38.7246 167.172 38.6409 167.507 38.599C167.841 38.5571 168.241 38.5332 168.713 38.5332H170.29C170.761 38.5332 171.161 38.5571 171.496 38.599C171.83 38.6409 172.105 38.7246 172.326 38.8442C172.547 38.9639 172.72 39.1373 172.845 39.3646C172.971 39.5919 173.06 39.885 173.114 40.2499C173.168 40.6148 173.192 41.0574 173.192 41.5898V41.7453C173.192 42.3913 173.15 42.9177 173.066 43.3185C172.983 43.7192 172.833 44.0303 172.618 44.2456C172.403 44.4609 172.111 44.6045 171.735 44.6882C171.358 44.766 170.875 44.8079 170.284 44.8079H168.707H168.719ZM168.719 44.1619H170.295C170.666 44.1619 170.982 44.1499 171.239 44.12C171.496 44.0901 171.705 44.0363 171.866 43.9525C172.027 43.8688 172.147 43.7372 172.236 43.5577C172.326 43.3783 172.38 43.151 172.409 42.8579C172.439 42.5648 172.457 42.1939 172.457 41.7513V41.5958C172.457 41.1352 172.439 40.7584 172.409 40.4593C172.38 40.1602 172.32 39.9269 172.236 39.7534C172.153 39.58 172.027 39.4544 171.866 39.3766C171.705 39.2988 171.496 39.245 171.239 39.2211C170.982 39.1972 170.672 39.1852 170.295 39.1852H168.719C168.349 39.1852 168.032 39.1972 167.776 39.2211C167.519 39.245 167.31 39.2929 167.149 39.3766C166.987 39.4544 166.868 39.58 166.778 39.7534C166.695 39.9269 166.635 40.1602 166.605 40.4593C166.575 40.7584 166.557 41.1352 166.557 41.5958V41.7513C166.557 42.1939 166.575 42.5648 166.605 42.8579C166.635 43.151 166.695 43.3843 166.778 43.5577C166.862 43.7312 166.987 43.8628 167.149 43.9525C167.31 44.0363 167.519 44.0961 167.776 44.12C168.032 44.1439 168.343 44.1619 168.719 44.1619Z" fill="#474748"/>
<path d="M174.476 38.6648H178.5C179.086 38.6648 179.563 38.6887 179.922 38.7426C180.28 38.7964 180.555 38.8861 180.74 39.0117C180.925 39.1373 181.05 39.3168 181.116 39.5381C181.182 39.7594 181.211 40.0406 181.211 40.3815V40.537C181.211 40.8481 181.176 41.1232 181.098 41.3445C181.026 41.5718 180.883 41.7513 180.668 41.8948C180.453 42.0384 180.143 42.1341 179.73 42.1879L181.038 44.6823H180.286L179.008 42.2418C178.954 42.2418 178.9 42.2418 178.847 42.2418H175.234V44.6763H174.482V38.6528L174.476 38.6648ZM175.228 41.5958H178.548C178.996 41.5958 179.348 41.5778 179.605 41.5479C179.862 41.518 180.053 41.4642 180.172 41.3864C180.292 41.3087 180.369 41.201 180.405 41.0634C180.441 40.9258 180.459 40.7464 180.459 40.5251V40.3695C180.459 40.1183 180.435 39.9269 180.387 39.7833C180.34 39.6398 180.244 39.5321 180.107 39.4663C179.963 39.4005 179.754 39.3527 179.474 39.3347C179.193 39.3168 178.823 39.3048 178.357 39.3048H175.228V41.5898V41.5958Z" fill="#474748"/>
<path d="M182.645 44.6824V38.6589H187.105C187.69 38.6589 188.174 38.6948 188.556 38.7666C188.939 38.8384 189.231 38.976 189.44 39.1793C189.649 39.3827 189.804 39.6758 189.888 40.0646C189.972 40.4534 190.013 40.9618 190.013 41.5959V41.7514C190.013 42.3675 189.972 42.864 189.888 43.2528C189.804 43.6416 189.655 43.9347 189.44 44.144C189.225 44.3534 188.933 44.497 188.556 44.5687C188.18 44.6465 187.696 44.6824 187.105 44.6824H182.645ZM183.397 44.0364H187.105C187.571 44.0364 187.947 44.0124 188.234 43.9706C188.521 43.9287 188.736 43.827 188.885 43.6835C189.034 43.5339 189.136 43.3066 189.183 43.0016C189.237 42.6965 189.261 42.2838 189.261 41.7574V41.6019C189.261 41.1652 189.243 40.8123 189.213 40.5252C189.183 40.2441 189.124 40.0227 189.04 39.8553C188.956 39.6878 188.831 39.5741 188.67 39.4964C188.509 39.4186 188.3 39.3707 188.043 39.3468C187.786 39.3289 187.476 39.3169 187.099 39.3169H183.391V44.0364H183.397Z" fill="#474748"/>
<path d="M191.267 44.6824V38.6589H192.02V44.6824H191.267Z" fill="#474748"/>
<path d="M193.519 44.6824V38.6589H194.301L200.338 43.7493H200.344V38.6589H201.097V44.6824H200.314L194.277 39.5442H194.271V44.6824H193.519Z" fill="#474748"/>
<path d="M202.106 44.6824L205.611 38.6589H206.614L210.119 44.6824H209.242L208.489 43.3006H203.73L202.978 44.6824H202.1H202.106ZM204.106 42.6786H208.113L206.107 39.1674L204.1 42.6786H204.106Z" fill="#474748"/>
<path d="M210.872 41.7514V41.5959C210.872 41.0635 210.896 40.6149 210.95 40.256C211.003 39.8911 211.093 39.598 211.218 39.3707C211.344 39.1434 211.523 38.97 211.738 38.8503C211.959 38.7307 212.233 38.647 212.568 38.6051C212.902 38.5632 213.302 38.5393 213.774 38.5393H215.351C215.888 38.5393 216.342 38.5632 216.712 38.6171C217.082 38.6709 217.381 38.7666 217.602 38.9161C217.829 39.0657 217.99 39.287 218.091 39.5801C218.193 39.8732 218.247 40.256 218.247 40.7405H217.494C217.494 40.3637 217.458 40.0646 217.393 39.8553C217.327 39.6459 217.214 39.4904 217.052 39.4007C216.891 39.3049 216.676 39.2511 216.396 39.2272C216.121 39.2033 215.769 39.1913 215.351 39.1913H213.774C213.404 39.1913 213.087 39.2033 212.831 39.2272C212.574 39.2511 212.365 39.299 212.204 39.3827C212.042 39.4605 211.923 39.5861 211.833 39.7595C211.75 39.933 211.69 40.1663 211.66 40.4654C211.63 40.7645 211.612 41.1413 211.612 41.6019V41.7574C211.612 42.2 211.63 42.5709 211.66 42.864C211.69 43.1571 211.75 43.3904 211.833 43.5638C211.917 43.7373 212.042 43.8689 212.204 43.9586C212.365 44.0424 212.574 44.1022 212.831 44.1261C213.087 44.15 213.398 44.168 213.774 44.168H215.351C215.769 44.168 216.121 44.156 216.396 44.1381C216.67 44.1201 216.891 44.0663 217.052 43.9766C217.214 43.8868 217.327 43.7373 217.393 43.5339C217.458 43.3246 217.494 43.0315 217.494 42.6606H218.247C218.247 43.1391 218.193 43.5279 218.091 43.8151C217.99 44.1022 217.829 44.3175 217.602 44.4611C217.375 44.6046 217.076 44.7003 216.712 44.7482C216.342 44.796 215.888 44.82 215.351 44.82H213.774C213.189 44.82 212.705 44.7781 212.323 44.7003C211.941 44.6226 211.648 44.473 211.439 44.2577C211.224 44.0424 211.075 43.7373 210.991 43.3306C210.908 42.9238 210.866 42.4034 210.866 41.7574L210.872 41.7514Z" fill="#474748"/>
<path d="M219.519 44.6824V38.6589H220.271V44.6824H219.519Z" fill="#474748"/>
<path d="M223.275 44.6824C222.779 44.6824 222.385 44.6106 222.104 44.467C221.824 44.3235 221.65 44.0424 221.579 43.6236C221.537 43.3724 221.519 43.0614 221.519 42.6726V42.4213H222.272V42.6726C222.272 43.2707 222.343 43.6595 222.492 43.839C222.576 43.9407 222.678 44.0005 222.809 44.0244C222.94 44.0483 223.096 44.0663 223.275 44.0663H225.03C225.484 44.0663 225.801 43.9885 225.998 43.827C226.189 43.6655 226.284 43.3664 226.284 42.9238V38.6589H227.037V42.9238C227.037 43.5638 226.893 44.0124 226.601 44.2697C226.296 44.5388 225.777 44.6764 225.036 44.6764H223.281L223.275 44.6824Z" fill="#474748"/>
<path d="M227.986 44.6824L231.492 38.6589H232.495L236 44.6824H235.122L234.37 43.3006H229.61L228.858 44.6824H227.98H227.986ZM229.987 42.6786H233.994L231.987 39.1674L229.981 42.6786H229.987Z" fill="#474748"/>
<path d="M103.91 65.4082C105.534 65.1211 106.884 65.8449 106.233 67.3702C105.487 68.9613 103.922 70.1337 102.483 71.2103C102.089 71.4855 101.605 70.995 101.981 70.7079C103.086 69.8764 104.191 68.9792 105.003 67.9324C105.875 66.8139 106.006 65.7671 104.024 66.0183C101.139 66.5088 98.7031 68.3751 96.8937 70.3011C95.992 71.3001 95.1261 72.4007 94.7917 73.6389C94.3976 75.0445 95.2814 76.0315 96.9355 76.1272C99.1689 76.2408 101.337 75.3855 103.241 74.4583C103.886 74.1353 104.519 73.7824 105.128 73.4056C105.546 73.1603 105.988 73.6748 105.582 73.9379C103.038 75.2479 99.9511 76.6655 96.8937 76.4801C95.6457 76.3964 94.4454 75.7384 94.3379 74.5899C94.0572 72.1614 97.5983 68.6502 99.7302 67.2027C100.966 66.3712 102.328 65.6594 103.91 65.3962V65.4082Z" fill="#2083C6"/>
<path d="M113.453 71.9641C113.542 72.012 113.572 72.1196 113.506 72.1974C113.124 72.6819 112.641 73.1066 112.055 73.4177C111.01 74.0218 109.243 74.0577 109.237 72.7417C109.004 72.9092 108.753 73.0588 108.484 73.1904C107.654 73.621 106.436 73.627 106.585 72.5384C106.717 71.8983 107.075 71.4019 107.475 70.8934C107.601 70.7439 107.839 70.708 108.013 70.8157C108.186 70.9174 108.228 71.1207 108.108 71.2703C107.792 71.689 107.398 72.1615 107.284 72.6341C107.26 72.7358 107.272 72.8255 107.284 72.8554C107.29 72.8674 107.296 72.8733 107.314 72.8853C107.947 73.0049 108.837 72.4367 109.392 71.9761C109.577 71.4617 109.906 70.9891 110.342 70.5824C110.419 70.5226 110.497 70.4568 110.622 70.4328C110.831 70.391 110.992 70.5644 110.957 70.7259C110.795 71.2284 110.419 71.6471 110.055 72.0479C109.941 72.1615 109.828 72.2752 109.709 72.3828C109.661 72.5802 109.643 72.7836 109.673 72.981C109.774 73.5074 110.491 73.5971 111.022 73.4775C111.936 73.2861 112.688 72.7058 113.19 72.0299C113.25 71.9522 113.363 71.9282 113.459 71.9761L113.453 71.9641Z" fill="#2083C6"/>
<path d="M118.666 72.0239C118.857 71.8744 119.126 72.1316 118.917 72.2752C118.146 72.8015 117.054 73.2801 116.05 72.9152C115.859 72.8434 115.704 72.7537 115.573 72.652C115.352 72.8913 115.125 73.1245 114.886 73.3459C114.534 73.6689 114.127 73.9919 113.632 74.1773C113.154 74.3807 112.527 74.285 112.455 73.7586C112.402 73.2741 112.664 72.8434 112.909 72.4426C113.238 71.9402 113.662 71.4916 114.104 71.0669C114.283 70.8994 114.569 71.1387 114.378 71.3002C113.709 71.8505 113.112 72.5503 112.957 73.3339C112.939 73.4834 112.927 73.6569 113.029 73.7466C113.106 73.7586 113.202 73.7227 113.339 73.6569C113.709 73.4535 114.014 73.1784 114.325 72.8913C114.605 72.6221 114.904 72.3589 115.19 72.0897C115.035 71.5753 115.274 70.9772 115.865 70.6003C116.164 70.391 116.665 70.3969 116.689 70.8097C116.677 71.2523 116.361 71.6411 116.122 71.994C116.014 72.1376 115.901 72.2752 115.782 72.4127C115.895 72.5144 116.032 72.5982 116.182 72.658C117.054 72.993 118.009 72.5443 118.666 72.018V72.0239ZM115.501 71.7787C115.728 71.5394 115.943 71.2942 116.116 71.037C116.146 70.9831 116.176 70.9293 116.188 70.8815C116.188 70.8815 116.188 70.8815 116.188 70.8755C115.794 71.013 115.525 71.4078 115.501 71.7787Z" fill="#2083C6"/>
<path d="M124.136 71.9581C124.231 72.0059 124.261 72.1196 124.195 72.1973C123.867 72.5861 123.497 72.951 123.013 73.2202C122.506 73.5193 121.687 73.5851 121.359 73.0348C121.168 72.7117 121.138 72.3529 120.953 72.0358C120.941 72.0119 120.929 71.994 120.917 71.976C120.905 71.982 120.893 71.988 120.875 72.0059C120.559 72.2811 120.248 72.6101 119.902 72.8673C119.508 73.1604 119.108 73.4654 118.594 73.6209C118.314 73.7107 117.931 73.597 117.866 73.3219C117.806 73.1185 117.901 72.9331 117.997 72.7775C118.218 72.4426 118.505 72.1614 118.797 71.8923C119.221 71.5274 119.568 71.1625 120.141 70.9352C120.941 70.6242 121.526 71.1625 121.58 71.8265C121.592 71.9282 121.502 71.994 121.413 71.9999C121.478 72.2033 121.52 72.4306 121.568 72.5921C121.675 73.2321 122.267 73.3039 122.84 72.9809C123.264 72.7476 123.61 72.3947 123.873 72.0119C123.927 71.9341 124.046 71.9042 124.136 71.9521V71.9581ZM120.559 71.6171C120.732 71.5274 120.869 71.5035 120.983 71.5214C120.684 71.2044 120.326 71.4377 119.902 71.8325C119.681 72.0478 119.454 72.2631 119.245 72.4844C119.305 72.4486 119.359 72.4127 119.418 72.3768C119.747 72.1674 120.212 71.8145 120.559 71.6231V71.6171ZM120.875 71.9401C120.875 71.9401 120.887 71.9401 120.887 71.9461L120.875 71.9341C120.863 71.9341 120.863 71.9341 120.875 71.9401Z" fill="#2083C6"/>
<path d="M129.612 72.1196C129.612 72.1615 129.582 72.2034 129.54 72.2333C129.271 72.4187 128.979 72.5802 128.668 72.7118C127.235 73.3578 125.921 72.7118 125.187 71.677C124.548 72.4426 123.843 73.1664 123.073 73.8304C122.953 73.956 122.792 74.0577 122.613 74.1175C122.541 74.1294 122.47 74.1055 122.416 74.0636C122.374 74.0278 122.35 73.9859 122.344 73.938C122.362 73.7646 122.422 73.5971 122.523 73.4475C122.965 72.6699 123.485 71.9282 124.07 71.2224C124.243 71.0429 124.667 70.391 124.99 70.6242C125.002 70.6362 125.02 70.6541 125.025 70.6661C125.193 70.4627 125.36 70.2653 125.533 70.062C125.658 69.9184 125.885 69.8885 126.059 69.9902C126.226 70.0919 126.28 70.2833 126.172 70.4328C125.927 70.7678 125.67 71.1028 125.402 71.4258C125.867 72.1256 126.662 72.7597 127.629 72.664C128.244 72.6161 128.811 72.323 129.307 71.9761C129.349 71.9462 129.397 71.9342 129.45 71.9342C129.504 71.9342 129.552 71.9581 129.582 71.994C129.618 72.0299 129.63 72.0718 129.624 72.1196H129.612ZM123.3 72.8853C123.777 72.2273 124.273 71.5813 124.793 70.9413C124.793 70.9293 124.781 70.9113 124.775 70.8994C124.369 71.2344 124.088 71.677 123.789 72.0897C123.568 72.4307 123.318 72.7836 123.103 73.1425C123.168 73.0587 123.234 72.969 123.3 72.8853Z" fill="#2083C6"/>
<path d="M139.369 72.0239C139.56 71.8744 139.829 72.1316 139.62 72.2752C138.85 72.8015 137.757 73.2801 136.754 72.9152C136.562 72.8434 136.407 72.7537 136.276 72.652C136.055 72.8913 135.828 73.1245 135.589 73.3459C135.237 73.6689 134.831 73.9919 134.335 74.1773C133.857 74.3807 133.23 74.285 133.159 73.7586C133.105 73.2741 133.368 72.8434 133.613 72.4426C133.941 71.9402 134.365 71.4916 134.807 71.0669C134.986 70.8994 135.273 71.1387 135.082 71.3002C134.413 71.8505 133.816 72.5503 133.66 73.3339C133.642 73.4834 133.63 73.6569 133.732 73.7466C133.81 73.7586 133.905 73.7227 134.042 73.6569C134.413 73.4535 134.717 73.1784 135.028 72.8913C135.308 72.6221 135.607 72.3589 135.894 72.0897C135.738 71.5753 135.977 70.9772 136.568 70.6003C136.867 70.391 137.369 70.3969 137.392 70.8097C137.381 71.2523 137.064 71.6411 136.825 71.994C136.718 72.1376 136.604 72.2752 136.485 72.4127C136.598 72.5144 136.736 72.5982 136.885 72.658C137.757 72.993 138.712 72.5443 139.369 72.018V72.0239ZM136.21 71.7787C136.437 71.5394 136.652 71.2942 136.825 71.037C136.855 70.9831 136.885 70.9293 136.897 70.8815C136.897 70.8815 136.897 70.8815 136.897 70.8755C136.503 71.013 136.234 71.4078 136.21 71.7787Z" fill="#2083C6"/>
<path d="M144.845 71.9581C144.94 72.0059 144.97 72.1196 144.905 72.1973C144.576 72.5861 144.206 72.951 143.722 73.2202C143.215 73.5193 142.397 73.5851 142.068 73.0348C141.877 72.7117 141.847 72.3529 141.662 72.0358C141.65 72.0119 141.638 71.994 141.626 71.976C141.614 71.982 141.602 71.988 141.584 72.0059C141.268 72.2811 140.957 72.6101 140.611 72.8673C140.217 73.1604 139.817 73.4654 139.303 73.6209C139.023 73.7107 138.641 73.597 138.575 73.3219C138.515 73.1185 138.611 72.9331 138.706 72.7775C138.927 72.4426 139.214 72.1614 139.506 71.8923C139.93 71.5274 140.277 71.1625 140.85 70.9352C141.65 70.6242 142.235 71.1625 142.289 71.8265C142.301 71.9282 142.211 71.994 142.122 71.9999C142.188 72.2033 142.229 72.4306 142.277 72.5921C142.385 73.2321 142.976 73.3039 143.549 72.9809C143.973 72.7476 144.319 72.3947 144.582 72.0119C144.636 71.9341 144.755 71.9042 144.845 71.9521V71.9581ZM141.262 71.6171C141.435 71.5274 141.573 71.5035 141.686 71.5214C141.387 71.2044 141.029 71.4377 140.605 71.8325C140.384 72.0478 140.157 72.2631 139.948 72.4844C140.008 72.4486 140.062 72.4127 140.121 72.3768C140.45 72.1674 140.916 71.8145 141.262 71.6231V71.6171ZM141.584 71.9401C141.584 71.9401 141.596 71.9401 141.596 71.9461L141.584 71.9341C141.573 71.9341 141.573 71.9341 141.584 71.9401Z" fill="#2083C6"/>
<path d="M150.303 72.0599C150.536 72.0061 151.348 71.7608 151.336 72.1377C151.318 72.2334 151.211 72.2932 151.103 72.2693C150.906 72.2394 150.625 72.3111 150.41 72.365C149.664 72.5624 148.953 72.8495 148.249 73.1486C147.837 73.328 147.431 73.5194 147.025 73.7168C147.281 73.968 147.419 74.2671 147.305 74.6559C147.096 75.5232 144.003 77.3895 143.334 76.247C143.119 75.5113 144.749 74.6798 145.341 74.291C145.675 74.0996 146.015 73.9142 146.362 73.7288C146.039 73.5194 145.621 73.328 145.245 73.1127C144.373 72.6341 144.284 72.0061 145.114 71.4199C145.615 71.043 146.123 70.6662 146.666 70.3253C147.108 70.0501 147.544 69.7809 148.093 69.5835C148.332 69.5058 148.619 69.434 148.906 69.5177C149.461 69.6972 149.383 70.3013 149.222 70.6542C148.989 71.1627 148.738 71.5754 148.201 71.9283C147.759 72.1795 147.335 71.6113 147.783 71.372C148.105 71.1926 148.41 70.7739 148.559 70.4509C148.613 70.3432 148.667 70.1338 148.649 70.0501C148.637 70.0501 148.625 70.0501 148.607 70.0501C148.04 70.1219 147.526 70.4509 147.019 70.738C146.493 71.055 145.974 71.4139 145.478 71.7728C144.917 72.1556 144.917 72.4009 145.532 72.7717C145.884 73.005 146.392 73.2263 146.786 73.5134C147.908 72.9392 149.067 72.4308 150.303 72.0659V72.0599ZM146.63 73.9142C145.806 74.3329 145.018 74.7995 144.29 75.3318C143.752 75.6907 143.149 76.4504 144.343 76.2709C145.084 76.1274 145.723 75.7206 146.284 75.29C147.096 74.6679 147.03 74.2611 146.63 73.9142Z" fill="#2083C6"/>
<path d="M155.683 72.2213C155.295 72.5024 154.883 72.6639 154.465 72.8314C153.563 73.1424 151.891 73.7466 151.019 73.1663C150.333 72.6519 150.685 71.8384 151.187 71.33C151.533 70.9651 152.333 70.1815 152.96 70.5285C153.151 70.6601 153.181 70.8814 153.151 71.0548C153.02 71.665 152.5 72.3349 151.682 72.2871C151.521 72.2751 151.342 72.2153 151.211 72.1256C150.972 72.5502 151.199 73.0407 151.802 73.0647C152.65 73.1125 153.545 72.8433 154.328 72.5562C154.71 72.4067 155.128 72.2272 155.426 71.982C155.498 71.9102 155.629 71.9102 155.707 71.982C155.785 72.0478 155.779 72.1614 155.695 72.2272L155.683 72.2213ZM152.053 71.2522C151.909 71.3539 151.772 71.4736 151.646 71.5932C151.987 71.8265 152.387 71.2881 152.477 71.019C152.333 71.0668 152.19 71.1625 152.053 71.2522Z" fill="#2083C6"/>
<path d="M160.89 71.9821C161.129 71.9103 161.261 72.2213 161.016 72.2931C160.198 72.5503 159.248 72.8733 158.269 73.2501C156.991 75.2899 155.438 77.3057 153.115 78.5678C152.5 78.8788 151.294 79.3215 150.882 78.5498C150.667 77.856 151.252 77.2458 151.694 76.7374C153.205 75.2241 155.253 74.1115 157.403 73.2322C157.624 72.8613 157.833 72.4905 158.036 72.1136C158.042 72.0957 158.048 72.0778 158.054 72.0538C157.797 72.1495 157.558 72.3469 157.349 72.5024C156.812 72.9391 156.304 73.4236 155.629 73.7406C155.337 73.8902 154.811 73.956 154.62 73.615C154.286 72.9391 155.552 71.8026 156.047 71.3241C156.334 71.0729 156.597 70.8336 156.985 70.6721C157.761 70.3371 158.388 70.8037 158.585 71.4258C158.794 71.5574 158.902 71.8026 158.86 72.0239C158.83 72.2931 158.681 72.5682 158.556 72.7776C159.338 72.4905 160.12 72.2213 160.884 71.9761L160.89 71.9821ZM157.098 73.7287C154.752 74.7396 152.447 76.0675 151.426 77.6705C150.757 78.9147 152.017 78.6934 152.859 78.2029C153.432 77.8859 153.951 77.4731 154.423 77.0365C155.462 76.0376 156.34 74.913 157.092 73.7287H157.098ZM157.767 71.4198C157.714 71.3241 157.642 71.2463 157.564 71.2284C157.218 71.1985 156.854 71.5753 156.615 71.7787C156.215 72.1675 155.755 72.5742 155.486 73.0468C156.143 72.6879 156.633 72.0897 157.266 71.6949C157.427 71.5992 157.588 71.4975 157.773 71.4258L157.767 71.4198Z" fill="#2083C6"/>
<path d="M170.97 72.012C171.03 72.0898 171.006 72.1914 170.917 72.2393C170.558 72.4427 170.14 72.5444 169.698 72.5444C169.256 72.5444 168.737 72.4367 168.247 72.2154C167.889 72.0539 167.572 71.8565 167.334 71.6471C167.22 72.2333 166.898 72.9092 166.635 73.2442C166.283 73.6868 165.924 73.8065 165.644 73.8065C165.405 73.8065 165.22 73.7227 165.13 73.6749C164.855 73.5194 164.593 73.1605 164.891 72.3051C165.172 71.5036 165.978 70.3252 166.832 70.3252C167.047 70.3252 167.214 70.4747 167.214 70.6542C167.214 70.6781 167.214 70.702 167.208 70.726C167.316 70.8276 167.363 70.9832 167.375 71.1686C167.578 71.4258 167.943 71.7069 168.426 71.9223C168.827 72.1017 169.848 72.4546 170.708 71.9641C170.797 71.9163 170.917 71.9342 170.976 72.012H170.97ZM165.751 73.1066C166.283 72.7657 166.671 71.4617 166.605 71.1447C166.593 71.1327 166.581 71.1207 166.575 71.1088C166.384 71.2464 166.133 71.5095 165.889 71.9283C165.494 72.6042 165.488 73.0588 165.554 73.1306C165.596 73.1545 165.638 73.1784 165.751 73.1066Z" fill="#2083C6"/>
<path d="M176.464 72.0599C176.697 72.0061 177.509 71.7608 177.497 72.1377C177.479 72.2334 177.372 72.2932 177.264 72.2693C177.067 72.2394 176.787 72.3111 176.572 72.365C175.825 72.5624 175.115 72.8495 174.41 73.1486C173.998 73.328 173.592 73.5194 173.186 73.7168C173.442 73.968 173.58 74.2671 173.466 74.6559C173.257 75.5232 170.164 77.3895 169.495 76.247C169.28 75.5113 170.911 74.6798 171.502 74.291C171.836 74.0996 172.177 73.9142 172.523 73.7288C172.2 73.5194 171.782 73.328 171.406 73.1127C170.534 72.6341 170.445 72.0061 171.275 71.4199C171.776 71.043 172.284 70.6662 172.827 70.3253C173.269 70.0501 173.705 69.7809 174.255 69.5835C174.493 69.5058 174.78 69.434 175.067 69.5177C175.622 69.6972 175.544 70.3013 175.383 70.6542C175.15 71.1627 174.9 71.5754 174.362 71.9283C173.92 72.1795 173.496 71.6113 173.944 71.372C174.267 71.1926 174.571 70.7739 174.72 70.4509C174.774 70.3432 174.828 70.1338 174.81 70.0501C174.798 70.0501 174.786 70.0501 174.768 70.0501C174.201 70.1219 173.687 70.4509 173.18 70.738C172.654 71.055 172.135 71.4139 171.639 71.7728C171.078 72.1556 171.078 72.4009 171.693 72.7717C172.045 73.005 172.553 73.2263 172.947 73.5134C174.069 72.9392 175.228 72.4308 176.464 72.0659V72.0599ZM172.792 73.9142C171.968 74.3329 171.179 74.7995 170.451 75.3318C169.913 75.6907 169.31 76.4504 170.505 76.2709C171.245 76.1274 171.884 75.7206 172.445 75.29C173.257 74.6679 173.192 74.2611 172.792 73.9142Z" fill="#2083C6"/>
<path d="M184.717 71.9881C184.89 71.8326 185.171 72.0539 184.997 72.2154C184.747 72.4427 184.484 72.6461 184.209 72.8495C183.851 73.0827 183.433 73.4117 182.913 73.3938C181.892 73.2562 182.752 71.2225 182.089 71.2703C181.815 71.3122 181.54 71.5395 181.331 71.713C180.859 72.1257 180.453 72.6281 180.119 73.1366L180.023 73.2143C179.754 73.4297 179.312 73.1844 179.426 72.8853C179.569 72.4965 179.659 72.0659 179.659 71.6651C179.653 71.5036 179.635 71.2823 179.527 71.1686C179.42 71.067 179.229 71.1567 179.092 71.2225C178.082 71.8386 177.408 72.8196 176.721 73.6988C176.667 73.7587 176.578 73.8723 176.458 73.9142C176.195 74.0099 175.939 73.8065 175.992 73.5792C176.392 72.3709 177.354 71.372 178.035 70.2893C178.053 70.2594 178.07 70.2235 178.082 70.1936C178.064 70.1936 178.053 70.1936 178.035 70.1996C177.808 70.2415 177.7 69.9723 177.909 69.8886C178.094 69.8048 178.393 69.751 178.53 69.9604C178.602 70.08 178.59 70.1578 178.572 70.2594C178.506 70.5585 178.345 70.8277 178.208 71.0789C178.052 71.3421 177.897 71.6053 177.742 71.8625C179.092 70.4808 180.119 70.2415 180.196 72.1018C180.459 71.8685 180.728 71.6472 181.02 71.4318C181.331 71.2225 181.612 71.0071 182.041 70.9473C183.194 70.9473 182.412 72.5025 182.871 73.0229C182.907 73.0648 182.907 73.0648 182.955 73.0708C183.319 73.0528 183.642 72.7956 183.958 72.5923C184.221 72.4068 184.478 72.1975 184.717 71.9881ZM178.166 70.1817C178.166 70.1817 178.184 70.1877 178.19 70.1877C178.202 70.1877 178.19 70.1877 178.172 70.1817C178.172 70.1817 178.172 70.1817 178.166 70.1817Z" fill="#2083C6"/>
<path d="M189.607 72.2213C189.219 72.5024 188.807 72.6639 188.389 72.8314C187.487 73.1424 185.815 73.7466 184.944 73.1663C184.257 72.6519 184.609 71.8384 185.111 71.33C185.457 70.9651 186.257 70.1815 186.884 70.5285C187.075 70.6601 187.105 70.8814 187.075 71.0548C186.944 71.665 186.425 72.3349 185.606 72.2871C185.445 72.2751 185.266 72.2153 185.135 72.1256C184.896 72.5502 185.123 73.0407 185.726 73.0647C186.574 73.1125 187.47 72.8433 188.252 72.5562C188.634 72.4067 189.052 72.2272 189.351 71.982C189.422 71.9102 189.554 71.9102 189.631 71.982C189.709 72.0478 189.703 72.1614 189.619 72.2272L189.607 72.2213ZM185.977 71.2522C185.833 71.3539 185.696 71.4736 185.571 71.5932C185.911 71.8265 186.311 71.2881 186.401 71.019C186.257 71.0668 186.114 71.1625 185.977 71.2522Z" fill="#2083C6"/>
<path d="M196.391 71.9881C196.57 71.8325 196.845 72.0598 196.666 72.2213C195.155 73.5373 194.182 73.6091 193.459 71.7249C193.316 71.4617 193.142 70.9293 192.748 71.1805C191.847 71.8266 191.029 72.5982 190.097 73.2382C189.828 73.4177 189.572 73.6151 189.231 73.7048C189.118 73.7287 188.986 73.7287 188.873 73.6689C188.431 73.3997 188.867 72.8195 189.016 72.5085C190.634 69.9005 192.121 67.2088 194.11 64.7803C194.486 64.3974 195.364 63.3387 196.003 63.4882C196.188 63.5241 196.307 63.7335 196.301 63.8471C196.313 64.1283 196.194 64.3556 196.086 64.5948C195.8 65.1631 195.442 65.6715 195.077 66.1799C194.074 67.5318 192.957 68.8418 191.459 69.8167C190.826 70.7917 190.193 71.7787 189.572 72.7537C189.512 72.8494 189.452 72.9511 189.398 73.0468C189.512 72.981 189.619 72.9092 189.721 72.8434C190.527 72.3051 191.267 71.7009 192.038 71.1148C192.904 70.385 193.501 70.6661 193.853 71.5813C194.074 72.018 194.223 72.7477 194.814 72.8374C195.406 72.8374 195.961 72.341 196.373 71.9881H196.391ZM192.074 68.9075C192.026 68.9793 191.978 69.0511 191.936 69.1229C192.581 68.6384 193.142 68.0701 193.632 67.472C194.408 66.5329 195.173 65.528 195.597 64.4393C195.627 64.3496 195.662 64.2599 195.686 64.1642C195.095 64.6427 194.623 65.3007 194.164 65.8869C193.429 66.8619 192.748 67.8847 192.074 68.9075Z" fill="#2083C6"/>
<path d="M201.718 71.9581C201.813 72.0059 201.843 72.1196 201.777 72.1973C201.449 72.5861 201.079 72.951 200.595 73.2202C200.087 73.5193 199.269 73.5851 198.941 73.0348C198.75 72.7117 198.72 72.3529 198.535 72.0358C198.523 72.0119 198.511 71.994 198.499 71.976C198.487 71.982 198.475 71.988 198.457 72.0059C198.141 72.2811 197.83 72.6101 197.484 72.8673C197.09 73.1604 196.69 73.4654 196.176 73.6209C195.895 73.7107 195.513 73.597 195.447 73.3219C195.388 73.1185 195.483 72.9331 195.579 72.7775C195.8 72.4426 196.086 72.1614 196.379 71.8923C196.803 71.5274 197.149 71.1625 197.723 70.9352C198.523 70.6242 199.108 71.1625 199.162 71.8265C199.174 71.9282 199.084 71.994 198.995 71.9999C199.06 72.2033 199.102 72.4306 199.15 72.5921C199.257 73.2321 199.848 73.3039 200.422 72.9809C200.846 72.7476 201.192 72.3947 201.455 72.0119C201.509 71.9341 201.628 71.9042 201.718 71.9521V71.9581ZM198.135 71.6171C198.308 71.5274 198.445 71.5035 198.559 71.5214C198.26 71.2044 197.902 71.4377 197.478 71.8325C197.257 72.0478 197.03 72.2631 196.821 72.4844C196.881 72.4486 196.934 72.4127 196.994 72.3768C197.323 72.1674 197.788 71.8145 198.135 71.6231V71.6171ZM198.457 71.9401C198.457 71.9401 198.469 71.9401 198.469 71.9461L198.457 71.9341C198.445 71.9341 198.445 71.9341 198.457 71.9401Z" fill="#2083C6"/>
<path d="M105.887 63.0277C105.815 63.0038 105.732 63.0038 105.66 63.0277C105.588 63.0517 105.534 63.1055 105.505 63.1653C105.499 63.1832 105.463 63.2251 105.403 63.279C105.021 63.602 104.543 63.8771 103.851 64.1822C103.534 64.3138 103.2 64.4394 102.859 64.4932C102.746 64.5171 102.626 64.5052 102.537 64.4513C102.447 64.4035 102.393 64.3257 102.376 64.23C102.31 63.9549 102.591 63.5122 102.949 63.1713C103.194 62.932 103.2 62.5731 102.937 62.3518C102.925 62.3578 102.913 62.3698 102.901 62.3757L102.841 62.4176C102.34 62.8064 101.987 63.249 101.796 63.7276C101.671 64.0267 101.719 64.3796 101.916 64.6368C101.999 64.7504 102.113 64.8401 102.244 64.9059C102.364 64.9658 102.495 64.9957 102.638 65.0076C103.146 65.0136 103.612 64.8222 104.018 64.6547L104.113 64.6128C104.657 64.3616 105.29 64.0506 105.809 63.6259L105.839 63.596C105.935 63.5122 106.09 63.3687 106.06 63.2132C106.048 63.1593 106.012 63.0875 105.887 63.0277Z" fill="#2083C6"/>
<path d="M149.085 68.3096C149.037 68.2916 148.989 68.2916 148.941 68.3096C148.894 68.3275 148.858 68.3574 148.846 68.3933C148.846 68.3933 148.834 68.4113 148.804 68.4352C148.625 68.5907 148.392 68.7223 148.058 68.8659C147.908 68.9257 147.747 68.9915 147.58 69.0154C147.538 69.0274 147.49 69.0154 147.454 68.9975C147.425 68.9795 147.401 68.9496 147.395 68.9137C147.371 68.806 147.478 68.6087 147.663 68.4292C147.801 68.2976 147.795 68.1002 147.663 67.9806L147.634 67.9507L147.556 68.0045C147.305 68.2019 147.132 68.4172 147.036 68.6565C146.971 68.812 146.995 68.9975 147.096 69.135C147.144 69.1949 147.198 69.2427 147.269 69.2786C147.335 69.3085 147.407 69.3264 147.484 69.3324C147.49 69.3324 147.496 69.3324 147.502 69.3324C147.753 69.3324 147.98 69.2367 148.177 69.153L148.225 69.135C148.494 69.0094 148.804 68.8599 149.061 68.6505L149.079 68.6386C149.126 68.5967 149.216 68.513 149.198 68.4172C149.192 68.3694 149.156 68.3275 149.091 68.2976L149.085 68.3096Z" fill="#2083C6"/>
<path d="M11.2443 45.1728C33.0165 59.7379 54.1795 68.9316 74.6677 72.2813C67.2571 84.382 55.7022 95.5496 42.344 99.9999C14.7496 88.6947 -1.02711 58.9902 0.268711 37.4565L8.95726 43.8688C11.2205 64.2241 21.8677 80.4461 42.4992 91.7453C51.2833 87.3728 57.1891 82.2107 61.5543 76.6239C39.4179 68.9376 24.101 57.6922 11.2384 45.1608L11.2443 45.1728Z" fill="url(#paint0_radial_239_105)"/>
<path d="M44.8162 2.64386V2.61395C44.7087 2.64386 44.6012 2.66778 44.4877 2.69171C44.4221 2.70367 44.3564 2.71564 44.2847 2.73358C44.231 2.75153 44.1712 2.76349 44.1115 2.77545C43.6577 2.86518 43.2218 2.91901 42.8097 2.93097C42.762 2.93097 42.7202 2.93097 42.6724 2.93097C42.6246 2.93097 42.5828 2.93097 42.5351 2.93097C42.123 2.91901 41.6871 2.86518 41.2333 2.77545C41.1736 2.76349 41.1138 2.75153 41.0601 2.73358C40.9884 2.71564 40.9227 2.70965 40.8571 2.69171C40.7436 2.66778 40.6361 2.64386 40.5227 2.61395V2.64386C39.197 2.48834 38.355 3.04462 37.8892 4.15122C37.4832 5.11425 37.4712 6.2029 37.7638 7.2078C37.9549 7.85381 38.2356 8.5716 38.6058 9.35519L38.6834 13.0757C39.0358 16.2878 39.5851 18.501 40.7197 17.6516C40.9884 14.0148 41.5796 11.676 42.6724 11.4129C43.7712 11.676 44.3564 14.0148 44.6251 17.6516C45.7597 18.495 46.3031 16.2878 46.6614 13.0757L46.739 9.35519C47.1092 8.5716 47.3959 7.85381 47.581 7.2078C47.8736 6.2029 47.8616 5.11425 47.4556 4.15122C46.9898 3.04462 46.1478 2.49432 44.8162 2.64386ZM0 21.2047L35.6738 7.45903L36.9338 15.3607L8.57509 26.5881C24.1488 42.0983 41.508 53.5052 60.145 61.9811C43.3711 59.6543 19.909 46.8178 0 29.5669V21.2047ZM68.4574 65.5701L70.84 60.9523L79.9286 60.8925C79.9286 60.8925 78.2506 65.1334 76.8772 66.7125L68.4514 65.5701H68.4574ZM76.3099 26.6599L48.2976 15.8332L49.5575 7.58464C49.5575 7.58464 69.3949 15.1992 84.7775 21.103C85.0343 28.5321 84.6521 35.2793 84.5685 36.691H76.3935C76.9907 35.1418 76.3219 26.6599 76.3219 26.6599H76.3099ZM37.7817 1.17239C37.7817 1.08267 37.7937 1.01089 37.8116 0.951071C37.8355 0.891255 37.8713 0.843402 37.931 0.807513C37.9907 0.771624 38.0743 0.747697 38.1878 0.729752C38.3013 0.711808 38.4505 0.705826 38.6297 0.705826H39.0776C39.2089 0.705826 39.3104 0.705826 39.3821 0.693863C39.4538 0.687881 39.5075 0.675918 39.5433 0.651992C39.5792 0.634047 39.5971 0.604139 39.603 0.56825C39.609 0.53236 39.615 0.484508 39.615 0.424692C39.615 0.364876 39.609 0.311042 39.5911 0.275153C39.5792 0.239263 39.5493 0.215337 39.5015 0.197392C39.4597 0.179447 39.394 0.173466 39.3045 0.167484C39.2209 0.167484 39.1074 0.161503 38.9641 0.161503H38.6894C38.5401 0.161503 38.4207 0.161503 38.3311 0.167484C38.2415 0.167484 38.1759 0.185429 38.1281 0.197392C38.0803 0.215337 38.0505 0.239263 38.0385 0.275153C38.0206 0.311042 38.0146 0.358895 38.0146 0.424692H37.7758C37.7758 0.34095 37.7877 0.269171 37.8116 0.215337C37.8355 0.161503 37.8833 0.11365 37.943 0.0837421C38.0027 0.0538342 38.0982 0.0299079 38.2177 0.0179447C38.3371 0.00598158 38.4864 0 38.6775 0H38.976C39.1552 0 39.3045 0.00598158 39.4179 0.0179447C39.5314 0.0299079 39.621 0.0538342 39.6866 0.0837421C39.7523 0.11365 39.7941 0.161503 39.818 0.215337C39.8419 0.269171 39.8538 0.34095 39.8538 0.424692C39.8538 0.53236 39.8359 0.622084 39.8001 0.687881C39.7643 0.753679 39.6986 0.79555 39.603 0.825458C39.5075 0.855366 39.3821 0.867329 39.2089 0.867329H38.6595C38.5103 0.867329 38.3908 0.867329 38.3072 0.879292C38.2236 0.885274 38.1579 0.903218 38.1161 0.921163C38.0743 0.945089 38.0505 0.974997 38.0385 1.01687C38.0266 1.05874 38.0206 1.11257 38.0206 1.17837V1.38773H39.7762V1.54325H37.7817V1.17837V1.17239ZM40.1584 0.807513V0.765642C40.1584 0.634047 40.1644 0.520397 40.1823 0.430674C40.2002 0.34095 40.2301 0.269171 40.2659 0.209355C40.3077 0.149539 40.3614 0.107668 40.4331 0.0777605C40.5047 0.0478526 40.5943 0.0299079 40.6958 0.0179447C40.8033 0.00598158 40.9287 0 41.078 0H41.3348C41.4841 0 41.6095 0 41.717 0.0179447C41.8244 0.0299079 41.914 0.0478526 41.9797 0.0777605C42.0514 0.107668 42.1051 0.149539 42.1469 0.209355C42.1887 0.269171 42.2186 0.34095 42.2305 0.430674C42.2484 0.520397 42.2544 0.634047 42.2544 0.765642V0.807513C42.2544 0.969016 42.2425 1.10061 42.2126 1.2023C42.1827 1.30398 42.1409 1.38174 42.0693 1.43558C42.0036 1.48941 41.9081 1.5253 41.7886 1.54325C41.6692 1.56119 41.5139 1.57316 41.3288 1.57316H41.072C40.8869 1.57316 40.7317 1.56119 40.6122 1.54325C40.4928 1.5253 40.3973 1.48343 40.3316 1.43558C40.2659 1.38174 40.2181 1.30398 40.1883 1.2023C40.1584 1.10061 40.1465 0.969016 40.1465 0.807513H40.1584ZM42.0275 0.765642C42.0275 0.651992 42.0275 0.556287 42.0155 0.478526C42.0036 0.406747 41.9857 0.346931 41.9618 0.299079C41.9379 0.251226 41.8961 0.221318 41.8424 0.203374C41.7886 0.185429 41.7229 0.173466 41.6453 0.167484C41.5617 0.167484 41.4662 0.161503 41.3467 0.161503H41.09C40.9705 0.161503 40.869 0.161503 40.7914 0.167484C40.7078 0.167484 40.6421 0.185429 40.5943 0.203374C40.5406 0.221318 40.5047 0.257208 40.4749 0.299079C40.445 0.34095 40.4271 0.400766 40.4211 0.478526C40.4092 0.550305 40.4032 0.64601 40.4032 0.765642V0.807513C40.4032 0.921163 40.4032 1.01089 40.4211 1.08267C40.4331 1.15444 40.451 1.21426 40.4749 1.25613C40.5047 1.298 40.5406 1.33389 40.5943 1.35184C40.6481 1.37576 40.7137 1.38773 40.7914 1.39371C40.875 1.39969 40.9705 1.40567 41.09 1.40567H41.3467C41.4662 1.40567 41.5677 1.40567 41.6453 1.39371C41.7289 1.38773 41.7946 1.37576 41.8424 1.35184C41.8961 1.32791 41.9319 1.298 41.9618 1.25613C41.9916 1.21426 42.0096 1.15444 42.0155 1.08267C42.0275 1.01089 42.0275 0.915181 42.0275 0.807513V0.765642ZM42.6306 1.17239C42.6306 1.08267 42.6425 1.01089 42.6605 0.951071C42.6843 0.891255 42.7202 0.843402 42.7799 0.807513C42.8396 0.771624 42.9232 0.747697 43.0367 0.729752C43.1501 0.711808 43.2994 0.705826 43.4786 0.705826H43.9264C44.0578 0.705826 44.1593 0.705826 44.231 0.693863C44.3026 0.687881 44.3564 0.675918 44.3922 0.651992C44.428 0.634047 44.4459 0.604139 44.4519 0.56825C44.4579 0.53236 44.4639 0.484508 44.4639 0.424692C44.4639 0.364876 44.4579 0.311042 44.44 0.275153C44.428 0.239263 44.3982 0.215337 44.3504 0.197392C44.3086 0.179447 44.2429 0.173466 44.1533 0.167484C44.0697 0.167484 43.9563 0.161503 43.813 0.161503H43.5383C43.389 0.161503 43.2696 0.161503 43.18 0.167484C43.0904 0.167484 43.0247 0.185429 42.9769 0.197392C42.9292 0.215337 42.8993 0.239263 42.8874 0.275153C42.8695 0.311042 42.8635 0.358895 42.8635 0.424692H42.6246C42.6246 0.34095 42.6366 0.269171 42.6605 0.215337C42.6843 0.161503 42.7321 0.11365 42.7918 0.0837421C42.8515 0.0538342 42.9471 0.0299079 43.0665 0.0179447C43.186 0.00598158 43.3352 0 43.5263 0H43.8249C44.004 0 44.1533 0.00598158 44.2668 0.0179447C44.3802 0.0299079 44.4698 0.0538342 44.5355 0.0837421C44.6012 0.11365 44.643 0.161503 44.6669 0.215337C44.6908 0.269171 44.7027 0.34095 44.7027 0.424692C44.7027 0.53236 44.6848 0.622084 44.649 0.687881C44.6131 0.753679 44.5475 0.79555 44.4519 0.825458C44.3564 0.855366 44.231 0.867329 44.0578 0.867329H43.5084C43.3591 0.867329 43.2397 0.867329 43.1561 0.879292C43.0725 0.885274 43.0068 0.903218 42.965 0.921163C42.9232 0.945089 42.8993 0.974997 42.8874 1.01687C42.8754 1.05874 42.8695 1.11257 42.8695 1.17837V1.38773H44.6251V1.54325H42.6306V1.17837V1.17239ZM45.1028 0.819476V0.0299079H47.0316V0.185429H45.3417V0.6819C45.4133 0.616103 45.5507 0.580213 45.7537 0.580213H46.327C46.5001 0.580213 46.6375 0.586195 46.745 0.604139C46.8525 0.622084 46.9301 0.64601 46.9838 0.675918C47.0376 0.705826 47.0734 0.753679 47.0913 0.807513C47.1092 0.861347 47.1152 0.927145 47.1152 1.0049V1.10061C47.1152 1.19033 47.1033 1.26211 47.0853 1.32193C47.0615 1.38174 47.0256 1.4296 46.9599 1.46549C46.9002 1.50138 46.8107 1.5253 46.6972 1.54325C46.5837 1.56119 46.4345 1.56717 46.2434 1.56717H45.9328C45.7477 1.56717 45.5925 1.56119 45.479 1.54325C45.3656 1.5253 45.276 1.50138 45.2163 1.46549C45.1565 1.4296 45.1147 1.38174 45.0909 1.32193C45.067 1.26211 45.061 1.19033 45.061 1.10061H45.2999C45.2999 1.16641 45.3058 1.22024 45.3178 1.25613C45.3297 1.298 45.3596 1.32791 45.3954 1.34585C45.4372 1.36978 45.5029 1.38174 45.5865 1.38773C45.6701 1.39371 45.7895 1.39969 45.9388 1.39969H46.2195C46.3688 1.39969 46.4882 1.39969 46.5718 1.38773C46.6554 1.38174 46.7211 1.3638 46.7629 1.34585C46.8047 1.32193 46.8286 1.29202 46.8405 1.25613C46.8525 1.21426 46.8584 1.16043 46.8584 1.09463V0.998923C46.8584 0.939108 46.8584 0.891255 46.8405 0.855366C46.8286 0.819476 46.8047 0.79555 46.7629 0.777605C46.7211 0.75966 46.6614 0.747697 46.5718 0.741716C46.4822 0.735734 46.3688 0.729752 46.2195 0.729752H45.9567C45.7716 0.729752 45.6343 0.729752 45.5447 0.741716C45.4551 0.753679 45.3954 0.771624 45.3656 0.807513H45.0849L45.1028 0.819476Z" fill="url(#paint1_radial_239_105)"/>
</g>
<defs>
<radialGradient id="paint0_radial_239_105" cx="0" cy="0" r="1" gradientUnits="userSpaceOnUse" gradientTransform="translate(37.4294 68.7282) scale(34.3601 34.418)">
<stop offset="0.01" stop-color="#E6E7E8"/>
<stop offset="0.2" stop-color="#E1E2E3"/>
<stop offset="0.4" stop-color="#D4D5D7"/>
<stop offset="0.6" stop-color="#BEC0C1"/>
<stop offset="0.82" stop-color="#A0A2A4"/>
<stop offset="1" stop-color="#808285"/>
</radialGradient>
<radialGradient id="paint1_radial_239_105" cx="0" cy="0" r="1" gradientUnits="userSpaceOnUse" gradientTransform="translate(42.4276 28.3521) scale(58.9448 46.6449)">
<stop offset="0.03" stop-color="#6FAE4B"/>
<stop offset="0.49" stop-color="#6DAC4A"/>
<stop offset="0.66" stop-color="#66A648"/>
<stop offset="0.77" stop-color="#5A9C45"/>
<stop offset="0.87" stop-color="#498E41"/>
<stop offset="0.95" stop-color="#337B3B"/>
<stop offset="1" stop-color="#236D37"/>
</radialGradient>
<clipPath id="clip0_239_105">
<rect width="236" height="100" fill="white"/>
</clipPath>
</defs>
</svg>
