<svg width="198" height="116" viewBox="0 0 198 116" fill="none" xmlns="http://www.w3.org/2000/svg">
<g clip-path="url(#clip0_219_49)">
<path d="M12.7376 52.249C36.5139 68.0298 60.9406 79.7999 86.6499 83.6643C76.1431 100.039 63.6182 110.801 49.0874 115.997C18.5153 104.184 -1.24307 69.9285 0.0607823 43.0908L9.94148 50.4174C13.0112 73.7838 24.6911 93.0054 49.0874 106.104C57.8223 101.798 65.3293 96.1201 71.3653 88.7935C45.6014 79.6627 27.5146 66.7681 12.7376 52.249Z" fill="url(#paint0_radial_219_49)"/>
<path d="M63.8036 45.3614C63.3903 45.0628 62.7824 44.8464 61.9952 44.7184C61.2233 44.5934 60.193 44.5325 58.9377 44.5325H50.1846V57.7166H52.0781V52.7459H58.8861C60.1443 52.7459 61.1746 52.6758 61.9497 52.5387C62.7368 52.3985 63.3508 52.1699 63.7763 51.8621C64.2078 51.5482 64.5027 51.1276 64.6546 50.6156C64.8005 50.1219 64.8734 49.5123 64.8734 48.8083V48.4731C64.8734 47.7356 64.8005 47.1077 64.6577 46.6079C64.5087 46.0898 64.22 45.6693 63.8006 45.3645L63.8036 45.3614ZM62.983 48.47V48.8053C62.983 49.2868 62.9344 49.683 62.8402 49.9847C62.749 50.2682 62.5758 50.4815 62.3022 50.6339C62.0196 50.7954 61.5819 50.9082 61.0075 50.9691C60.4179 51.0331 59.6185 51.0636 58.6277 51.0636H52.0781V46.2087H58.6277C59.6155 46.2087 60.4179 46.2361 61.0105 46.2879C61.5849 46.3397 62.0196 46.4434 62.3053 46.5957C62.5757 46.742 62.749 46.9493 62.8402 47.2357C62.9344 47.5405 62.983 47.955 62.983 48.47Z" fill="#474748"/>
<path d="M83.0484 45.3036C82.635 45.0172 82.0272 44.816 81.243 44.7002C80.471 44.5874 79.4438 44.5295 78.1855 44.5295H69.4324V57.7137H71.3258V52.4992H78.918C79.0091 52.4992 79.0973 52.4992 79.1824 52.4931L81.9177 57.7137H83.8477L81.0333 52.3407C81.8418 52.2127 82.4678 52.0024 82.9025 51.7129C83.3796 51.3959 83.7079 50.9753 83.875 50.4633C84.0392 49.9666 84.1212 49.3692 84.1212 48.6835V48.3483C84.1212 47.6107 84.0483 46.989 83.9054 46.5014C83.7565 45.9955 83.4678 45.5901 83.0453 45.2976L83.0484 45.3036ZM82.1244 49.805C82.0606 50.0671 81.9177 50.2622 81.6898 50.4054C81.4497 50.5548 81.0607 50.6645 80.5349 50.7254C79.9939 50.7894 79.2401 50.8199 78.2949 50.8199H71.3258V46.2088H77.8755C78.8633 46.2088 79.6656 46.2301 80.2613 46.2728C80.8388 46.3124 81.2734 46.4039 81.5591 46.541C81.8266 46.669 81.9998 46.864 82.0879 47.1353C82.1822 47.4279 82.2308 47.8362 82.2308 48.3513V48.6865C82.2308 49.1437 82.1943 49.5186 82.1244 49.802V49.805Z" fill="#474748"/>
<path d="M104.256 46.1173C103.971 45.6083 103.576 45.2151 103.083 44.9439C102.597 44.6788 101.983 44.4959 101.254 44.4014C100.536 44.31 99.6641 44.2612 98.6551 44.2612H95.2815C94.2754 44.2612 93.4001 44.3069 92.6829 44.4014C91.9534 44.4959 91.3395 44.6788 90.8532 44.9439C90.3609 45.2121 89.9658 45.6083 89.6801 46.1173C89.4004 46.6171 89.1998 47.2723 89.0844 48.0617C88.9719 48.8388 88.9142 49.8141 88.9142 50.9569V51.2922C88.9142 52.6789 89.0053 53.8217 89.1907 54.6903C89.3761 55.5772 89.7105 56.266 90.1846 56.7444C90.6587 57.2229 91.3182 57.5521 92.154 57.7288C92.9686 57.8995 94.0201 57.9879 95.2815 57.9879H98.6551C99.9164 57.9879 100.968 57.8995 101.782 57.7288C102.615 57.5521 103.278 57.2229 103.752 56.7444C104.223 56.269 104.557 55.5772 104.746 54.6903C104.928 53.8217 105.022 52.6789 105.022 51.2922V50.9569C105.022 49.8141 104.965 48.8388 104.852 48.0617C104.737 47.2723 104.539 46.6171 104.256 46.1173ZM103.126 50.9569V51.2922C103.126 52.237 103.092 53.0263 103.026 53.645C102.962 54.2515 102.84 54.7421 102.667 55.1018C102.5 55.4461 102.257 55.7082 101.941 55.8789C101.615 56.0526 101.184 56.1715 100.658 56.2233C100.12 56.2782 99.4453 56.3056 98.6551 56.3056H95.2815C94.4912 56.3056 93.8165 56.2782 93.2786 56.2233C92.7528 56.1684 92.3212 56.0526 91.996 55.8789C91.6799 55.7082 91.4368 55.4492 91.2696 55.1018C91.0964 54.7421 90.9748 54.2545 90.911 53.645C90.8441 53.0263 90.8107 52.2339 90.8107 51.2922V50.9569C90.8107 49.9817 90.8441 49.168 90.911 48.5371C90.9748 47.9184 91.0964 47.4278 91.2696 47.0742C91.4368 46.7359 91.6799 46.486 91.9929 46.3275C92.3181 46.166 92.7497 46.0593 93.2786 46.0136C93.8226 45.9679 94.4973 45.9435 95.2845 45.9435H98.6581C99.4453 45.9435 100.123 45.9679 100.664 46.0136C101.19 46.0593 101.624 46.166 101.95 46.3275C102.269 46.486 102.503 46.7298 102.673 47.0742C102.846 47.4278 102.968 47.9184 103.032 48.5371C103.098 49.168 103.132 49.9817 103.132 50.9569H103.126Z" fill="#474748"/>
<path d="M109.168 46.1599H115.599V57.7166H117.489V46.1599H123.924V44.5325H109.168V46.1599Z" fill="#474748"/>
<path d="M130.498 51.8042H141.059V50.1737H130.498V46.1599H141.521V44.5325H128.607V57.7166H141.755V56.0861H130.498V51.8042Z" fill="#474748"/>
<path d="M161.258 44.5325H158.343L150.028 50.1737H148.08V44.5325H146.186V57.7166H148.08V51.8042H150.037L158.611 57.7166H161.52L151.937 50.9905L161.258 44.5325Z" fill="#474748"/>
<path d="M164.823 46.1599H171.254V57.7166H173.148V46.1599H179.579V44.5325H164.823V46.1599Z" fill="#474748"/>
<path d="M190.332 44.5325H188.025L180.354 57.7166H182.564L184.171 54.7604H194.186L195.794 57.7166H198.003L190.332 44.5325ZM193.219 53.1299H185.135L189.177 46.035L193.219 53.1299Z" fill="#474748"/>
<path d="M55.8893 41.0518C55.8893 40.8506 55.8741 40.6952 55.8407 40.5794C55.8103 40.4636 55.7374 40.3782 55.628 40.3234C55.5185 40.2685 55.3483 40.232 55.1174 40.2167C54.8864 40.1984 54.5703 40.1893 54.1691 40.1801L52.2969 40.1527C51.8349 40.1466 51.4641 40.1192 51.1815 40.0674C50.9019 40.0186 50.6891 39.9394 50.5463 39.8327C50.4034 39.726 50.3062 39.5828 50.2575 39.403C50.2089 39.2232 50.1846 38.9977 50.1846 38.7264C50.1846 38.4308 50.218 38.187 50.2849 37.998C50.3518 37.806 50.4703 37.6567 50.6466 37.55C50.8198 37.4433 51.066 37.3672 51.3851 37.3214C51.7042 37.2788 52.1145 37.2544 52.6221 37.2544H54.0627C54.5217 37.2544 54.9016 37.2696 55.2085 37.2971C55.5125 37.3275 55.7556 37.3946 55.9349 37.4982C56.1142 37.6049 56.2419 37.7695 56.3209 37.9919C56.3969 38.2144 56.4364 38.5222 56.4364 38.9093H55.789C55.789 38.6076 55.7617 38.379 55.7039 38.2266C55.6462 38.0712 55.552 37.9675 55.4213 37.9096C55.2906 37.8548 55.1143 37.8243 54.8894 37.8182C54.6645 37.8121 54.391 37.8121 54.0597 37.8121H52.6525C52.2513 37.8121 51.9292 37.8213 51.689 37.8365C51.4489 37.8517 51.2666 37.8883 51.142 37.9432C51.0174 37.998 50.9353 38.0895 50.8958 38.2144C50.8532 38.3394 50.832 38.507 50.832 38.7234C50.832 38.9062 50.8472 39.0525 50.8745 39.1622C50.9049 39.2719 50.9687 39.3573 51.0721 39.4121C51.1754 39.47 51.3304 39.5097 51.5462 39.531C51.759 39.5523 52.0507 39.5645 52.4185 39.5706L54.4244 39.598C54.8955 39.6041 55.2724 39.6316 55.555 39.6803C55.8377 39.7291 56.0474 39.8053 56.1872 39.915C56.327 40.0217 56.4212 40.168 56.4668 40.3508C56.5124 40.5337 56.5367 40.7653 56.5367 41.0457C56.5367 41.3504 56.5093 41.6034 56.4516 41.8106C56.3939 42.0179 56.2844 42.1825 56.1203 42.3044C55.9562 42.4293 55.7191 42.5177 55.4091 42.5726C55.0991 42.6274 54.6919 42.6548 54.1873 42.6548H52.613C52.1541 42.6548 51.7681 42.6335 51.455 42.5939C51.142 42.5543 50.8958 42.472 50.7104 42.3501C50.525 42.2282 50.3913 42.0453 50.3123 41.8015C50.2302 41.5577 50.1907 41.2346 50.1907 40.8293H50.838C50.838 41.1463 50.8624 41.3931 50.914 41.5668C50.9657 41.7405 51.0569 41.8655 51.1845 41.9386C51.3122 42.0148 51.4945 42.0606 51.7255 42.0727C51.9565 42.088 52.2544 42.0941 52.613 42.0941H54.1539C54.5551 42.0941 54.8742 42.0819 55.1082 42.0545C55.3423 42.0301 55.5155 41.9783 55.628 41.9051C55.7404 41.832 55.8134 41.7284 55.8437 41.5882C55.8741 41.448 55.8924 41.2682 55.8924 41.0457L55.8893 41.0518Z" fill="#474748"/>
<path d="M59.8526 42.5513V37.9066H57.2661V37.3672H63.0833V37.9066H60.4969V42.5513H59.8495H59.8526Z" fill="#474748"/>
<path d="M66.3353 42.6611C65.8308 42.6611 65.4144 42.6276 65.0892 42.5575C64.764 42.4874 64.5087 42.3624 64.3264 42.1765C64.144 41.9906 64.0164 41.7254 63.9434 41.3811C63.8705 41.0367 63.834 40.5826 63.834 40.0279V39.8938C63.834 39.4336 63.8553 39.0496 63.9009 38.7387C63.9465 38.4279 64.0224 38.1719 64.1319 37.9768C64.2413 37.7818 64.3902 37.6324 64.5817 37.5288C64.7701 37.4252 65.0102 37.3551 65.2959 37.3185C65.5846 37.282 65.9281 37.2637 66.3323 37.2637H67.6909C68.0951 37.2637 68.4416 37.282 68.7273 37.3185C69.016 37.3551 69.2531 37.4252 69.4415 37.5288C69.6299 37.6324 69.7819 37.7818 69.8913 37.9768C70.0007 38.1719 70.0797 38.4279 70.1223 38.7387C70.1679 39.0496 70.1892 39.4367 70.1892 39.8938V40.0279C70.1892 40.5826 70.1527 41.0367 70.0797 41.3811C70.0068 41.7254 69.8791 41.9936 69.6968 42.1765C69.5144 42.3624 69.2591 42.4874 68.9339 42.5575C68.6087 42.6276 68.1923 42.6611 67.6878 42.6611H66.3293H66.3353ZM66.3353 42.1003H67.6939C68.0161 42.1003 68.2866 42.0881 68.5054 42.0668C68.7242 42.0454 68.9035 41.9967 69.0433 41.9205C69.1801 41.8474 69.2865 41.7346 69.3594 41.5822C69.4324 41.4298 69.481 41.2287 69.5084 40.9788C69.5357 40.7258 69.5479 40.4089 69.5479 40.0279V39.8938C69.5479 39.4976 69.5357 39.1715 69.5084 38.9155C69.481 38.6595 69.4324 38.4553 69.3594 38.309C69.2865 38.1627 69.1801 38.053 69.0433 37.9829C68.9066 37.9128 68.7273 37.8702 68.5054 37.8519C68.2866 37.8336 68.0161 37.8244 67.6939 37.8244H66.3353C66.0132 37.8244 65.7427 37.8336 65.5239 37.8519C65.305 37.8702 65.1257 37.9159 64.9859 37.9829C64.8491 38.053 64.7428 38.1597 64.6698 38.309C64.5969 38.4584 64.5482 38.6595 64.5209 38.9155C64.4935 39.1715 64.4814 39.4976 64.4814 39.8938V40.0279C64.4814 40.4119 64.4935 40.7289 64.5209 40.9788C64.5482 41.2317 64.5969 41.4329 64.6698 41.5822C64.7428 41.7315 64.8491 41.8443 64.9859 41.9205C65.1227 41.9936 65.302 42.0424 65.5239 42.0668C65.7457 42.0912 66.0132 42.1003 66.3353 42.1003Z" fill="#474748"/>
<path d="M71.2833 42.5514V37.3643H72.2468L75.3742 41.5944L78.456 37.3643H79.4194V42.5514H78.7721V37.9525L75.6842 42.21H75.0976L71.9307 37.9525V42.5514H71.2833Z" fill="#474748"/>
<path d="M80.2948 42.5514L83.3128 37.3643H84.1759L87.1939 42.5514H86.4402L85.7928 41.3628H81.6989L81.0515 42.5514H80.2978H80.2948ZM82.018 40.8234H85.4646L83.7413 37.797L82.018 40.8234Z" fill="#474748"/>
<path d="M90.3092 42.5513V37.9066H87.7228V37.3672H93.5399V37.9066H90.9535V42.5513H90.3062H90.3092Z" fill="#474748"/>
<path d="M96.7889 42.6611C96.2844 42.6611 95.868 42.6276 95.5428 42.5575C95.2176 42.4874 94.9623 42.3624 94.78 42.1765C94.5976 41.9906 94.47 41.7254 94.397 41.3811C94.3241 41.0367 94.2876 40.5826 94.2876 40.0279V39.8938C94.2876 39.4336 94.3089 39.0496 94.3545 38.7387C94.4001 38.4279 94.476 38.1719 94.5854 37.9768C94.6949 37.7818 94.8438 37.6324 95.0353 37.5288C95.2237 37.4252 95.4638 37.3551 95.7495 37.3185C96.0382 37.282 96.3817 37.2637 96.7859 37.2637H98.1444C98.5487 37.2637 98.8951 37.282 99.1808 37.3185C99.4696 37.3551 99.7066 37.4252 99.8951 37.5288C100.083 37.6324 100.235 37.7818 100.345 37.9768C100.454 38.1719 100.533 38.4279 100.576 38.7387C100.621 39.0496 100.643 39.4367 100.643 39.8938V40.0279C100.643 40.5826 100.606 41.0367 100.533 41.3811C100.46 41.7254 100.333 41.9936 100.15 42.1765C99.968 42.3624 99.7127 42.4874 99.3875 42.5575C99.0623 42.6276 98.6459 42.6611 98.1414 42.6611H96.7828H96.7889ZM96.7889 42.1003H98.1475C98.4696 42.1003 98.7401 42.0881 98.959 42.0668C99.1778 42.0454 99.3571 41.9967 99.4969 41.9205C99.6337 41.8474 99.7401 41.7346 99.813 41.5822C99.886 41.4298 99.9346 41.2287 99.9619 40.9788C99.9893 40.7258 100.001 40.4089 100.001 40.0279V39.8938C100.001 39.4976 99.9893 39.1715 99.9619 38.9155C99.9346 38.6595 99.886 38.4553 99.813 38.309C99.7401 38.1627 99.6337 38.053 99.4969 37.9829C99.3602 37.9128 99.1808 37.8702 98.959 37.8519C98.7401 37.8336 98.4696 37.8244 98.1475 37.8244H96.7889C96.4668 37.8244 96.1963 37.8336 95.9774 37.8519C95.7586 37.8702 95.5793 37.9159 95.4395 37.9829C95.3027 38.053 95.1963 38.1597 95.1234 38.309C95.0505 38.4584 95.0018 38.6595 94.9745 38.9155C94.9471 39.1715 94.935 39.4976 94.935 39.8938V40.0279C94.935 40.4119 94.9471 40.7289 94.9745 40.9788C95.0018 41.2317 95.0505 41.4329 95.1234 41.5822C95.1963 41.7315 95.3027 41.8443 95.4395 41.9205C95.5762 41.9936 95.7556 42.0424 95.9774 42.0668C96.1993 42.0912 96.4668 42.1003 96.7889 42.1003Z" fill="#474748"/>
<path d="M101.728 42.5514V37.3643H102.375V42.0089H106.469V42.5483H101.728V42.5514Z" fill="#474748"/>
<path d="M109.615 42.6611C109.11 42.6611 108.694 42.6276 108.369 42.5575C108.043 42.4874 107.788 42.3624 107.606 42.1765C107.423 41.9906 107.296 41.7254 107.223 41.3811C107.15 41.0367 107.113 40.5826 107.113 40.0279V39.8938C107.113 39.4336 107.135 39.0496 107.18 38.7387C107.226 38.4279 107.302 38.1719 107.411 37.9768C107.521 37.7818 107.67 37.6324 107.861 37.5288C108.049 37.4252 108.29 37.3551 108.575 37.3185C108.864 37.282 109.207 37.2637 109.612 37.2637H110.97C111.374 37.2637 111.721 37.282 112.007 37.3185C112.295 37.3551 112.532 37.4252 112.721 37.5288C112.909 37.6324 113.061 37.7818 113.171 37.9768C113.28 38.1719 113.359 38.4279 113.402 38.7387C113.447 39.0496 113.469 39.4367 113.469 39.8938V40.0279C113.469 40.5826 113.432 41.0367 113.359 41.3811C113.286 41.7285 113.159 41.9936 112.976 42.1765C112.794 42.3624 112.538 42.4874 112.213 42.5575C111.888 42.6276 111.472 42.6611 110.967 42.6611H109.609H109.615ZM109.615 42.1003H110.973C111.295 42.1003 111.566 42.0881 111.785 42.0668C112.004 42.0454 112.183 41.9967 112.323 41.9205C112.459 41.8474 112.566 41.7346 112.639 41.5822C112.712 41.4298 112.76 41.2287 112.788 40.9788C112.815 40.7258 112.827 40.4089 112.827 40.0279V39.8938C112.827 39.4976 112.815 39.1715 112.788 38.9155C112.76 38.6595 112.712 38.4553 112.639 38.309C112.566 38.1627 112.459 38.053 112.323 37.9829C112.186 37.9128 112.007 37.8702 111.785 37.8519C111.566 37.8336 111.295 37.8244 110.973 37.8244H109.615C109.293 37.8244 109.022 37.8336 108.803 37.8519C108.584 37.8702 108.405 37.9159 108.265 37.9829C108.128 38.053 108.022 38.1597 107.949 38.309C107.876 38.4584 107.828 38.6595 107.8 38.9155C107.773 39.1715 107.761 39.4976 107.761 39.8938V40.0279C107.761 40.4119 107.773 40.7289 107.8 40.9788C107.828 41.2317 107.876 41.4329 107.949 41.5822C108.022 41.7315 108.128 41.8443 108.265 41.9205C108.402 41.9936 108.581 42.0424 108.803 42.0668C109.025 42.0912 109.293 42.1003 109.615 42.1003Z" fill="#474748"/>
<path d="M120.058 41.0519C120.058 40.8507 120.042 40.6953 120.009 40.5795C119.979 40.4637 119.906 40.3783 119.796 40.3235C119.687 40.2686 119.517 40.232 119.286 40.2168C119.055 40.1985 118.739 40.1894 118.337 40.1802L116.465 40.1528C116.003 40.1467 115.632 40.1193 115.35 40.0675C115.07 40.0187 114.857 39.9395 114.715 39.8328C114.572 39.7261 114.475 39.5829 114.426 39.4031C114.377 39.2233 114.353 38.9977 114.353 38.7265C114.353 38.4309 114.386 38.1871 114.453 37.9981C114.52 37.8061 114.639 37.6568 114.815 37.5501C114.988 37.4434 115.234 37.3672 115.553 37.3215C115.873 37.2789 116.283 37.2545 116.79 37.2545H118.231C118.69 37.2545 119.07 37.2697 119.377 37.2971C119.681 37.3276 119.924 37.3947 120.103 37.4983C120.283 37.605 120.41 37.7695 120.489 37.992C120.565 38.2145 120.605 38.5223 120.605 38.9094H119.957C119.957 38.6076 119.93 38.3791 119.872 38.2267C119.815 38.0713 119.72 37.9676 119.59 37.9097C119.459 37.8549 119.283 37.8244 119.058 37.8183C118.833 37.8122 118.559 37.8122 118.228 37.8122H116.821C116.42 37.8122 116.097 37.8213 115.857 37.8366C115.617 37.8518 115.435 37.8884 115.31 37.9433C115.186 37.9981 115.104 38.0895 115.064 38.2145C115.022 38.3394 115 38.5071 115 38.7235C115 38.9063 115.015 39.0526 115.043 39.1623C115.073 39.272 115.137 39.3574 115.24 39.4122C115.344 39.4701 115.499 39.5097 115.715 39.5311C115.927 39.5524 116.219 39.5646 116.587 39.5707L118.593 39.5981C119.064 39.6042 119.441 39.6317 119.723 39.6804C120.006 39.7292 120.216 39.8054 120.356 39.9151C120.495 40.0218 120.59 40.168 120.635 40.3509C120.681 40.5338 120.705 40.7654 120.705 41.0458C120.705 41.3505 120.678 41.6035 120.62 41.8107C120.562 42.018 120.453 42.1825 120.289 42.3045C120.125 42.4294 119.887 42.5178 119.577 42.5726C119.267 42.6275 118.86 42.6549 118.356 42.6549H116.781C116.322 42.6549 115.936 42.6336 115.623 42.594C115.31 42.5544 115.064 42.4721 114.879 42.3502C114.693 42.2283 114.56 42.0454 114.481 41.8016C114.399 41.5578 114.359 41.2347 114.359 40.8294H115.006C115.006 41.1463 115.031 41.3932 115.082 41.5669C115.134 41.7406 115.225 41.8656 115.353 41.9387C115.481 42.0149 115.663 42.0606 115.894 42.0728C116.125 42.0881 116.423 42.0942 116.781 42.0942H118.322C118.723 42.0942 119.043 42.082 119.277 42.0545C119.511 42.0302 119.684 41.9784 119.796 41.9052C119.909 41.8321 119.982 41.7284 120.012 41.5883C120.042 41.4481 120.061 41.2682 120.061 41.0458L120.058 41.0519ZM117.189 36.8126L116.11 35.1912L116.541 34.8682L117.511 36.3798L118.48 34.8682L118.912 35.1912L117.836 36.8126H117.189Z" fill="#474748"/>
<path d="M121.763 42.5514V37.3643H122.41V39.6317H123.27L126.613 37.3643H127.583L123.921 39.903L127.692 42.5514H126.723L123.276 40.1742H122.413V42.5514H121.766H121.763Z" fill="#474748"/>
<path d="M128.121 42.5514L131.139 37.3643H132.002L135.02 42.5514H134.266L133.619 41.3628H129.525L128.878 42.5514H128.124H128.121ZM129.844 40.8234H133.291L131.567 37.797L129.844 40.8234Z" fill="#474748"/>
<path d="M140.123 42.6611C139.618 42.6611 139.202 42.6276 138.877 42.5575C138.552 42.4874 138.296 42.3624 138.114 42.1765C137.932 41.9906 137.804 41.7254 137.731 41.3811C137.658 41.0367 137.622 40.5826 137.622 40.0279V39.8938C137.622 39.4336 137.643 39.0496 137.689 38.7387C137.734 38.4279 137.81 38.1719 137.92 37.9768C138.029 37.7818 138.178 37.6324 138.369 37.5288C138.558 37.4252 138.798 37.3551 139.084 37.3185C139.372 37.282 139.716 37.2637 140.12 37.2637H141.479C141.883 37.2637 142.229 37.282 142.515 37.3185C142.804 37.3551 143.041 37.4252 143.229 37.5288C143.418 37.6324 143.57 37.7818 143.679 37.9768C143.788 38.1719 143.867 38.4279 143.91 38.7387C143.956 39.0496 143.977 39.4367 143.977 39.8938V40.0279C143.977 40.5826 143.94 41.0367 143.867 41.3811C143.794 41.7254 143.667 41.9936 143.484 42.1765C143.302 42.3624 143.047 42.4874 142.722 42.5575C142.396 42.6276 141.98 42.6611 141.475 42.6611H140.117H140.123ZM140.123 42.1003H141.482C141.804 42.1003 142.074 42.0881 142.293 42.0668C142.512 42.0454 142.691 41.9967 142.831 41.9205C142.968 41.8474 143.074 41.7346 143.147 41.5822C143.22 41.4298 143.269 41.2287 143.296 40.9788C143.323 40.7258 143.336 40.4089 143.336 40.0279V39.8938C143.336 39.4976 143.323 39.1715 143.296 38.9155C143.269 38.6595 143.22 38.4553 143.147 38.309C143.074 38.1627 142.968 38.053 142.831 37.9829C142.694 37.9128 142.515 37.8702 142.293 37.8519C142.074 37.8336 141.804 37.8244 141.482 37.8244H140.123C139.801 37.8244 139.53 37.8336 139.312 37.8519C139.093 37.8702 138.913 37.9159 138.774 37.9829C138.637 38.053 138.53 38.1597 138.457 38.309C138.385 38.4584 138.336 38.6595 138.309 38.9155C138.281 39.1715 138.269 39.4976 138.269 39.8938V40.0279C138.269 40.4119 138.281 40.7289 138.309 40.9788C138.336 41.2317 138.385 41.4329 138.457 41.5822C138.53 41.7315 138.637 41.8443 138.774 41.9205C138.91 41.9936 139.09 42.0424 139.312 42.0668C139.533 42.0912 139.801 42.1003 140.123 42.1003Z" fill="#474748"/>
<path d="M145.074 37.3641H148.536C149.04 37.3641 149.448 37.3855 149.758 37.4312C150.068 37.4769 150.302 37.5531 150.46 37.6628C150.618 37.7725 150.727 37.9249 150.782 38.1139C150.836 38.3059 150.867 38.5466 150.867 38.8392V38.9733C150.867 39.2445 150.833 39.4762 150.77 39.6712C150.706 39.8663 150.584 40.0247 150.402 40.1436C150.219 40.2625 149.952 40.3478 149.593 40.3996L150.718 42.5482H150.071L148.97 40.4484C148.925 40.4484 148.879 40.4514 148.831 40.4514H145.721V42.5482H145.074V37.3611V37.3641ZM145.721 39.8937H148.581C148.964 39.8937 149.268 39.8815 149.49 39.8541C149.712 39.8266 149.873 39.784 149.979 39.7169C150.083 39.6529 150.15 39.5584 150.18 39.4396C150.21 39.3207 150.223 39.1653 150.223 38.9763V38.8422C150.223 38.6289 150.201 38.4582 150.162 38.3363C150.122 38.2114 150.04 38.12 149.919 38.062C149.797 38.0041 149.618 37.9645 149.378 37.9493C149.137 37.931 148.815 37.9249 148.414 37.9249H145.724V39.8937H145.721Z" fill="#474748"/>
<path d="M152.101 42.5514V37.3643H155.939C156.444 37.3643 156.86 37.3947 157.186 37.4557C157.511 37.5166 157.766 37.6355 157.948 37.8092C158.131 37.9829 158.258 38.2389 158.331 38.5711C158.404 38.9033 158.441 39.3452 158.441 39.8908V40.0249C158.441 40.5552 158.404 40.9849 158.331 41.3171C158.258 41.6493 158.131 41.9053 157.948 42.082C157.766 42.2618 157.511 42.3838 157.186 42.4508C156.86 42.5178 156.444 42.5514 155.939 42.5514H152.101ZM152.748 41.9906H155.939C156.341 41.9906 156.666 41.9723 156.909 41.9327C157.152 41.8931 157.341 41.8108 157.468 41.6828C157.596 41.5548 157.684 41.3597 157.727 41.0946C157.772 40.8325 157.793 40.4759 157.793 40.0249V39.8908C157.793 39.5159 157.781 39.2081 157.754 38.9673C157.727 38.7235 157.678 38.5315 157.605 38.3913C157.532 38.2511 157.426 38.1475 157.289 38.0805C157.152 38.0134 156.973 37.9707 156.751 37.9525C156.532 37.9342 156.262 37.925 155.939 37.925H152.748V41.9906Z" fill="#474748"/>
<path d="M159.52 42.5514V37.3643H160.167V42.5514H159.52Z" fill="#474748"/>
<path d="M161.459 42.5514V37.3643H162.133L167.328 41.7498H167.334V37.3643H167.981V42.5514H167.306L162.112 38.1292H162.106V42.5514H161.459Z" fill="#474748"/>
<path d="M168.841 42.5514L171.859 37.3643H172.722L175.74 42.5514H174.987L174.339 41.3628H170.245L169.598 42.5514H168.844H168.841ZM170.564 40.8234H174.011L172.288 37.797L170.564 40.8234Z" fill="#474748"/>
<path d="M176.385 40.0247V39.8906C176.385 39.4304 176.406 39.0464 176.452 38.7356C176.497 38.4247 176.573 38.1687 176.683 37.9736C176.792 37.7786 176.941 37.6293 177.132 37.5256C177.321 37.422 177.561 37.3519 177.847 37.3154C178.135 37.2788 178.479 37.2605 178.883 37.2605H180.241C180.703 37.2605 181.092 37.2818 181.412 37.3275C181.728 37.3702 181.986 37.4586 182.181 37.5866C182.375 37.7146 182.515 37.9066 182.603 38.1565C182.691 38.4064 182.734 38.7386 182.734 39.1531H182.086C182.086 38.827 182.056 38.574 181.998 38.3912C181.94 38.2114 181.84 38.0803 181.703 37.998C181.567 37.9157 181.378 37.867 181.138 37.8487C180.901 37.8304 180.6 37.8213 180.238 37.8213H178.88C178.558 37.8213 178.287 37.8304 178.068 37.8487C177.85 37.867 177.67 37.9127 177.53 37.9797C177.394 38.0498 177.287 38.1565 177.214 38.3058C177.141 38.4552 177.093 38.6563 177.065 38.9123C177.038 39.1683 177.026 39.4944 177.026 39.8906V40.0247C177.026 40.4087 177.038 40.7257 177.065 40.9756C177.093 41.2285 177.141 41.4297 177.214 41.579C177.287 41.7284 177.394 41.8411 177.53 41.9173C177.667 41.9905 177.847 42.0392 178.068 42.0636C178.29 42.088 178.558 42.0971 178.88 42.0971H180.238C180.6 42.0971 180.901 42.088 181.138 42.0728C181.375 42.0575 181.564 42.0118 181.703 41.9356C181.84 41.8594 181.94 41.7314 181.998 41.5516C182.056 41.3718 182.086 41.1219 182.086 40.7958H182.734C182.734 41.2103 182.691 41.5394 182.603 41.7893C182.515 42.0362 182.375 42.2221 182.181 42.347C181.986 42.472 181.731 42.5543 181.412 42.5939C181.092 42.6335 180.703 42.6549 180.241 42.6549H178.883C178.378 42.6549 177.962 42.6213 177.637 42.5512C177.312 42.4811 177.056 42.3562 176.874 42.1703C176.692 41.9844 176.564 41.7192 176.491 41.3748C176.418 41.0305 176.382 40.5764 176.382 40.0217L176.385 40.0247Z" fill="#474748"/>
<path d="M183.822 42.5514V37.3643H184.469V42.5514H183.822Z" fill="#474748"/>
<path d="M187.056 42.5513C186.627 42.5513 186.293 42.4903 186.05 42.3653C185.809 42.2404 185.657 41.9996 185.6 41.64C185.563 41.4267 185.545 41.1554 185.545 40.8232V40.6069H186.192V40.8232C186.192 41.3352 186.256 41.6705 186.381 41.829C186.451 41.9143 186.542 41.9692 186.651 41.9905C186.761 42.0118 186.898 42.024 187.053 42.024H188.56C188.949 42.024 189.226 41.9539 189.39 41.8168C189.554 41.6796 189.636 41.4175 189.636 41.0396V37.3672H190.283V41.0396C190.283 41.5882 190.159 41.9752 189.906 42.2008C189.645 42.4354 189.198 42.5513 188.56 42.5513H187.053H187.056Z" fill="#474748"/>
<path d="M191.104 42.5514L194.122 37.3643H194.985L198.003 42.5514H197.249L196.602 41.3628H192.508L191.861 42.5514H191.107H191.104ZM192.83 40.8234H196.277L194.553 37.797L192.83 40.8234Z" fill="#474748"/>
<path d="M109.785 58.4357C111.201 58.1432 112.374 58.8807 111.812 60.4411C111.165 62.0655 109.797 63.2632 108.542 64.3634C108.201 64.6438 107.776 64.144 108.107 63.8514C109.071 63.0011 110.034 62.0868 110.742 61.0201C111.502 59.8773 111.615 58.8106 109.888 59.0666C107.372 59.5695 105.247 61.4742 103.673 63.4369C102.886 64.4579 102.132 65.5825 101.837 66.8473C101.497 68.2797 102.263 69.2915 103.706 69.389C105.655 69.5079 107.542 68.6332 109.204 67.6884C109.77 67.3562 110.317 66.9966 110.849 66.6126C111.21 66.3596 111.596 66.8869 111.244 67.1581C109.028 68.4961 106.335 69.9437 103.673 69.7517C102.585 69.6664 101.536 68.9959 101.442 67.8225C101.196 65.3417 104.287 61.7546 106.141 60.2826C107.22 59.4354 108.408 58.707 109.785 58.4388V58.4357Z" fill="#2083C6"/>
<path d="M118.103 65.1284C118.182 65.1802 118.207 65.2868 118.152 65.3661C117.821 65.8598 117.395 66.2926 116.888 66.6126C115.979 67.2282 114.435 67.2648 114.432 65.9207C114.228 66.0884 114.013 66.2438 113.775 66.3748C113.052 66.8168 111.991 66.8198 112.119 65.7105C112.232 65.0552 112.545 64.5493 112.894 64.0281C113 63.8758 113.21 63.8392 113.362 63.9489C113.511 64.0556 113.548 64.2598 113.447 64.4122C113.171 64.8388 112.827 65.3204 112.73 65.8019C112.709 65.9086 112.721 66 112.733 66.0244C112.739 66.0396 112.742 66.0427 112.76 66.0548C113.313 66.1767 114.089 65.5977 114.572 65.1253C114.733 64.5981 115.019 64.1165 115.401 63.702C115.468 63.6411 115.538 63.574 115.645 63.5497C115.827 63.507 115.97 63.6838 115.936 63.8483C115.794 64.3603 115.468 64.787 115.152 65.1984C115.055 65.3143 114.955 65.427 114.848 65.5367C114.806 65.7379 114.794 65.9451 114.815 66.1463C114.903 66.6857 115.529 66.7741 115.991 66.6552C116.79 66.4632 117.444 65.8659 117.878 65.1802C117.927 65.1009 118.03 65.0796 118.109 65.1284H118.103Z" fill="#2083C6"/>
<path d="M122.644 65.1956C122.811 65.0401 123.042 65.3022 122.863 65.4516C122.194 65.991 121.24 66.4786 120.365 66.1038C120.197 66.0337 120.064 65.9392 119.951 65.8325C119.76 66.0763 119.559 66.314 119.353 66.5396C119.046 66.8687 118.693 67.2009 118.258 67.3868C117.842 67.591 117.295 67.4965 117.231 66.9601C117.186 66.4634 117.413 66.0276 117.623 65.6192C117.912 65.1041 118.277 64.65 118.663 64.2142C118.818 64.0435 119.07 64.2904 118.903 64.4489C118.322 65.0096 117.796 65.7258 117.666 66.5274C117.651 66.6798 117.638 66.8535 117.73 66.951C117.796 66.9632 117.882 66.9266 118 66.8596C118.322 66.6523 118.587 66.3689 118.86 66.0794C119.103 65.8081 119.365 65.5369 119.614 65.2626C119.477 64.7384 119.687 64.1289 120.204 63.7418C120.465 63.5285 120.9 63.5346 120.924 63.9552C120.915 64.4062 120.638 64.8024 120.428 65.162C120.334 65.3083 120.234 65.4516 120.134 65.5887C120.231 65.6923 120.352 65.7807 120.483 65.8417C121.246 66.1799 122.079 65.7258 122.647 65.1895L122.644 65.1956ZM119.891 64.9426C120.091 64.7018 120.273 64.4519 120.425 64.1837C120.453 64.1289 120.477 64.074 120.489 64.0253C120.489 64.0253 120.489 64.0222 120.489 64.0192C120.146 64.1624 119.909 64.5616 119.887 64.9426H119.891Z" fill="#2083C6"/>
<path d="M127.419 65.1223C127.504 65.1711 127.525 65.2869 127.467 65.3661C127.182 65.7593 126.86 66.1372 126.434 66.4115C125.99 66.7193 125.282 66.7833 124.99 66.2194C124.823 65.8873 124.796 65.5246 124.638 65.2015C124.629 65.1802 124.617 65.1589 124.604 65.1406C124.595 65.1467 124.586 65.1558 124.571 65.1711C124.294 65.4545 124.024 65.7867 123.72 66.0488C123.374 66.3444 123.027 66.6614 122.58 66.8168C122.337 66.9082 122.003 66.7894 121.945 66.512C121.893 66.3078 121.975 66.1158 122.061 65.9574C122.252 65.616 122.501 65.3295 122.757 65.0522C123.124 64.6773 123.428 64.3086 123.93 64.0739C124.626 63.7569 125.139 64.3055 125.185 64.9821C125.194 65.0888 125.118 65.1528 125.039 65.1619C125.097 65.3692 125.133 65.6008 125.176 65.7653C125.267 66.4175 125.787 66.4907 126.285 66.1615C126.656 65.9238 126.954 65.5612 127.188 65.1741C127.236 65.0949 127.34 65.0674 127.419 65.1162V65.1223ZM124.297 64.7749C124.449 64.6865 124.568 64.6621 124.668 64.6773C124.41 64.3543 124.094 64.595 123.729 64.9912C123.538 65.2076 123.34 65.4271 123.155 65.6556C123.203 65.6191 123.255 65.5794 123.304 65.5429C123.592 65.3295 123.997 64.9669 124.297 64.7718V64.7749ZM124.574 65.1071C124.574 65.1071 124.583 65.1131 124.586 65.1131C124.583 65.1071 124.577 65.104 124.574 65.101C124.565 65.0949 124.562 65.0979 124.574 65.1071Z" fill="#2083C6"/>
<path d="M132.19 65.2899C132.184 65.3356 132.163 65.3782 132.127 65.4057C131.89 65.5946 131.634 65.7592 131.364 65.8933C130.115 66.5546 128.969 65.8872 128.331 64.8358C127.774 65.616 127.157 66.3535 126.486 67.0362C126.379 67.1672 126.243 67.2678 126.085 67.3288C126.021 67.3379 125.96 67.3196 125.911 67.2769C125.875 67.2434 125.854 67.1977 125.847 67.1489C125.863 66.9722 125.914 66.8015 126.002 66.6461C126.392 65.8537 126.841 65.0918 127.349 64.3725C127.501 64.1897 127.872 63.5253 128.148 63.7599C128.16 63.7752 128.173 63.7904 128.182 63.8057C128.328 63.5984 128.473 63.3942 128.622 63.19C128.729 63.0468 128.932 63.0133 129.081 63.1138C129.23 63.2144 129.273 63.4156 129.179 63.5679C128.963 63.9123 128.741 64.2506 128.51 64.5828C128.917 65.299 129.607 65.9421 130.452 65.8476C130.99 65.7988 131.485 65.4971 131.914 65.1436C131.947 65.1131 131.993 65.1009 132.039 65.104C132.084 65.107 132.124 65.1283 132.154 65.1649C132.184 65.2015 132.197 65.2442 132.194 65.2899H132.19ZM126.683 66.0731C127.1 65.4026 127.534 64.7413 127.984 64.0921C127.978 64.0769 127.975 64.0617 127.969 64.0464C127.616 64.3908 127.37 64.8419 127.109 65.2594C126.914 65.6038 126.695 65.9695 126.51 66.3352C126.568 66.2468 126.623 66.1585 126.68 66.0731H126.683Z" fill="#2083C6"/>
<path d="M140.694 65.1956C140.862 65.0401 141.093 65.3022 140.913 65.4516C140.245 65.991 139.29 66.4786 138.415 66.1038C138.248 66.0337 138.114 65.9392 138.002 65.8325C137.81 66.0763 137.609 66.314 137.403 66.5396C137.096 66.8687 136.743 67.2009 136.309 67.3868C135.892 67.591 135.345 67.4965 135.281 66.9601C135.236 66.4634 135.464 66.0276 135.673 65.6192C135.962 65.1041 136.327 64.65 136.713 64.2142C136.868 64.0435 137.12 64.2904 136.953 64.4489C136.373 65.0096 135.847 65.7258 135.716 66.5274C135.701 66.6798 135.689 66.8535 135.78 66.951C135.847 66.9632 135.932 66.9266 136.05 66.8596C136.373 66.6523 136.637 66.3689 136.91 66.0794C137.154 65.8081 137.415 65.5369 137.664 65.2626C137.527 64.7384 137.737 64.1289 138.254 63.7418C138.515 63.5285 138.95 63.5346 138.974 63.9552C138.965 64.4062 138.688 64.8024 138.479 65.162C138.385 65.3083 138.284 65.4516 138.184 65.5887C138.281 65.6923 138.403 65.7807 138.533 65.8417C139.296 66.1799 140.129 65.7258 140.697 65.1895L140.694 65.1956ZM137.941 64.9426C138.141 64.7018 138.324 64.4519 138.476 64.1837C138.503 64.1289 138.527 64.074 138.54 64.0253C138.54 64.0253 138.54 64.0222 138.54 64.0192C138.196 64.1624 137.959 64.5616 137.938 64.9426H137.941Z" fill="#2083C6"/>
<path d="M145.466 65.1223C145.551 65.1711 145.572 65.2869 145.515 65.3661C145.229 65.7593 144.907 66.1372 144.481 66.4115C144.038 66.7193 143.329 66.7833 143.038 66.2194C142.87 65.8873 142.843 65.5246 142.685 65.2015C142.676 65.1802 142.664 65.1589 142.652 65.1406C142.643 65.1467 142.633 65.1558 142.618 65.1711C142.342 65.4545 142.071 65.7867 141.767 66.0488C141.421 66.3444 141.074 66.6614 140.628 66.8168C140.384 66.9082 140.05 66.7894 139.992 66.512C139.941 66.3078 140.023 66.1158 140.108 65.9574C140.299 65.616 140.548 65.3295 140.804 65.0522C141.172 64.6773 141.475 64.3086 141.977 64.0739C142.673 63.7569 143.187 64.3055 143.232 64.9821C143.241 65.0888 143.165 65.1528 143.086 65.1619C143.144 65.3692 143.18 65.6008 143.223 65.7653C143.314 66.4175 143.834 66.4907 144.332 66.1615C144.703 65.9238 145.001 65.5612 145.235 65.1741C145.284 65.0949 145.387 65.0674 145.466 65.1162V65.1223ZM142.345 64.7749C142.497 64.6865 142.615 64.6621 142.715 64.6773C142.457 64.3543 142.141 64.595 141.776 64.9912C141.585 65.2076 141.387 65.4271 141.202 65.6556C141.251 65.6191 141.302 65.5794 141.351 65.5429C141.64 65.3295 142.044 64.9669 142.345 64.7718V64.7749ZM142.621 65.1071C142.621 65.1071 142.63 65.1131 142.633 65.1131C142.63 65.1071 142.624 65.104 142.621 65.101C142.612 65.0949 142.609 65.0979 142.621 65.1071Z" fill="#2083C6"/>
<path d="M150.226 65.2259C150.429 65.171 151.137 64.9181 151.125 65.3021C151.11 65.3966 151.016 65.4606 150.925 65.4392C150.751 65.4087 150.505 65.4819 150.323 65.5337C149.672 65.7348 149.049 66.0305 148.438 66.3352C148.08 66.5211 147.724 66.7131 147.375 66.9143C147.597 67.1703 147.718 67.4781 147.621 67.8712C147.442 68.7581 144.743 70.6629 144.159 69.4957C143.971 68.7429 145.393 67.8956 145.91 67.4964C146.202 67.3013 146.499 67.1093 146.8 66.9234C146.521 66.7131 146.156 66.515 145.828 66.2926C145.071 65.8049 144.989 65.1649 145.712 64.5615C146.147 64.1744 146.594 63.7935 147.065 63.443C147.448 63.1657 147.828 62.8883 148.311 62.6872C148.517 62.611 148.77 62.5348 149.019 62.6232C149.502 62.8091 149.432 63.4217 149.299 63.7843C149.095 64.3024 148.879 64.723 148.408 65.0857C148.022 65.3417 147.654 64.7657 148.046 64.5188C148.326 64.336 148.593 63.9062 148.721 63.5771C148.77 63.4674 148.818 63.251 148.797 63.1718C148.788 63.1718 148.776 63.1718 148.761 63.1718C148.265 63.2419 147.818 63.5801 147.375 63.8758C146.916 64.1988 146.463 64.5676 146.031 64.9333C145.542 65.3265 145.539 65.5764 146.077 65.9543C146.387 66.1889 146.828 66.4175 147.168 66.7101C148.144 66.1249 149.159 65.6068 150.235 65.2289L150.226 65.2259ZM147.022 67.1215C146.305 67.5512 145.615 68.0267 144.983 68.5692C144.515 68.9379 143.986 69.709 145.028 69.5292C145.673 69.3829 146.232 68.9684 146.721 68.5295C147.429 67.8926 147.375 67.4781 147.022 67.1246V67.1215Z" fill="#2083C6"/>
<path d="M154.912 65.3935C154.575 65.683 154.213 65.8446 153.848 66.0183C153.061 66.3352 151.605 66.9539 150.846 66.3596C150.25 65.8324 150.554 65.0034 150.991 64.4884C151.292 64.1135 151.988 63.315 152.535 63.6685C152.706 63.7996 152.727 64.0281 152.703 64.208C152.587 64.8297 152.134 65.5124 151.42 65.4636C151.28 65.4484 151.122 65.3905 151.01 65.299C150.803 65.7348 150.998 66.2316 151.526 66.259C152.265 66.3048 153.046 66.0366 153.727 65.7379C154.061 65.5855 154.423 65.3996 154.684 65.1527C154.748 65.0826 154.86 65.0796 154.927 65.1466C154.997 65.2167 154.991 65.3295 154.918 65.3935H154.912ZM151.751 64.403C151.627 64.5097 151.508 64.6255 151.396 64.7535C151.69 64.9943 152.043 64.4457 152.119 64.1653C151.994 64.2171 151.87 64.3085 151.748 64.4061L151.751 64.403Z" fill="#2083C6"/>
<path d="M159.45 65.1467C159.659 65.0766 159.772 65.3905 159.556 65.4667C158.842 65.7318 158.015 66.0579 157.164 66.445C156.052 68.5265 154.696 70.5867 152.672 71.8698C152.137 72.1837 151.083 72.6409 150.727 71.8515C150.539 71.1445 151.049 70.5197 151.438 70.0016C152.754 68.4564 154.538 67.3227 156.414 66.4236C156.605 66.0457 156.79 65.6648 156.964 65.2838C156.97 65.2625 156.976 65.2442 156.979 65.2259C156.757 65.3265 156.544 65.5215 156.362 65.6831C155.894 66.1311 155.45 66.6248 154.864 66.9478C154.611 67.1033 154.152 67.1703 153.985 66.8198C153.69 66.128 154.797 64.9699 155.231 64.4823C155.48 64.2232 155.711 63.9794 156.052 63.8148C156.727 63.4735 157.274 63.9489 157.45 64.5829C157.635 64.7169 157.727 64.9699 157.69 65.1924C157.663 65.4697 157.535 65.744 157.423 65.9634C158.103 65.6678 158.784 65.3996 159.453 65.1467H159.45ZM156.143 66.9326C154.101 67.9627 152.086 69.3189 151.201 70.9586C150.621 72.2294 151.715 72.0008 152.453 71.5041C152.955 71.178 153.405 70.7605 153.818 70.3094C154.727 69.2915 155.493 68.1395 156.146 66.9326H156.143ZM156.727 64.5768C156.678 64.4823 156.617 64.4 156.547 64.3787C156.246 64.3482 155.927 64.7352 155.718 64.9394C155.368 65.3356 154.967 65.7532 154.733 66.2316C155.307 65.8659 155.73 65.2564 156.283 64.848C156.423 64.7474 156.565 64.6469 156.727 64.5737V64.5768Z" fill="#2083C6"/>
<path d="M168.236 65.1802C168.288 65.2564 168.267 65.363 168.191 65.4148C167.881 65.6221 167.516 65.7288 167.127 65.7288C166.738 65.7288 166.291 65.616 165.86 65.3935C165.547 65.232 165.273 65.0278 165.06 64.8114C164.96 65.4118 164.68 66.1036 164.449 66.4419C164.142 66.896 163.832 67.0179 163.586 67.0179C163.38 67.0179 163.215 66.9295 163.139 66.8808C162.899 66.7253 162.671 66.3535 162.93 65.4819C163.173 64.6651 163.878 63.4583 164.623 63.4583C164.808 63.4583 164.957 63.6076 164.957 63.7965C164.957 63.8209 164.957 63.8453 164.951 63.8666C165.042 63.9703 165.085 64.1318 165.094 64.3207C165.27 64.5798 165.586 64.8693 166.012 65.0918C166.361 65.2716 167.252 65.6373 168.002 65.1345C168.078 65.0827 168.185 65.104 168.236 65.1802ZM163.69 66.2956C164.152 65.9482 164.489 64.6164 164.434 64.2933C164.425 64.2811 164.416 64.2689 164.407 64.2537C164.243 64.3969 164.021 64.6651 163.808 65.0918C163.465 65.7836 163.462 66.2438 163.519 66.32C163.556 66.3413 163.592 66.3657 163.69 66.2926V66.2956Z" fill="#2083C6"/>
<path d="M173.026 65.2259C173.23 65.171 173.938 64.9181 173.926 65.3021C173.911 65.3966 173.816 65.4606 173.725 65.4392C173.552 65.4087 173.306 65.4819 173.124 65.5337C172.473 65.7348 171.85 66.0305 171.239 66.3352C170.881 66.5211 170.525 66.7131 170.175 66.9143C170.397 67.1703 170.519 67.4781 170.422 67.8712C170.242 68.7581 167.543 70.6629 166.96 69.4957C166.771 68.7429 168.194 67.8956 168.71 67.4964C169.002 67.3013 169.3 67.1093 169.601 66.9234C169.321 66.7131 168.957 66.515 168.628 66.2926C167.872 65.8049 167.79 65.1649 168.513 64.5615C168.948 64.1744 169.394 63.7935 169.865 63.443C170.248 63.1657 170.628 62.8883 171.112 62.6872C171.318 62.611 171.57 62.5348 171.82 62.6232C172.303 62.8091 172.233 63.4217 172.099 63.7843C171.896 64.3024 171.68 64.723 171.209 65.0857C170.823 65.3417 170.455 64.7657 170.847 64.5188C171.127 64.336 171.394 63.9062 171.522 63.5771C171.57 63.4674 171.619 63.251 171.598 63.1718C171.589 63.1718 171.577 63.1718 171.561 63.1718C171.066 63.2419 170.619 63.5801 170.175 63.8758C169.716 64.1988 169.264 64.5676 168.832 64.9333C168.343 65.3265 168.34 65.5764 168.878 65.9543C169.188 66.1889 169.628 66.4175 169.969 66.7101C170.944 66.1249 171.959 65.6068 173.035 65.2289L173.026 65.2259ZM169.823 67.1215C169.106 67.5512 168.416 68.0267 167.783 68.5692C167.315 68.9379 166.787 69.709 167.829 69.5292C168.473 69.3829 169.033 68.9684 169.522 68.5295C170.23 67.8926 170.175 67.4781 169.823 67.1246V67.1215Z" fill="#2083C6"/>
<path d="M180.217 65.1559C180.369 65.0005 180.612 65.226 180.46 65.3906C180.241 65.6192 180.014 65.8325 179.77 66.0367C179.457 66.2744 179.096 66.6127 178.64 66.5944C177.749 66.4543 178.5 64.3788 177.919 64.4276C177.679 64.4733 177.439 64.7018 177.257 64.8817C176.847 65.3053 176.491 65.8142 176.199 66.3323L176.114 66.4085C175.88 66.631 175.494 66.375 175.594 66.0763C175.719 65.6771 175.798 65.2382 175.798 64.8299C175.792 64.6653 175.777 64.4398 175.683 64.3209C175.588 64.2142 175.424 64.3087 175.303 64.3757C174.424 65.0036 173.835 66.0032 173.236 66.9053C173.187 66.9693 173.111 67.079 173.005 67.1247C172.777 67.2223 172.552 67.015 172.601 66.7804C172.947 65.5491 173.789 64.5281 174.379 63.4218C174.394 63.3883 174.409 63.3578 174.421 63.3274C174.409 63.3274 174.394 63.3304 174.382 63.3365C174.187 63.3822 174.093 63.1018 174.272 63.0195C174.433 62.9373 174.692 62.8793 174.813 63.0896C174.874 63.2085 174.862 63.2908 174.85 63.3975C174.792 63.6992 174.652 63.9765 174.534 64.2356C174.397 64.5038 174.263 64.7719 174.129 65.0371C175.309 63.623 176.199 63.3822 176.269 65.2809C176.497 65.0462 176.734 64.8177 176.986 64.5982C177.26 64.3818 177.503 64.1624 177.88 64.1045C178.886 64.1045 178.205 65.6923 178.603 66.2226C178.637 66.2653 178.634 66.2653 178.679 66.2744C178.998 66.2531 179.278 65.991 179.552 65.7838C179.783 65.5918 180.004 65.3815 180.211 65.1651L180.217 65.1559ZM174.509 63.3121C174.509 63.3121 174.528 63.3213 174.531 63.3182C174.54 63.3182 174.531 63.3121 174.515 63.3121H174.509Z" fill="#2083C6"/>
<path d="M184.478 65.3935C184.141 65.683 183.779 65.8446 183.415 66.0183C182.627 66.3352 181.172 66.9539 180.412 66.3596C179.816 65.8324 180.12 65.0034 180.558 64.4884C180.858 64.1135 181.554 63.315 182.102 63.6685C182.272 63.7996 182.293 64.0281 182.269 64.208C182.153 64.8297 181.7 65.5124 180.986 65.4636C180.846 65.4484 180.688 65.3905 180.576 65.299C180.369 65.7348 180.564 66.2316 181.093 66.259C181.831 66.3048 182.612 66.0366 183.293 65.7379C183.627 65.5855 183.989 65.3996 184.25 65.1527C184.314 65.0826 184.427 65.0796 184.493 65.1466C184.563 65.2167 184.557 65.3295 184.484 65.3935H184.478ZM181.317 64.403C181.193 64.5097 181.074 64.6255 180.962 64.7535C181.257 64.9943 181.609 64.4457 181.685 64.1653C181.561 64.2171 181.436 64.3085 181.314 64.4061L181.317 64.403Z" fill="#2083C6"/>
<path d="M190.396 65.1559C190.551 64.9943 190.794 65.229 190.636 65.3905C189.32 66.7315 188.472 66.8077 187.84 64.8877C187.715 64.6195 187.563 64.077 187.22 64.3299C186.432 64.9852 185.718 65.7806 184.91 66.4328C184.676 66.6126 184.454 66.8168 184.156 66.9113C184.056 66.9387 183.943 66.9387 183.843 66.8778C183.457 66.6065 183.837 66.0092 183.971 65.6922C185.384 63.0286 186.676 60.2826 188.411 57.8049C188.739 57.4179 189.502 56.3329 190.061 56.4853C190.219 56.5249 190.329 56.7352 190.323 56.851C190.335 57.1405 190.232 57.3721 190.137 57.6159C189.891 58.195 189.578 58.7131 189.259 59.2312C188.384 60.6088 187.411 61.9467 186.107 62.9463C185.557 63.9429 185.004 64.9517 184.46 65.9452C184.411 66.0427 184.357 66.1433 184.311 66.2439C184.408 66.1768 184.503 66.1037 184.594 66.0366C185.293 65.485 185.943 64.8694 186.615 64.272C187.369 63.5254 187.891 63.8118 188.198 64.7475C188.39 65.1955 188.52 65.9361 189.034 66.0275C189.548 66.0275 190.031 65.5185 190.393 65.1589L190.396 65.1559ZM186.63 62.0076C186.591 62.0808 186.548 62.1539 186.508 62.2271C187.068 61.7333 187.56 61.1543 187.989 60.5448C188.666 59.5878 189.332 58.5607 189.703 57.4514C189.73 57.3599 189.761 57.2655 189.782 57.171C189.268 57.6617 188.855 58.3322 188.454 58.9264C187.812 59.92 187.22 60.9623 186.633 62.0076H186.63Z" fill="#2083C6"/>
<path d="M195.037 65.1223C195.122 65.1711 195.143 65.2869 195.085 65.3661C194.8 65.7593 194.477 66.1372 194.052 66.4115C193.608 66.7193 192.9 66.7833 192.608 66.2194C192.441 65.8873 192.414 65.5246 192.256 65.2015C192.247 65.1802 192.234 65.1589 192.222 65.1406C192.213 65.1467 192.204 65.1558 192.189 65.1711C191.912 65.4545 191.642 65.7867 191.338 66.0488C190.991 66.3444 190.645 66.6614 190.198 66.8168C189.955 66.9082 189.621 66.7894 189.563 66.512C189.511 66.3078 189.593 66.1158 189.678 65.9574C189.87 65.616 190.119 65.3295 190.374 65.0522C190.742 64.6773 191.046 64.3086 191.548 64.0739C192.244 63.7569 192.757 64.3055 192.803 64.9821C192.812 65.0888 192.736 65.1528 192.657 65.1619C192.715 65.3692 192.751 65.6008 192.794 65.7653C192.885 66.4175 193.405 66.4907 193.903 66.1615C194.274 65.9238 194.572 65.5612 194.806 65.1741C194.854 65.0949 194.958 65.0674 195.037 65.1162V65.1223ZM191.915 64.7749C192.067 64.6865 192.186 64.6621 192.286 64.6773C192.028 64.3543 191.712 64.595 191.347 64.9912C191.156 65.2076 190.958 65.4271 190.773 65.6556C190.821 65.6191 190.873 65.5794 190.922 65.5429C191.21 65.3295 191.614 64.9669 191.915 64.7718V64.7749ZM192.192 65.1071C192.192 65.1071 192.201 65.1131 192.204 65.1131C192.201 65.1071 192.195 65.104 192.192 65.101C192.183 65.0949 192.18 65.0979 192.192 65.1071Z" fill="#2083C6"/>
<path d="M111.508 56.0037C111.444 55.9763 111.374 55.9793 111.314 56.0037C111.25 56.0311 111.201 56.083 111.18 56.1439C111.174 56.1591 111.143 56.2049 111.089 56.2628C110.757 56.5919 110.341 56.8753 109.736 57.1862C109.463 57.3203 109.168 57.4513 108.873 57.5032C108.776 57.5275 108.669 57.5123 108.59 57.4605C108.514 57.4117 108.466 57.3325 108.448 57.238C108.393 56.9607 108.636 56.5066 108.946 56.1561C109.159 55.9123 109.165 55.5466 108.934 55.318C108.934 55.318 108.934 55.318 108.931 55.3149C108.922 55.3241 108.91 55.3302 108.9 55.3393L108.849 55.382C108.411 55.7812 108.107 56.2292 107.937 56.7199C107.828 57.0277 107.867 57.3843 108.04 57.6494C108.116 57.7653 108.211 57.8597 108.326 57.9237C108.429 57.9816 108.545 58.0182 108.673 58.0304C109.116 58.0395 109.52 57.8415 109.876 57.6677L109.961 57.6251C110.438 57.3691 110.985 57.0491 111.438 56.6193L111.466 56.5889C111.548 56.5005 111.684 56.3572 111.66 56.1988C111.651 56.1439 111.621 56.0708 111.508 56.0098V56.0037Z" fill="#2083C6"/>
<path d="M149.159 61.4011H149.156C149.116 61.3829 149.071 61.3829 149.031 61.4011C148.992 61.4194 148.961 61.4529 148.946 61.4895C148.946 61.4895 148.934 61.5109 148.91 61.5352C148.752 61.6907 148.551 61.8278 148.262 61.9771C148.131 62.0411 147.989 62.1021 147.849 62.1295C147.812 62.1387 147.773 62.1326 147.742 62.1143C147.715 62.096 147.697 62.0655 147.691 62.029C147.67 61.9192 147.764 61.715 147.925 61.5352C148.043 61.4011 148.04 61.1969 147.919 61.0781L147.891 61.0476L147.821 61.1025C147.603 61.3006 147.451 61.5261 147.369 61.7699C147.311 61.9314 147.332 62.1173 147.423 62.2575C147.463 62.3185 147.515 62.3672 147.575 62.4038C147.63 62.4343 147.694 62.4556 147.761 62.4587C147.767 62.4587 147.77 62.4587 147.776 62.4587C147.995 62.4587 148.189 62.3642 148.366 62.2789L148.408 62.2575C148.642 62.1326 148.91 61.9741 149.137 61.7608L149.153 61.7455C149.195 61.6998 149.271 61.6175 149.256 61.523C149.247 61.4743 149.217 61.4347 149.165 61.4042L149.159 61.4011Z" fill="#2083C6"/>
<path d="M86.1849 61.1362H96.0656C95.0292 65.7534 93.5399 70.593 91.1267 75.8838L81.246 74.5093C83.641 69.9927 85.4099 65.5248 86.1849 61.1362ZM44.4069 1.9049H46.349V1.70985H44.641V1.45385C44.641 1.37156 44.647 1.30756 44.6592 1.25575C44.6714 1.20699 44.6957 1.16737 44.7382 1.13994C44.7777 1.11251 44.8415 1.09423 44.9236 1.08508C45.0087 1.07594 45.1212 1.06985 45.2671 1.06985H45.7989C45.963 1.06985 46.0907 1.05156 46.1788 1.01804C46.27 0.984512 46.3308 0.929654 46.3673 0.850415C46.4037 0.771176 46.422 0.664508 46.422 0.527363C46.422 0.420695 46.4098 0.332313 46.3855 0.265264C46.3612 0.195168 46.3186 0.143358 46.2579 0.103738C46.1971 0.0641188 46.112 0.0366899 45.9995 0.0214516C45.8871 0.00621329 45.7442 -0.00292969 45.5679 -0.00292969H45.2792C45.0968 -0.00292969 44.9479 0.00621329 44.8355 0.0214516C44.72 0.0366899 44.6318 0.0641188 44.5711 0.103738C44.5072 0.143358 44.4647 0.195168 44.4404 0.265264C44.416 0.33536 44.4039 0.420695 44.4039 0.527363H44.6379C44.6379 0.448124 44.644 0.387171 44.6592 0.344503C44.6744 0.301836 44.7048 0.268312 44.7473 0.246978C44.7899 0.225645 44.8567 0.213454 44.9449 0.207359C45.033 0.201263 45.1485 0.198216 45.2914 0.198216H45.5558C45.6926 0.198216 45.805 0.198216 45.8871 0.207359C45.9691 0.213454 46.033 0.225645 46.0755 0.246978C46.118 0.268312 46.1484 0.298789 46.1606 0.344503C46.1758 0.390218 46.1819 0.451172 46.1819 0.527363C46.1819 0.603554 46.1788 0.66146 46.1697 0.707175C46.1606 0.75289 46.1424 0.786414 46.1089 0.810795C46.0755 0.835177 46.0238 0.850415 45.9539 0.859558C45.884 0.868701 45.7837 0.871748 45.6591 0.871748H45.2245C45.0482 0.871748 44.9023 0.883939 44.7929 0.902225C44.6835 0.923559 44.6014 0.954035 44.5437 0.99975C44.486 1.04546 44.4464 1.10337 44.4282 1.17651C44.4069 1.24966 44.3978 1.34109 44.3978 1.4508V1.90186L44.4069 1.9049ZM47.1301 1.48433C47.1575 1.60928 47.2031 1.70376 47.2669 1.77081C47.3307 1.83786 47.4249 1.88357 47.5404 1.90795C47.659 1.93233 47.8079 1.94452 47.9872 1.94452H48.2364C48.4188 1.94452 48.5677 1.93233 48.6832 1.90795C48.8017 1.88357 48.8929 1.83786 48.9567 1.77081C49.0206 1.70376 49.0692 1.60928 49.0935 1.48433C49.1209 1.35937 49.133 1.19785 49.133 0.996702V0.94794C49.133 0.783366 49.1239 0.643174 49.1087 0.530411C49.0935 0.417647 49.0662 0.326217 49.0236 0.256121C48.9841 0.186025 48.9294 0.131167 48.8625 0.0945954C48.7957 0.0580235 48.7075 0.0305946 48.6042 0.0184039C48.5008 0.00621329 48.3762 -0.00292969 48.2304 -0.00292969H47.9811C47.8352 -0.00292969 47.7106 0.00316563 47.6073 0.0184039C47.504 0.0336422 47.4189 0.0580235 47.349 0.0945954C47.2821 0.131167 47.2274 0.186025 47.1879 0.256121C47.1484 0.326217 47.121 0.417647 47.1058 0.530411C47.0906 0.643174 47.0815 0.780319 47.0815 0.94794V0.996702C47.0815 1.19785 47.0937 1.35937 47.121 1.48433H47.1301ZM48.9081 0.996702C48.9081 1.13385 48.902 1.24966 48.8929 1.33804C48.8838 1.42947 48.8656 1.50261 48.8382 1.55442C48.8109 1.60928 48.7744 1.6489 48.7258 1.67633C48.6771 1.70376 48.6103 1.719 48.5312 1.72814C48.4522 1.73728 48.355 1.74033 48.2395 1.74033H47.9902C47.8748 1.74033 47.7775 1.73728 47.6985 1.72814C47.6195 1.719 47.5556 1.70376 47.504 1.67633C47.4553 1.6489 47.4158 1.60928 47.3915 1.55442C47.3642 1.49957 47.3459 1.42642 47.3368 1.33804C47.3277 1.24661 47.3216 1.13385 47.3216 0.996702V0.94794C47.3216 0.8047 47.3277 0.688889 47.3368 0.594411C47.3459 0.502982 47.3642 0.429838 47.3915 0.37498C47.4189 0.320122 47.4553 0.28355 47.504 0.259169C47.5526 0.234788 47.6195 0.219549 47.6985 0.210406C47.7775 0.204311 47.8748 0.201263 47.9902 0.201263H48.2395C48.355 0.201263 48.4522 0.204311 48.5312 0.210406C48.6103 0.216502 48.6741 0.23174 48.7258 0.259169C48.7774 0.286598 48.8139 0.32317 48.8382 0.37498C48.8656 0.429838 48.8838 0.499934 48.8929 0.594411C48.902 0.685841 48.9081 0.8047 48.9081 0.94794V0.996702ZM49.8685 1.9049H51.8106V1.70985H50.1025V1.45385C50.1025 1.37156 50.1086 1.30756 50.1208 1.25575C50.1329 1.20699 50.1573 1.16737 50.1998 1.13994C50.2393 1.11251 50.3031 1.09423 50.3852 1.08508C50.4703 1.07594 50.5828 1.06985 50.7286 1.06985H51.2605C51.4246 1.06985 51.5523 1.05156 51.6404 1.01804C51.7316 0.984512 51.7924 0.929654 51.8289 0.850415C51.8653 0.771176 51.8836 0.664508 51.8836 0.527363C51.8836 0.420695 51.8714 0.332313 51.8471 0.265264C51.8228 0.195168 51.7802 0.143358 51.7194 0.103738C51.6587 0.0641188 51.5736 0.0366899 51.4611 0.0214516C51.3487 0.00621329 51.2058 -0.00292969 51.0295 -0.00292969H50.7408C50.5584 -0.00292969 50.4095 0.00621329 50.2971 0.0214516C50.1816 0.0366899 50.0934 0.0641188 50.0326 0.103738C49.9688 0.143358 49.9263 0.195168 49.902 0.265264C49.8776 0.33536 49.8655 0.420695 49.8655 0.527363H50.0995C50.0995 0.448124 50.1056 0.387171 50.1208 0.344503C50.136 0.301836 50.1664 0.268312 50.2089 0.246978C50.2515 0.225645 50.3183 0.213454 50.4065 0.207359C50.4946 0.201263 50.6101 0.198216 50.753 0.198216H51.0174C51.1541 0.198216 51.2666 0.198216 51.3486 0.207359C51.4307 0.213454 51.4945 0.225645 51.5371 0.246978C51.5796 0.268312 51.61 0.298789 51.6222 0.344503C51.6374 0.390218 51.6435 0.451172 51.6435 0.527363C51.6435 0.603554 51.6404 0.66146 51.6313 0.707175C51.6222 0.75289 51.6039 0.786414 51.5705 0.810795C51.5371 0.835177 51.4854 0.850415 51.4155 0.859558C51.3456 0.868701 51.2453 0.871748 51.1207 0.871748H50.6861C50.5098 0.871748 50.3639 0.883939 50.2545 0.902225C50.1451 0.923559 50.063 0.954035 50.0053 0.99975C49.9475 1.04546 49.908 1.10337 49.8898 1.17651C49.8685 1.24966 49.8594 1.34109 49.8594 1.4508V1.90186L49.8685 1.9049ZM54.4153 1.9049V1.5148H54.7253V1.31975H54.4153V0.0397375H54.1053L52.5552 1.28318V1.51785H54.1843V1.90795H54.4183L54.4153 1.9049ZM54.1843 0.195168V1.3228H52.7893L54.1843 0.195168ZM51.8775 3.64817L51.8866 3.61464C51.7529 3.65121 51.6252 3.67864 51.4945 3.70912C51.4155 3.72436 51.3365 3.73655 51.2544 3.75483C51.1876 3.77312 51.1207 3.78836 51.0508 3.8036C50.522 3.90722 50.0144 3.97122 49.5312 3.98646C49.4765 3.98646 49.4248 3.98646 49.3701 3.98646C49.3154 3.98646 49.2637 3.98646 49.209 3.98646C48.7258 3.97122 48.2182 3.90722 47.6894 3.8036C47.6225 3.78836 47.5526 3.77312 47.4857 3.75483C47.4037 3.73655 47.3277 3.72436 47.2456 3.70912C47.1149 3.67864 46.9873 3.65121 46.8536 3.61464L46.8627 3.64817C44.6896 3.39521 43.6258 4.76361 43.3341 7.25659C43.3645 8.36289 43.8264 9.79834 44.6227 11.4867L44.7109 15.8358C45.1242 19.5905 45.7655 22.1718 47.0876 21.1844C47.4037 16.936 48.0875 14.2053 49.367 13.8974C50.6466 14.2053 51.3335 16.939 51.6465 21.1844C52.9686 22.1718 53.6068 19.5905 54.0232 15.8358L54.1114 11.4867C54.9107 9.79529 55.3727 8.36289 55.4 7.25659C55.1082 4.76666 54.0445 3.39826 51.8714 3.65121L51.8775 3.64817ZM9.84727 30.6352L15.8863 28.255L42.8539 17.6643L41.2127 8.26232L17.33 17.5363L0.060791 24.2229V34.0242C27.6453 57.1803 50.3609 68.4353 69.8731 71.8517C47.9933 61.764 27.6179 48.7383 9.84727 30.6352ZM76.0975 15.662L76.0854 15.6133L57.257 8.34766L55.8012 18.0545L58.5001 19.0876V19.0937L88.513 30.6352V33.6585H98.3937V24.3174L76.0975 15.6651V15.662Z" fill="url(#paint1_radial_219_49)"/>
</g>
<defs>
<radialGradient id="paint0_radial_219_49" cx="0" cy="0" r="1" gradientUnits="userSpaceOnUse" gradientTransform="translate(43.3249 79.5439) scale(39.9909 40.1011)">
<stop offset="0.01" stop-color="#E6E7E8"/>
<stop offset="0.2" stop-color="#E1E2E3"/>
<stop offset="0.4" stop-color="#D4D5D7"/>
<stop offset="0.6" stop-color="#BEC0C1"/>
<stop offset="0.82" stop-color="#A0A2A4"/>
<stop offset="1" stop-color="#808285"/>
</radialGradient>
<radialGradient id="paint1_radial_219_49" cx="0" cy="0" r="1" gradientUnits="userSpaceOnUse" gradientTransform="translate(49.2272 32.1164) scale(59.9103 60.0755)">
<stop offset="0.03" stop-color="#6FAE4B"/>
<stop offset="0.49" stop-color="#6DAC4A"/>
<stop offset="0.66" stop-color="#66A648"/>
<stop offset="0.77" stop-color="#5A9C45"/>
<stop offset="0.87" stop-color="#498E41"/>
<stop offset="0.95" stop-color="#337B3B"/>
<stop offset="1" stop-color="#236D37"/>
</radialGradient>
<clipPath id="clip0_219_49">
<rect width="198" height="116" fill="white"/>
</clipPath>
</defs>
</svg>
