<svg width="286" height="71" viewBox="0 0 286 71" fill="none" xmlns="http://www.w3.org/2000/svg">
<path d="M8.19904 29.2885C23.5028 39.4295 39.2227 46.9931 55.7729 49.4765C49.0118 59.9993 40.9477 66.9147 31.5962 70.2539C11.9185 62.6609 -0.800782 40.6496 0.0392278 23.4033L6.3979 28.1115C8.3729 43.1271 15.892 55.4792 31.5943 63.8967C37.2165 61.1294 42.0475 57.4807 45.9331 52.7726C29.3497 46.905 17.7087 38.6187 8.19904 29.2885Z" fill="#07BCB3"/>
<path d="M44.9327 41.8854C32.3755 39.688 17.7535 32.4574 0 17.5769V11.2784L24.8994 1.65059C24.8701 1.79356 24.8506 1.93653 24.8389 2.07362L24.835 2.12454C24.7822 3.28787 24.8858 5.01133 25.6789 6.62511C25.6945 6.6584 25.8625 7.04422 25.9524 7.66506L6.30007 15.401C17.7379 27.0343 30.8518 35.4049 44.9347 41.8874L44.9327 41.8854ZM63.2898 11.3372L38.3572 1.67801C38.3826 1.82489 38.4002 1.96786 38.408 2.10887C38.4685 3.0411 38.4392 4.81548 37.6148 6.51739V7.98233L56.8823 15.3795C57.7536 27.8608 55.3 36.3978 51.4184 42.8529L57.777 43.7362C61.1175 39.0535 63.2703 30.2795 63.2898 17.3419V11.3392V11.3372ZM27.5758 8.45824C27.5758 9.59219 28.0173 12.0031 28.5838 13.0763C28.8358 13.5503 29.5722 13.468 29.7402 12.9529C30.2657 11.159 30.6232 6.66428 31.6312 6.68582C32.6197 6.66428 32.9967 11.159 33.5222 12.9529C33.6902 13.468 34.4248 13.5503 34.6768 13.0763C35.2238 12.0031 35.6652 9.59219 35.6652 8.45824C35.6652 6.93259 36.1478 5.96314 36.1478 5.96314C36.8413 4.60396 36.9038 3.11944 36.8413 2.19113C36.8198 1.65451 36.5248 0.9945 36.2533 0.68702C35.9798 0.377582 35.4758 0.0896862 35.1183 0.027015C34.7823 -0.0141129 34.0458 -0.0141129 33.5222 0.068143L31.6312 0.31491L29.7402 0.068143C29.1933 -0.0141129 28.4802 -0.0141129 28.1227 0.027015C27.7867 0.0896862 27.2827 0.377582 27.0092 0.68702C26.7357 0.996459 26.4427 1.65646 26.3997 2.19113C26.3568 3.11944 26.4212 4.60396 27.0932 5.96314C27.0932 5.96314 27.5758 6.93259 27.5758 8.45824Z" fill="#07BCB3"/>
<path d="M93.8772 30.7671C93.2853 30.3382 92.416 30.0288 91.2908 29.8467C90.1852 29.6704 88.7123 29.5803 86.9132 29.5803H74.3838V48.4515H77.0932V41.3366H86.8409C88.642 41.3366 90.1188 41.2367 91.2283 41.0389C92.3555 40.8392 93.2365 40.5141 93.842 40.0715C94.4593 39.6211 94.8832 39.0218 95.0981 38.2874C95.3071 37.5784 95.4126 36.707 95.4126 35.7003V35.2186C95.4126 34.163 95.3091 33.266 95.1059 32.5493C94.8949 31.807 94.4808 31.2078 93.8791 30.7691L93.8772 30.7671ZM92.7032 35.2166V35.6984C92.7032 36.3858 92.6348 36.9537 92.4961 37.3846C92.3672 37.79 92.1152 38.0935 91.7265 38.3148C91.3201 38.5439 90.697 38.7065 89.8746 38.7946C89.0327 38.8847 87.886 38.9317 86.4678 38.9317H77.0932V31.9852H86.4678C87.8821 31.9852 89.0307 32.0225 89.8785 32.0988C90.7009 32.1732 91.324 32.3201 91.7304 32.5375C92.1171 32.7451 92.3672 33.0447 92.4961 33.4521C92.6328 33.8869 92.7032 34.4803 92.7032 35.2186V35.2166Z" fill="#07BCB3"/>
<path d="M121.431 30.6849C120.841 30.2756 119.969 29.9857 118.844 29.8212C117.74 29.6606 116.267 29.5784 114.468 29.5784H101.938V48.4502H104.648V40.9865H115.517C115.646 40.9865 115.771 40.9845 115.894 40.9806L119.811 48.4522H122.573L118.545 40.7632C119.702 40.5791 120.6 40.2775 121.222 39.8662C121.905 39.4138 122.374 38.8126 122.616 38.0762C122.849 37.3653 122.968 36.5094 122.968 35.5302V35.0503C122.968 33.9947 122.864 33.1056 122.659 32.4084C122.446 31.6837 122.032 31.106 121.429 30.6869L121.431 30.6849ZM120.11 37.1263C120.018 37.5004 119.815 37.7824 119.487 37.988C119.143 38.2035 118.586 38.3582 117.832 38.4444C117.057 38.5345 115.978 38.5815 114.625 38.5815H104.65V31.9834H114.025C115.441 31.9834 116.59 32.0128 117.44 32.0735C118.266 32.1322 118.889 32.2615 119.295 32.4573C119.678 32.6414 119.926 32.9215 120.053 33.3093C120.19 33.7284 120.258 34.314 120.258 35.0484V35.5282C120.258 36.1804 120.208 36.719 120.108 37.1263H120.11Z" fill="#07BCB3"/>
<path d="M151.791 31.8464C151.381 31.1178 150.817 30.5538 150.111 30.1679C149.418 29.79 148.535 29.5295 147.492 29.3924C146.466 29.2592 145.214 29.1926 143.772 29.1926H138.941C137.5 29.1926 136.247 29.2592 135.222 29.3924C134.179 29.5275 133.298 29.788 132.602 30.1679C131.895 30.5538 131.33 31.1178 130.922 31.8464C130.52 32.5632 130.232 33.4993 130.07 34.6274C129.91 35.7418 129.828 37.1362 129.828 38.7735V39.2553C129.828 41.2392 129.961 42.8765 130.223 44.1162C130.488 45.3833 130.967 46.3723 131.645 47.0559C132.321 47.7394 133.27 48.2133 134.464 48.464C135.63 48.7108 137.138 48.8341 138.941 48.8341H143.772C145.577 48.8341 147.083 48.7088 148.25 48.464C149.443 48.2133 150.391 47.7394 151.069 47.0559C151.745 46.3743 152.223 45.3853 152.491 44.1162C152.753 42.8745 152.885 41.2392 152.885 39.2553V38.7735C152.885 37.1381 152.803 35.7437 152.643 34.6274C152.479 33.4973 152.194 32.5612 151.791 31.8464ZM150.174 38.7735V39.2553C150.174 40.6046 150.127 41.7386 150.031 42.6238C149.938 43.4934 149.766 44.1945 149.518 44.7076C149.277 45.2031 148.928 45.5772 148.478 45.8181C148.011 46.0688 147.394 46.2353 146.642 46.3116C145.87 46.39 144.905 46.4311 143.772 46.4311H138.941C137.808 46.4311 136.843 46.3919 136.073 46.3116C135.321 46.2353 134.702 46.0688 134.237 45.8181C133.786 45.5752 133.436 45.2012 133.198 44.7076C132.95 44.1945 132.776 43.4934 132.684 42.6238C132.59 41.7366 132.542 40.6046 132.542 39.2553V38.7735C132.542 37.3771 132.59 36.2118 132.684 35.3089C132.778 34.4237 132.95 33.7187 133.198 33.2134C133.436 32.7296 133.784 32.3693 134.233 32.146C134.7 31.9149 135.317 31.7641 136.073 31.6975C136.851 31.6309 137.816 31.5957 138.945 31.5957H143.776C144.905 31.5957 145.872 31.629 146.648 31.6975C147.402 31.7641 148.021 31.9149 148.486 32.146C148.941 32.3732 149.279 32.7218 149.521 33.2134C149.77 33.7187 149.941 34.4237 150.035 35.3089C150.129 36.2098 150.178 37.3751 150.178 38.7735H150.174Z" fill="#07BCB3"/>
<path d="M158.822 31.9109H168.029V48.4502H170.739V31.9109H179.948V29.5803H158.822V31.9109Z" fill="#07BCB3"/>
<path d="M189.362 39.9892H204.479V37.6568H189.362V31.9108H205.14V29.5803H186.652V48.4495H205.476V46.119H189.362V39.9892Z" fill="#07BCB3"/>
<path d="M233.396 29.5803H229.227L217.322 37.6571H214.531V29.5803H211.821V48.4502H214.531V39.9896H217.332L229.61 48.4502H233.773L220.055 38.8243L233.396 29.5803Z" fill="#07BCB3"/>
<path d="M238.5 31.9109H247.707V48.4502H250.416V31.9109H259.625V29.5803H238.5V31.9109Z" fill="#07BCB3"/>
<path d="M275.019 29.5803H271.716L260.735 48.4522H263.898L266.199 44.2219H280.536L282.837 48.4522H286L275.019 29.5803ZM279.155 41.8893H267.58L273.369 31.7366L279.155 41.8893Z" fill="#07BCB3"/>
<path d="M82.5492 24.5998C82.5492 24.3139 82.5257 24.0867 82.4808 23.9242C82.4359 23.7597 82.3343 23.6383 82.178 23.5599C82.0198 23.4816 81.7756 23.4287 81.4455 23.4052C81.1154 23.3817 80.6622 23.3641 80.0859 23.3543L77.4058 23.3151C76.7435 23.3053 76.2122 23.2662 75.8098 23.1937C75.4074 23.1232 75.1046 23.0116 74.8995 22.8588C74.6944 22.7061 74.5557 22.5004 74.4873 22.2419C74.419 21.9834 74.3838 21.6622 74.3838 21.2764C74.3838 20.8554 74.4307 20.5068 74.5264 20.2326C74.6221 19.9584 74.794 19.745 75.0421 19.5902C75.2902 19.4355 75.6438 19.3278 76.1009 19.2632C76.558 19.2005 77.146 19.1692 77.8707 19.1692H79.9335C80.5899 19.1692 81.1349 19.1907 81.5725 19.2319C82.01 19.273 82.3558 19.3709 82.6136 19.5217C82.8715 19.6725 83.0551 19.9075 83.1645 20.2267C83.2759 20.5459 83.3306 20.9846 83.3306 21.5408H82.4046C82.4046 21.11 82.3636 20.7829 82.2816 20.5616C82.1995 20.3403 82.0647 20.1895 81.8772 20.1092C81.6897 20.0289 81.4357 19.9858 81.1173 19.978C80.7989 19.9721 80.4043 19.9682 79.9316 19.9682H77.9176C77.3433 19.9682 76.8822 19.98 76.5365 20.0015C76.1907 20.025 75.9309 20.0759 75.7532 20.1562C75.5773 20.2365 75.4582 20.3658 75.3996 20.542C75.339 20.7183 75.3097 20.9631 75.3097 21.2725C75.3097 21.533 75.3312 21.7425 75.3722 21.9012C75.4133 22.0598 75.509 22.1793 75.6535 22.2615C75.8 22.3438 76.0247 22.4006 76.3314 22.4299C76.6361 22.4613 77.0522 22.4789 77.5796 22.4848L80.4531 22.5239C81.1271 22.5337 81.6662 22.5729 82.0706 22.6434C82.473 22.7119 82.7758 22.8236 82.977 22.9783C83.1782 23.133 83.311 23.3406 83.3774 23.605C83.4439 23.8674 83.4771 24.1984 83.4771 24.5979C83.4771 25.0327 83.436 25.3969 83.354 25.6926C83.272 25.9884 83.1137 26.2234 82.8793 26.3996C82.6449 26.5778 82.305 26.7032 81.8616 26.7815C81.4181 26.8598 80.8341 26.8971 80.1113 26.8971H77.8551C77.1968 26.8971 76.6439 26.8677 76.1966 26.8109C75.7492 26.7541 75.3937 26.6366 75.1281 26.4603C74.8624 26.2841 74.6729 26.0236 74.5576 25.675C74.4424 25.3264 74.3838 24.8623 74.3838 24.2826H75.3097C75.3097 24.7369 75.3468 25.0875 75.4211 25.3362C75.4953 25.5849 75.6242 25.7631 75.8098 25.8708C75.9954 25.9786 76.2532 26.0432 76.5853 26.0647C76.9174 26.0863 77.3413 26.0961 77.8551 26.0961H80.0624C80.6368 26.0961 81.0919 26.0765 81.426 26.0412C81.76 26.004 82.0081 25.9335 82.1683 25.8278C82.3284 25.722 82.432 25.5732 82.4789 25.3754C82.5257 25.1795 82.5492 24.9191 82.5492 24.5979V24.5998Z" fill="#07BCB3"/>
<path d="M88.2242 26.7463V20.0975H84.5225V19.324H92.8519V20.0975H89.1502V26.7463H88.2242Z" fill="#07BCB3"/>
<path d="M97.5016 26.899C96.7788 26.899 96.1849 26.8501 95.7181 26.7521C95.2512 26.6542 94.8879 26.4721 94.6261 26.2077C94.3643 25.9433 94.1807 25.5634 94.0772 25.0679C93.9736 24.5724 93.9209 23.9262 93.9209 23.1291V22.9352C93.9209 22.2772 93.9522 21.7269 94.0166 21.2804C94.0811 20.8338 94.1924 20.4715 94.3487 20.1895C94.5069 19.9095 94.7199 19.696 94.9914 19.5472C95.2629 19.3983 95.6048 19.2985 96.015 19.2456C96.4272 19.1927 96.9214 19.1653 97.4996 19.1653H99.4433C100.021 19.1653 100.516 19.1927 100.928 19.2456C101.34 19.2985 101.68 19.4003 101.952 19.5472C102.223 19.696 102.438 19.9095 102.594 20.1895C102.752 20.4696 102.862 20.8338 102.926 21.2804C102.991 21.7269 103.022 22.2772 103.022 22.9352V23.1291C103.022 23.9242 102.969 24.5705 102.866 25.0679C102.762 25.5634 102.579 25.9433 102.317 26.2077C102.055 26.4721 101.692 26.6523 101.225 26.7521C100.758 26.8501 100.164 26.899 99.4413 26.899H97.4977H97.5016ZM97.5016 26.098H99.4452C99.9043 26.098 100.291 26.0824 100.608 26.0491C100.924 26.0158 101.178 25.9472 101.377 25.8415C101.574 25.7357 101.725 25.5751 101.83 25.3578C101.936 25.1404 102.006 24.8544 102.045 24.4921C102.084 24.1318 102.104 23.6774 102.104 23.1291V22.9352C102.104 22.3692 102.084 21.9012 102.045 21.533C102.006 21.1668 101.936 20.875 101.83 20.6635C101.725 20.452 101.574 20.2953 101.377 20.1974C101.18 20.0994 100.924 20.0368 100.608 20.0094C100.293 19.9819 99.9062 19.9682 99.4452 19.9682H97.5016C97.0425 19.9682 96.6557 19.9819 96.3393 20.0094C96.0248 20.0368 95.7689 20.0994 95.5696 20.1974C95.3723 20.2953 95.2199 20.452 95.1164 20.6635C95.0129 20.8769 94.9406 21.1668 94.9015 21.533C94.8625 21.9012 94.8429 22.3673 94.8429 22.9352V23.1291C94.8429 23.6774 94.8625 24.1318 94.9015 24.4921C94.9406 24.8525 95.0109 25.1423 95.1164 25.3578C95.2199 25.5732 95.3723 25.7338 95.5696 25.8415C95.7669 25.9472 96.0228 26.0177 96.3393 26.0491C96.6557 26.0804 97.0405 26.098 97.5016 26.098Z" fill="#07BCB3"/>
<path d="M104.589 26.7463V19.324H105.968L110.445 25.3794L114.856 19.324H116.235V26.7463H115.309V20.1641L110.889 26.2587H110.051L105.515 20.1641V26.7463H104.589Z" fill="#07BCB3"/>
<path d="M117.488 26.7463L121.807 19.324H123.042L127.361 26.7463H126.281L125.355 25.0445H119.493L118.567 26.7463H117.486H117.488ZM119.955 24.2729H124.892L122.425 19.9428L119.957 24.2729H119.955Z" fill="#07BCB3"/>
<path d="M131.825 26.7463V20.0975H128.123V19.324H136.453V20.0975H132.751V26.7463H131.825Z" fill="#07BCB3"/>
<path d="M141.104 26.899C140.381 26.899 139.787 26.8501 139.321 26.7521C138.854 26.6542 138.49 26.4721 138.229 26.2077C137.967 25.9433 137.783 25.5634 137.68 25.0679C137.576 24.5724 137.523 23.9262 137.523 23.1291V22.9352C137.523 22.2772 137.555 21.7269 137.619 21.2804C137.684 20.8338 137.795 20.4715 137.951 20.1895C138.109 19.9095 138.322 19.696 138.594 19.5472C138.865 19.3983 139.207 19.2985 139.618 19.2456C140.03 19.1927 140.524 19.1653 141.102 19.1653H143.046C143.624 19.1653 144.118 19.1927 144.53 19.2456C144.943 19.2985 145.283 19.4003 145.554 19.5472C145.826 19.696 146.04 19.9095 146.197 20.1895C146.355 20.4696 146.464 20.8338 146.529 21.2804C146.593 21.7269 146.625 22.2772 146.625 22.9352V23.1291C146.625 23.9242 146.572 24.5705 146.468 25.0679C146.365 25.5653 146.181 25.9433 145.919 26.2077C145.658 26.4721 145.294 26.6523 144.827 26.7521C144.36 26.8501 143.767 26.899 143.044 26.899H141.1H141.104ZM141.104 26.098H143.048C143.507 26.098 143.894 26.0824 144.21 26.0491C144.527 26.0158 144.78 25.9472 144.98 25.8415C145.177 25.7357 145.327 25.5751 145.433 25.3578C145.538 25.1404 145.609 24.8544 145.648 24.4921C145.687 24.1318 145.706 23.6774 145.706 23.1291V22.9352C145.706 22.3692 145.687 21.9012 145.648 21.533C145.609 21.1668 145.538 20.875 145.433 20.6635C145.327 20.452 145.177 20.2953 144.98 20.1974C144.782 20.0994 144.527 20.0368 144.21 20.0094C143.896 19.9819 143.509 19.9682 143.048 19.9682H141.104C140.645 19.9682 140.258 19.9819 139.942 20.0094C139.627 20.0368 139.371 20.0994 139.172 20.1974C138.975 20.2953 138.822 20.452 138.719 20.6635C138.615 20.8769 138.543 21.1668 138.504 21.533C138.465 21.9012 138.445 22.3673 138.445 22.9352V23.1291C138.445 23.6774 138.465 24.1318 138.504 24.4921C138.543 24.8525 138.613 25.1423 138.719 25.3578C138.822 25.5732 138.975 25.7338 139.172 25.8415C139.369 25.9472 139.625 26.0177 139.942 26.0491C140.258 26.0804 140.643 26.098 141.104 26.098Z" fill="#07BCB3"/>
<path d="M148.17 26.7463V19.324H149.096V25.9728H154.958V26.7463H148.172H148.17Z" fill="#07BCB3"/>
<path d="M159.464 26.899C158.742 26.899 158.148 26.8501 157.681 26.7521C157.214 26.6542 156.851 26.4721 156.589 26.2077C156.327 25.9433 156.144 25.5634 156.04 25.0679C155.937 24.5724 155.884 23.9262 155.884 23.1291V22.9352C155.884 22.2772 155.915 21.7269 155.98 21.2804C156.044 20.8338 156.155 20.4715 156.312 20.1895C156.47 19.9095 156.683 19.696 156.954 19.5472C157.226 19.3983 157.568 19.2985 157.978 19.2456C158.39 19.1927 158.884 19.1653 159.462 19.1653H161.406C161.984 19.1653 162.479 19.1927 162.891 19.2456C163.303 19.2985 163.643 19.4003 163.914 19.5472C164.186 19.696 164.401 19.9095 164.557 20.1895C164.715 20.4696 164.825 20.8338 164.889 21.2804C164.954 21.7269 164.985 22.2772 164.985 22.9352V23.1291C164.985 23.9242 164.932 24.5705 164.829 25.0679C164.725 25.5634 164.541 25.9433 164.28 26.2077C164.018 26.4721 163.655 26.6523 163.188 26.7521C162.721 26.8501 162.127 26.899 161.404 26.899H159.461H159.464ZM159.464 26.098H161.408C161.867 26.098 162.254 26.0824 162.57 26.0491C162.887 26.0158 163.141 25.9472 163.34 25.8415C163.537 25.7357 163.688 25.5751 163.793 25.3578C163.897 25.1423 163.969 24.8544 164.008 24.4921C164.047 24.1318 164.067 23.6774 164.067 23.1291V22.9352C164.067 22.3692 164.047 21.9012 164.008 21.533C163.969 21.1668 163.899 20.875 163.793 20.6635C163.69 20.45 163.537 20.2953 163.34 20.1974C163.143 20.0994 162.887 20.0368 162.57 20.0094C162.256 19.9819 161.869 19.9682 161.408 19.9682H159.464C159.005 19.9682 158.619 19.9819 158.302 20.0094C157.988 20.0368 157.732 20.0994 157.532 20.1974C157.335 20.2953 157.183 20.452 157.079 20.6635C156.976 20.8769 156.903 21.1668 156.864 21.533C156.825 21.9012 156.806 22.3673 156.806 22.9352V23.1291C156.806 23.6774 156.825 24.1318 156.864 24.4921C156.903 24.8525 156.974 25.1423 157.079 25.3578C157.183 25.5732 157.335 25.7338 157.532 25.8415C157.73 25.9472 157.986 26.0177 158.302 26.0491C158.619 26.0804 159.003 26.098 159.464 26.098Z" fill="#07BCB3"/>
<path d="M174.413 24.5998C174.413 24.3139 174.39 24.0867 174.345 23.9241C174.3 23.7596 174.199 23.6382 174.042 23.5599C173.884 23.4815 173.64 23.4287 173.31 23.4052C172.98 23.3817 172.526 23.364 171.95 23.3542L169.27 23.3151C168.608 23.3053 168.076 23.2661 167.674 23.1937C167.272 23.1232 166.969 23.0115 166.764 22.8588C166.559 22.706 166.42 22.5004 166.352 22.2419C166.283 21.9834 166.248 21.6622 166.248 21.2764C166.248 20.8553 166.295 20.5067 166.391 20.2325C166.486 19.9584 166.658 19.7449 166.906 19.5902C167.154 19.4355 167.508 19.3278 167.965 19.2631C168.422 19.2005 169.01 19.1691 169.735 19.1691H171.798C172.454 19.1691 172.999 19.1907 173.437 19.2318C173.874 19.2729 174.22 19.3708 174.478 19.5216C174.736 19.6724 174.919 19.9075 175.029 20.2267C175.14 20.5459 175.195 20.9846 175.195 21.5408H174.269C174.269 21.1099 174.228 20.7829 174.146 20.5616C174.064 20.3403 173.929 20.1895 173.741 20.1092C173.554 20.0289 173.3 19.9858 172.982 19.978C172.663 19.9721 172.269 19.9682 171.796 19.9682H169.782C169.208 19.9682 168.746 19.9799 168.401 20.0015C168.055 20.025 167.795 20.0759 167.617 20.1562C167.442 20.2365 167.322 20.3657 167.264 20.542C167.203 20.7182 167.174 20.963 167.174 21.2725C167.174 21.5329 167.195 21.7425 167.236 21.9011C167.278 22.0597 167.373 22.1792 167.518 22.2615C167.664 22.3437 167.889 22.4005 168.196 22.4299C168.5 22.4612 168.916 22.4788 169.444 22.4847L172.317 22.5239C172.991 22.5337 173.53 22.5728 173.935 22.6433C174.337 22.7119 174.64 22.8235 174.841 22.9782C175.042 23.1329 175.175 23.3405 175.242 23.6049C175.308 23.8673 175.341 24.1983 175.341 24.5978C175.341 25.0326 175.3 25.3969 175.218 25.6926C175.136 25.9883 174.978 26.2233 174.744 26.3996C174.509 26.5778 174.169 26.7031 173.726 26.7814C173.282 26.8598 172.698 26.897 171.976 26.897H169.719C169.061 26.897 168.508 26.8676 168.061 26.8108C167.613 26.754 167.258 26.6365 166.992 26.4603C166.727 26.284 166.537 26.0235 166.422 25.675C166.307 25.3264 166.248 24.8622 166.248 24.2825H167.174C167.174 24.7369 167.211 25.0874 167.285 25.3361C167.36 25.5849 167.488 25.7631 167.674 25.8708C167.86 25.9785 168.117 26.0431 168.45 26.0647C168.782 26.0862 169.206 26.096 169.719 26.096H171.927C172.501 26.096 172.956 26.0764 173.29 26.0412C173.624 26.004 173.872 25.9335 174.033 25.8277C174.193 25.722 174.296 25.5731 174.343 25.3753C174.39 25.1775 174.413 24.919 174.413 24.5978V24.5998ZM170.307 18.5307L168.764 16.2119L169.381 15.7478L170.77 17.9118L172.159 15.7478L172.776 16.2119L171.233 18.5307H170.307Z" fill="#07BCB3"/>
<path d="M176.857 26.7463V19.324H177.783V22.571H179.012L183.798 19.324H185.187L179.942 22.9588L185.341 26.7483H183.952L179.016 23.3465H177.781V26.7483H176.855L176.857 26.7463Z" fill="#07BCB3"/>
<path d="M185.956 26.7463L190.275 19.324H191.51L195.829 26.7463H194.748L193.823 25.0445H187.96L187.034 26.7463H185.954H185.956ZM188.423 24.2729H193.36L190.892 19.9428L188.425 24.2729H188.423Z" fill="#07BCB3"/>
<path d="M203.141 26.899C202.418 26.899 201.825 26.8501 201.358 26.7521C200.891 26.6542 200.528 26.4721 200.266 26.2077C200.004 25.9433 199.82 25.5634 199.717 25.0679C199.613 24.5724 199.561 23.9262 199.561 23.1291V22.9352C199.561 22.2772 199.592 21.7269 199.656 21.2804C199.721 20.8338 199.832 20.4715 199.988 20.1895C200.147 19.9095 200.36 19.696 200.631 19.5472C200.903 19.3983 201.244 19.2985 201.655 19.2456C202.067 19.1927 202.561 19.1653 203.139 19.1653H205.083C205.661 19.1653 206.155 19.1927 206.568 19.2456C206.98 19.2985 207.32 19.4003 207.591 19.5472C207.863 19.696 208.078 19.9095 208.234 20.1895C208.392 20.4696 208.501 20.8338 208.566 21.2804C208.63 21.7269 208.662 22.2772 208.662 22.9352V23.1291C208.662 23.9242 208.609 24.5705 208.505 25.0679C208.402 25.5653 208.218 25.9433 207.956 26.2077C207.695 26.4721 207.331 26.6523 206.864 26.7521C206.398 26.8501 205.804 26.899 205.081 26.899H203.137H203.141ZM203.141 26.098H205.085C205.544 26.098 205.931 26.0824 206.247 26.0491C206.564 26.0158 206.818 25.9472 207.017 25.8415C207.214 25.7357 207.365 25.5751 207.47 25.3578C207.576 25.1404 207.646 24.8544 207.685 24.4921C207.724 24.1318 207.744 23.6774 207.744 23.1291V22.9352C207.744 22.3692 207.724 21.9012 207.685 21.533C207.646 21.1668 207.576 20.875 207.47 20.6635C207.365 20.452 207.214 20.2953 207.017 20.1974C206.82 20.0994 206.564 20.0368 206.247 20.0094C205.933 19.9819 205.546 19.9682 205.085 19.9682H203.141C202.682 19.9682 202.295 19.9819 201.979 20.0094C201.664 20.0368 201.409 20.0994 201.209 20.1974C201.012 20.2953 200.86 20.452 200.756 20.6635C200.653 20.8769 200.58 21.1668 200.541 21.533C200.502 21.9012 200.483 22.3673 200.483 22.9352V23.1291C200.483 23.6774 200.502 24.1318 200.541 24.4921C200.58 24.8525 200.651 25.1423 200.756 25.3578C200.86 25.5732 201.012 25.7338 201.209 25.8415C201.407 25.9472 201.662 26.0177 201.979 26.0491C202.295 26.0804 202.68 26.098 203.141 26.098Z" fill="#07BCB3"/>
<path d="M210.227 19.322H215.182C215.905 19.322 216.487 19.3534 216.929 19.418C217.37 19.4826 217.706 19.5942 217.935 19.7509C218.163 19.9095 218.318 20.125 218.398 20.3991C218.478 20.6733 218.519 21.02 218.519 21.4391V21.6329C218.519 22.0187 218.474 22.3517 218.382 22.6298C218.29 22.9079 218.115 23.1331 217.855 23.3074C217.595 23.4797 217.208 23.6011 216.698 23.6716L218.308 26.7463H217.382L215.806 23.7402C215.741 23.7441 215.675 23.7441 215.606 23.7441H211.154V26.7444H210.229V19.322H210.227ZM211.152 22.9412H215.245C215.794 22.9412 216.228 22.9235 216.544 22.8863C216.86 22.8491 217.093 22.7845 217.243 22.6905C217.394 22.5965 217.488 22.4653 217.53 22.2949C217.572 22.1245 217.593 21.9032 217.593 21.6329V21.4391C217.593 21.1335 217.564 20.8907 217.507 20.7144C217.448 20.5382 217.333 20.407 217.159 20.3228C216.985 20.2386 216.728 20.1857 216.384 20.1602C216.04 20.1367 215.581 20.125 215.005 20.125H211.152V22.9412Z" fill="#07BCB3"/>
<path d="M220.287 26.7463V19.324H225.782C226.505 19.324 227.099 19.3671 227.566 19.4552C228.033 19.5414 228.396 19.7098 228.658 19.9605C228.919 20.2111 229.103 20.5734 229.207 21.0493C229.31 21.5272 229.363 22.1558 229.363 22.9392V23.1331C229.363 23.891 229.31 24.5059 229.207 24.9818C229.103 25.4577 228.919 25.822 228.658 26.0785C228.396 26.3351 228.033 26.5113 227.566 26.6053C227.099 26.7013 226.505 26.7483 225.782 26.7483H220.287V26.7463ZM221.213 25.9434H225.782C226.356 25.9434 226.819 25.916 227.171 25.8611C227.521 25.8063 227.788 25.6868 227.972 25.5027C228.156 25.3186 228.279 25.0386 228.343 24.6626C228.408 24.2846 228.439 23.7754 228.439 23.1311V22.9372C228.439 22.4026 228.419 21.9619 228.38 21.6133C228.341 21.2648 228.271 20.9906 228.165 20.7889C228.062 20.5871 227.909 20.4403 227.712 20.3443C227.515 20.2483 227.259 20.1896 226.942 20.1622C226.628 20.1367 226.241 20.123 225.78 20.123H221.211V25.9414L221.213 25.9434Z" fill="#07BCB3"/>
<path d="M230.907 26.7463V19.324H231.833V26.7463H230.907Z" fill="#07BCB3"/>
<path d="M233.685 26.7463V19.324H234.648L242.086 25.6007H242.096V19.324H243.022V26.7463H242.059L234.622 20.4148H234.612V26.7463H233.687H233.685Z" fill="#07BCB3"/>
<path d="M244.255 26.7463L248.574 19.324H249.809L254.128 26.7463H253.047L252.121 25.0445H246.259L245.333 26.7463H244.253H244.255ZM246.722 24.2729H251.658L249.191 19.9428L246.724 24.2729H246.722Z" fill="#07BCB3"/>
<path d="M255.052 23.131V22.9372C255.052 22.2791 255.083 21.7288 255.147 21.2823C255.212 20.8358 255.323 20.4735 255.48 20.1915C255.638 19.9114 255.851 19.698 256.122 19.5491C256.394 19.4003 256.736 19.3004 257.146 19.2475C257.558 19.1947 258.052 19.1672 258.63 19.1672H260.574C261.236 19.1672 261.795 19.1986 262.248 19.2612C262.703 19.3239 263.069 19.4473 263.348 19.6333C263.625 19.8194 263.829 20.0916 263.954 20.45C264.079 20.8084 264.141 21.2843 264.141 21.8777H263.215C263.215 21.4116 263.174 21.0473 263.09 20.7888C263.006 20.5303 262.866 20.3423 262.668 20.2267C262.471 20.1112 262.201 20.0387 261.861 20.0113C261.522 19.9839 261.092 19.9702 260.574 19.9702H258.63C258.171 19.9702 257.785 19.9839 257.468 20.0113C257.154 20.0387 256.898 20.1014 256.699 20.1993C256.501 20.2972 256.349 20.4539 256.245 20.6654C256.142 20.8789 256.07 21.1687 256.03 21.5349C255.991 21.9031 255.972 22.3692 255.972 22.9372V23.131C255.972 23.6794 255.991 24.1337 256.03 24.4941C256.07 24.8544 256.14 25.1443 256.245 25.3597C256.349 25.5751 256.501 25.7357 256.699 25.8434C256.896 25.9492 257.152 26.0197 257.468 26.051C257.785 26.0824 258.169 26.1 258.63 26.1H260.574C261.092 26.1 261.52 26.0882 261.861 26.0667C262.201 26.0452 262.471 25.9786 262.668 25.8689C262.866 25.7592 263.006 25.5771 263.09 25.3205C263.174 25.064 263.215 24.7036 263.215 24.2415H264.141C264.141 24.8349 264.079 25.3068 263.954 25.6613C263.829 26.0158 263.627 26.2821 263.348 26.4603C263.071 26.6385 262.703 26.758 262.248 26.8148C261.793 26.8736 261.234 26.901 260.574 26.901H258.63C257.908 26.901 257.314 26.852 256.847 26.7541C256.38 26.6562 256.017 26.474 255.755 26.2097C255.493 25.9453 255.31 25.5653 255.206 25.0699C255.103 24.5744 255.05 23.9281 255.05 23.131H255.052Z" fill="#07BCB3"/>
<path d="M265.701 26.7463V19.324H266.627V26.7463H265.701Z" fill="#07BCB3"/>
<path d="M270.328 26.7463C269.715 26.7463 269.235 26.6582 268.889 26.48C268.543 26.3037 268.328 25.9571 268.246 25.4401C268.195 25.1346 268.17 24.7448 268.17 24.2709V23.9615H269.096V24.2709C269.096 25.0053 269.186 25.4851 269.365 25.7103C269.465 25.8318 269.594 25.9101 269.754 25.9414C269.914 25.9728 270.106 25.9904 270.33 25.9904H272.489C273.046 25.9904 273.44 25.8905 273.677 25.6927C273.913 25.4949 274.03 25.1228 274.03 24.5784V19.3201H274.956V24.5784C274.956 25.3637 274.776 25.9179 274.417 26.2411C274.044 26.576 273.401 26.7444 272.489 26.7444H270.33L270.328 26.7463Z" fill="#07BCB3"/>
<path d="M276.127 26.7463L280.446 19.324H281.681L286 26.7463H284.919L283.993 25.0445H278.131L277.205 26.7463H276.125H276.127ZM278.594 24.2729H283.531L281.063 19.9428L278.596 24.2729H278.594Z" fill="#07BCB3"/>
</svg>
