<svg width="320" height="80" viewBox="0 0 320 80" fill="none" xmlns="http://www.w3.org/2000/svg">
<g clip-path="url(#clip0_78_106)">
<path d="M8.84807 35.8806C25.2195 46.7184 42.0443 54.8011 59.7462 57.4561C52.5112 68.7 43.8869 76.094 33.8792 79.6614C12.8276 71.5434 -0.777011 48.0194 0.117798 29.5934L6.92305 34.6267C9.03645 50.6744 17.0779 63.8728 33.8792 72.868C39.8956 69.9127 45.0643 66.0097 49.2204 60.9823C31.4773 54.7128 19.0206 45.853 8.84807 35.8865V35.8806Z" fill="white"/>
<path d="M52.4817 10.7552V10.7199L39.507 5.7337L38.5062 12.3977L40.3665 13.1041L43.6926 14.3816C43.6926 14.3874 43.6926 14.3933 43.6926 14.3992L60.9765 21.0161C61 21.3752 61.0236 21.7284 61.0412 22.0816V23.1118H61.0942C61.624 35.3271 58.6158 45.6057 54.6775 52.1342L61.4945 53.0761C65.0738 48.0723 67.8288 36.946 67.8524 23.1118V16.6951L52.4994 10.7493L52.4817 10.7552ZM30.8709 10.8788C31.1535 13.4573 31.595 15.2293 32.5075 14.5523C32.7253 11.6383 33.1962 9.76034 34.0793 9.54841C34.9623 9.76034 35.4332 11.6383 35.6511 14.5523C36.5635 15.2293 36.9992 13.4573 37.2876 10.8788L37.3465 7.89419C37.894 6.73447 38.2119 5.75136 38.2354 4.98606C38.0352 3.27298 37.2994 2.33696 35.8041 2.50768V2.48413C35.7158 2.50768 35.6275 2.52534 35.5392 2.54889C35.4862 2.56066 35.4332 2.56655 35.3744 2.57832C35.3273 2.5901 35.2802 2.60187 35.2331 2.61364C34.8681 2.68429 34.5208 2.72549 34.1852 2.73727C34.1499 2.73727 34.1146 2.73727 34.0734 2.73727C34.038 2.73727 34.0027 2.73727 33.9615 2.73727C33.6318 2.72549 33.2786 2.68429 32.9136 2.61364C32.8666 2.60187 32.8195 2.59598 32.7724 2.57832C32.7135 2.56655 32.6605 2.55477 32.6075 2.54889C32.5192 2.52534 32.4309 2.50768 32.3367 2.48413V2.50768C30.8473 2.33696 30.1115 3.27298 29.9113 4.98606C29.929 5.74547 30.2469 6.72858 30.8003 7.89419L30.8591 10.8788H30.8709ZM6.85824 21.0396L11.0203 19.4031L29.5934 12.1328L28.4632 5.67483L26.6853 6.3636V6.35182L0 16.6421V23.3767C19.0265 39.2831 34.6974 47.0185 48.1607 49.3674C48.1313 49.3556 48.1018 49.3438 48.0783 49.3262C48.1195 49.3321 48.1607 49.3379 48.196 49.3497C33.1256 42.4208 19.0971 33.4786 6.85824 21.0455V21.0396Z" fill="white"/>
<path d="M104.033 37.576C103.368 37.0933 102.391 36.746 101.125 36.5458C99.8831 36.3457 98.2289 36.2456 96.2038 36.2456H82.1223V57.4031H85.1658V49.4264H96.1214C98.1465 49.4264 99.8066 49.3145 101.055 49.0908C102.32 48.8671 103.309 48.5021 103.992 48.0076C104.687 47.5014 105.164 46.8302 105.405 46.0061C105.64 45.2114 105.758 44.2341 105.758 43.1038V42.5622C105.758 41.379 105.64 40.3723 105.411 39.5658C105.175 38.7299 104.71 38.0588 104.033 37.5702V37.576ZM102.715 42.5681V43.1097C102.715 43.8809 102.638 44.5167 102.485 44.9994C102.338 45.4527 102.055 45.7942 101.62 46.0414C101.161 46.3004 100.46 46.477 99.5358 46.5771C98.588 46.6772 97.2987 46.7302 95.7034 46.7302H85.1658V38.9418H95.7034C97.2929 38.9418 98.5821 38.983 99.5358 39.0713C100.46 39.1537 101.161 39.3186 101.62 39.5658C102.055 39.8013 102.338 40.1368 102.479 40.5901C102.632 41.0787 102.709 41.744 102.709 42.5681H102.715Z" fill="white"/>
<path d="M135.004 37.4819C134.339 37.0227 133.362 36.6989 132.096 36.5164C130.854 36.3339 129.2 36.2456 127.175 36.2456H113.093V57.4031H116.137V49.0319H128.352C128.499 49.0319 128.641 49.0319 128.776 49.0261L133.179 57.4031H136.288L131.761 48.7788C133.062 48.5728 134.074 48.2313 134.769 47.7722C135.54 47.2659 136.064 46.5889 136.335 45.7647C136.6 44.97 136.729 44.0104 136.729 42.9096V42.368C136.729 41.1847 136.611 40.1898 136.382 39.4069C136.14 38.5945 135.675 37.9469 134.998 37.476L135.004 37.4819ZM133.521 44.7051C133.421 45.123 133.191 45.4409 132.82 45.6705C132.432 45.9119 131.808 46.0826 130.96 46.1827C130.089 46.2828 128.876 46.3357 127.357 46.3357H116.143V38.9359H126.68C128.27 38.9359 129.565 38.9712 130.518 39.036C131.449 39.1007 132.149 39.2479 132.602 39.4657C133.032 39.6718 133.309 39.9838 133.456 40.4194C133.609 40.8904 133.686 41.5438 133.686 42.368V42.9096C133.686 43.6395 133.627 44.2459 133.515 44.6992L133.521 44.7051Z" fill="white"/>
<path d="M169.131 38.7887C168.672 37.9704 168.036 37.3405 167.241 36.9049C166.458 36.481 165.469 36.1867 164.298 36.0336C163.144 35.8865 161.737 35.8099 160.118 35.8099H154.684C153.065 35.8099 151.658 35.8865 150.505 36.0336C149.333 36.1867 148.338 36.4752 147.561 36.9049C146.766 37.3346 146.131 37.9704 145.671 38.7887C145.218 39.5893 144.894 40.6431 144.712 41.9088C144.529 43.1568 144.441 44.7227 144.441 46.5594V47.101C144.441 49.3263 144.588 51.163 144.883 52.5523C145.183 53.971 145.719 55.0836 146.478 55.8489C147.237 56.6142 148.303 57.1441 149.645 57.4266C150.958 57.7033 152.653 57.8446 154.678 57.8446H160.112C162.143 57.8446 163.832 57.7033 165.145 57.4266C166.487 57.1441 167.553 56.6142 168.312 55.8489C169.072 55.0836 169.608 53.9769 169.908 52.5523C170.202 51.1571 170.349 49.3263 170.349 47.101V46.5594C170.349 44.7227 170.255 43.1627 170.078 41.9088C169.896 40.6431 169.572 39.5893 169.119 38.7887H169.131ZM167.312 46.5535V47.0951C167.312 48.6081 167.259 49.8796 167.153 50.8686C167.047 51.8458 166.852 52.6288 166.576 53.2057C166.305 53.7591 165.916 54.1771 165.404 54.4537C164.88 54.7363 164.186 54.9188 163.338 55.0071C162.473 55.0954 161.384 55.1425 160.112 55.1425H154.678C153.407 55.1425 152.324 55.0954 151.452 55.0071C150.605 54.9188 149.91 54.7363 149.386 54.4537C148.88 54.1829 148.485 53.765 148.215 53.2057C147.938 52.6288 147.744 51.8458 147.638 50.8686C147.532 49.8737 147.479 48.6022 147.479 47.0951V46.5535C147.479 44.9876 147.532 43.6807 147.638 42.6682C147.744 41.6733 147.938 40.8844 148.215 40.3193C148.479 39.7777 148.874 39.3715 149.38 39.1243C149.904 38.8652 150.599 38.6945 151.446 38.6239C152.318 38.5473 153.407 38.512 154.672 38.512H160.106C161.378 38.512 162.461 38.5532 163.332 38.6239C164.18 38.7004 164.874 38.8652 165.398 39.1243C165.911 39.3774 166.287 39.7718 166.564 40.3193C166.841 40.8844 167.035 41.6792 167.141 42.6682C167.247 43.6807 167.3 44.9876 167.3 46.5535H167.312Z" fill="white"/>
<path d="M177.037 38.8594H187.386V57.4031H190.429V38.8594H200.784V36.2456H177.037V38.8594Z" fill="white"/>
<path d="M211.363 47.9193H228.359V45.2997H211.363V38.8594H229.1V36.2456H208.32V57.4031H229.477V54.7893H211.363V47.9193Z" fill="white"/>
<path d="M260.866 36.2456H256.18L242.793 45.2997H239.656V36.2456H236.612V57.4031H239.656V47.9193H242.811L256.61 57.4031H261.29L245.866 46.6124L260.866 36.2456Z" fill="white"/>
<path d="M266.6 38.8594H276.955V57.4031H279.999V38.8594H290.348V36.2456H266.6V38.8594Z" fill="white"/>
<path d="M307.655 36.2456H303.941L291.596 57.4031H295.152L297.742 52.6583H313.86L316.45 57.4031H320.006L307.661 36.2456H307.655ZM312.306 50.0445H299.296L305.801 38.6592L312.306 50.0445Z" fill="white"/>
<path d="M91.2999 30.659C91.2999 30.3352 91.2764 30.082 91.2234 29.8995C91.1704 29.717 91.0586 29.5816 90.882 29.4875C90.7054 29.3992 90.4287 29.3403 90.0578 29.3167C89.6869 29.2873 89.1748 29.2696 88.5272 29.2579L85.5131 29.2167C84.7714 29.2049 84.1709 29.1637 83.7176 29.0813C83.2643 28.9988 82.9229 28.8752 82.6933 28.7045C82.4637 28.5338 82.3048 28.3042 82.2282 28.0157C82.1517 27.7273 82.1105 27.3682 82.1105 26.9325C82.1105 26.4616 82.1635 26.0672 82.2694 25.7611C82.3754 25.4549 82.5697 25.2136 82.8464 25.0429C83.1289 24.8721 83.5234 24.7485 84.0355 24.6779C84.5477 24.6072 85.2129 24.5719 86.0253 24.5719H88.3447C89.0806 24.5719 89.6987 24.5954 90.1873 24.6425C90.6759 24.6896 91.0704 24.7956 91.3588 24.9663C91.6473 25.137 91.8533 25.402 91.9769 25.7552C92.1006 26.1143 92.1653 26.6029 92.1653 27.2269H91.1233C91.1233 26.7442 91.0762 26.3792 90.9879 26.1319C90.8938 25.8847 90.7466 25.714 90.5346 25.6257C90.3227 25.5373 90.0402 25.4844 89.681 25.4785C89.3219 25.4726 88.8804 25.4667 88.3506 25.4667H86.0842C85.4366 25.4667 84.9185 25.4785 84.53 25.502C84.1415 25.5256 83.8471 25.5844 83.647 25.6727C83.4468 25.7611 83.3173 25.9082 83.2467 26.1084C83.1819 26.3085 83.1466 26.5793 83.1466 26.9267C83.1466 27.221 83.1701 27.4565 83.2172 27.6331C83.2643 27.8097 83.3703 27.9451 83.5351 28.0393C83.7 28.1335 83.9531 28.1923 84.2945 28.2277C84.636 28.263 85.1069 28.2806 85.6956 28.2924L88.9275 28.3336C89.6869 28.3454 90.2933 28.3866 90.7466 28.469C91.1999 28.5456 91.5413 28.6692 91.765 28.8458C91.9887 29.0165 92.1418 29.252 92.2124 29.5463C92.2889 29.8407 92.3243 30.2115 92.3243 30.659C92.3243 31.1476 92.2772 31.5538 92.1889 31.8893C92.1006 32.2249 91.9181 32.4839 91.6532 32.684C91.3883 32.8842 91.0056 33.0255 90.5111 33.1138C90.0107 33.2021 89.3573 33.2433 88.5449 33.2433H86.0076C85.2659 33.2433 84.6477 33.208 84.1415 33.1432C83.6411 33.0785 83.2408 32.949 82.9406 32.7488C82.6403 32.5545 82.4284 32.2602 82.2989 31.8658C82.1694 31.4772 82.1046 30.9533 82.1046 30.3057H83.1466C83.1466 30.8179 83.1878 31.2064 83.2702 31.489C83.3526 31.7657 83.4998 31.9658 83.7059 32.0895C83.9119 32.2131 84.2062 32.2837 84.5771 32.3073C84.9539 32.3308 85.4248 32.3426 86.0076 32.3426H88.4919C89.1395 32.3426 89.6516 32.3191 90.0225 32.2778C90.3993 32.2366 90.6759 32.1542 90.8584 32.0424C91.0409 31.9305 91.1528 31.7539 91.2058 31.5361C91.2587 31.3183 91.2823 31.0239 91.2823 30.6648L91.2999 30.659Z" fill="white"/>
<path d="M97.6755 33.0667V25.6081H93.5134V24.7427H102.879V25.6081H98.7174V33.0667H97.6755Z" fill="white"/>
<path d="M108.107 33.2433C107.295 33.2433 106.624 33.1903 106.1 33.0785C105.576 32.9666 105.17 32.7665 104.875 32.4662C104.581 32.1719 104.375 31.7421 104.257 31.1888C104.139 30.6354 104.08 29.9054 104.08 29.0165V28.7987C104.08 28.0628 104.116 27.4447 104.186 26.9443C104.257 26.4439 104.381 26.0377 104.557 25.7198C104.734 25.4078 104.975 25.1665 105.281 25.0016C105.587 24.8368 105.97 24.725 106.435 24.6602C106.9 24.6013 107.454 24.5719 108.101 24.5719H110.285C110.933 24.5719 111.492 24.6013 111.951 24.6602C112.416 24.7191 112.799 24.8309 113.105 25.0016C113.411 25.1665 113.653 25.4078 113.829 25.7198C114.006 26.0318 114.129 26.4439 114.2 26.9443C114.271 27.4447 114.306 28.0628 114.306 28.7987V29.0165C114.306 29.9113 114.247 30.6354 114.129 31.1888C114.012 31.7421 113.806 32.1719 113.511 32.4662C113.217 32.7606 112.805 32.9666 112.287 33.0785C111.763 33.1903 111.092 33.2433 110.279 33.2433H108.095H108.107ZM108.107 32.3426H110.291C110.809 32.3426 111.245 32.3249 111.598 32.2896C111.951 32.2543 112.24 32.1778 112.463 32.0541C112.687 31.9364 112.858 31.7539 112.97 31.5126C113.082 31.2712 113.17 30.9474 113.211 30.5412C113.252 30.135 113.276 29.6287 113.276 29.0106V28.7928C113.276 28.157 113.252 27.6331 113.211 27.221C113.17 26.8089 113.087 26.4851 112.97 26.2438C112.852 26.0024 112.681 25.8317 112.463 25.7198C112.24 25.608 111.951 25.5374 111.598 25.5079C111.245 25.4785 110.809 25.4608 110.291 25.4608H108.107C107.589 25.4608 107.153 25.4785 106.8 25.5079C106.447 25.5374 106.159 25.608 105.935 25.7198C105.711 25.8317 105.54 26.0024 105.429 26.2438C105.311 26.4793 105.228 26.8089 105.187 27.221C105.146 27.6331 105.122 28.157 105.122 28.7928V29.0106C105.122 29.6229 105.146 30.135 105.187 30.5412C105.228 30.9474 105.311 31.2712 105.429 31.5126C105.546 31.7539 105.717 31.9364 105.935 32.0541C106.159 32.1719 106.447 32.2484 106.8 32.2896C107.153 32.3308 107.589 32.3426 108.107 32.3426Z" fill="white"/>
<path d="M116.072 33.0667V24.7427H117.62L122.654 31.5303L127.61 24.7427H129.159V33.0667H128.117V25.6846L123.148 32.5193H122.206L117.108 25.6846V33.0667H116.066H116.072Z" fill="white"/>
<path d="M130.571 33.0667L135.428 24.7427H136.817L141.674 33.0667H140.461L139.419 31.1594H132.832L131.79 33.0667H130.577H130.571ZM133.344 30.294H138.895L136.123 25.4373L133.35 30.294H133.344Z" fill="white"/>
<path d="M146.69 33.0667V25.6081H142.528V24.7427H151.894V25.6081H147.732V33.0667H146.69Z" fill="white"/>
<path d="M157.116 33.2433C156.303 33.2433 155.632 33.1903 155.108 33.0785C154.584 32.9666 154.178 32.7665 153.884 32.4662C153.589 32.1719 153.383 31.7421 153.265 31.1888C153.148 30.6354 153.089 29.9054 153.089 29.0165V28.7987C153.089 28.0628 153.124 27.4447 153.195 26.9443C153.265 26.4439 153.389 26.0377 153.566 25.7198C153.742 25.4078 153.984 25.1665 154.29 25.0016C154.596 24.8368 154.979 24.725 155.444 24.6602C155.909 24.6013 156.462 24.5719 157.11 24.5719H159.294C159.941 24.5719 160.5 24.6013 160.96 24.6602C161.425 24.7191 161.807 24.8309 162.113 25.0016C162.42 25.1665 162.661 25.4078 162.838 25.7198C163.014 26.0318 163.138 26.4439 163.208 26.9443C163.279 27.4447 163.314 28.0628 163.314 28.7987V29.0165C163.314 29.9113 163.256 30.6354 163.138 31.1888C163.02 31.7421 162.814 32.1719 162.52 32.4662C162.225 32.7606 161.813 32.9666 161.295 33.0785C160.771 33.1903 160.1 33.2433 159.288 33.2433H157.104H157.116ZM157.116 32.3426H159.3C159.818 32.3426 160.253 32.3249 160.606 32.2896C160.96 32.2543 161.248 32.1778 161.472 32.0541C161.696 31.9364 161.866 31.7539 161.978 31.5126C162.09 31.2712 162.178 30.9474 162.219 30.5412C162.261 30.135 162.284 29.6287 162.284 29.0106V28.7928C162.284 28.157 162.261 27.6331 162.219 27.221C162.178 26.8089 162.096 26.4851 161.978 26.2438C161.86 26.0024 161.69 25.8317 161.472 25.7198C161.248 25.608 160.96 25.5374 160.606 25.5079C160.253 25.4785 159.818 25.4608 159.3 25.4608H157.116C156.597 25.4608 156.162 25.4785 155.809 25.5079C155.455 25.5374 155.167 25.608 154.943 25.7198C154.72 25.8317 154.549 26.0024 154.437 26.2438C154.319 26.4793 154.237 26.8089 154.196 27.221C154.154 27.6331 154.131 28.157 154.131 28.7928V29.0106C154.131 29.6229 154.154 30.135 154.196 30.5412C154.237 30.9474 154.319 31.2712 154.437 31.5126C154.555 31.7539 154.725 31.9364 154.943 32.0541C155.167 32.1719 155.455 32.2484 155.809 32.2896C156.162 32.3308 156.597 32.3426 157.116 32.3426Z" fill="white"/>
<path d="M165.063 33.0667V24.7427H166.105V32.2014H172.692V33.0667H165.063Z" fill="white"/>
<path d="M177.755 33.2433C176.943 33.2433 176.271 33.1903 175.747 33.0785C175.224 32.9666 174.817 32.7665 174.523 32.4662C174.229 32.1719 174.023 31.7421 173.905 31.1888C173.787 30.6354 173.728 29.9054 173.728 29.0165V28.7987C173.728 28.0628 173.764 27.4447 173.834 26.9443C173.905 26.4439 174.029 26.0377 174.205 25.7198C174.382 25.4078 174.623 25.1665 174.929 25.0016C175.235 24.8368 175.618 24.725 176.083 24.6602C176.548 24.6013 177.101 24.5719 177.749 24.5719H179.933C180.581 24.5719 181.14 24.6013 181.599 24.6602C182.064 24.7191 182.447 24.8309 182.753 25.0016C183.059 25.1665 183.3 25.4078 183.477 25.7198C183.654 26.0318 183.777 26.4439 183.848 26.9443C183.918 27.4447 183.954 28.0628 183.954 28.7987V29.0165C183.954 29.9113 183.895 30.6354 183.777 31.1888C183.659 31.7421 183.453 32.1719 183.159 32.4662C182.865 32.7606 182.453 32.9666 181.935 33.0785C181.411 33.1903 180.74 33.2433 179.927 33.2433H177.743H177.755ZM177.755 32.3426H179.939C180.457 32.3426 180.893 32.3249 181.246 32.2896C181.599 32.2543 181.888 32.1778 182.111 32.0541C182.335 31.9364 182.506 31.7539 182.617 31.5126C182.729 31.2712 182.818 30.9474 182.859 30.5412C182.9 30.135 182.924 29.6287 182.924 29.0106V28.7928C182.924 28.157 182.9 27.6331 182.859 27.221C182.818 26.8089 182.735 26.4851 182.617 26.2438C182.5 26.0024 182.329 25.8317 182.111 25.7198C181.888 25.608 181.599 25.5374 181.246 25.5079C180.893 25.4785 180.457 25.4608 179.939 25.4608H177.755C177.237 25.4608 176.801 25.4785 176.448 25.5079C176.095 25.5374 175.806 25.608 175.583 25.7198C175.359 25.8317 175.188 26.0024 175.076 26.2438C174.959 26.4793 174.876 26.8089 174.835 27.221C174.794 27.6331 174.77 28.157 174.77 28.7928V29.0106C174.77 29.6229 174.794 30.135 174.835 30.5412C174.876 30.9474 174.959 31.2712 175.076 31.5126C175.194 31.7539 175.365 31.9364 175.583 32.0541C175.806 32.1719 176.095 32.2484 176.448 32.2896C176.801 32.3308 177.237 32.3426 177.755 32.3426Z" fill="white"/>
<path d="M194.562 30.659C194.562 30.3352 194.538 30.082 194.485 29.8995C194.433 29.717 194.321 29.5816 194.144 29.4875C193.967 29.3992 193.691 29.3403 193.32 29.3167C192.949 29.2873 192.437 29.2696 191.789 29.2579L188.775 29.2167C188.033 29.2049 187.433 29.1637 186.98 29.0813C186.526 28.9988 186.185 28.8752 185.955 28.7045C185.726 28.5338 185.567 28.3042 185.49 28.0157C185.414 27.7273 185.373 27.3682 185.373 26.9325C185.373 26.4616 185.426 26.0672 185.532 25.7611C185.637 25.4549 185.832 25.2136 186.108 25.0429C186.391 24.8721 186.785 24.7485 187.298 24.6779C187.81 24.6072 188.475 24.5719 189.287 24.5719H191.607C192.343 24.5719 192.961 24.5954 193.449 24.6425C193.938 24.6896 194.332 24.7956 194.621 24.9663C194.909 25.137 195.115 25.402 195.239 25.7552C195.363 26.1143 195.427 26.6029 195.427 27.2269H194.385C194.385 26.7442 194.338 26.3792 194.25 26.1319C194.156 25.8847 194.009 25.714 193.797 25.6257C193.585 25.5373 193.302 25.4844 192.943 25.4785C192.584 25.4726 192.143 25.4667 191.613 25.4667H189.346C188.699 25.4667 188.181 25.4785 187.792 25.502C187.404 25.5256 187.109 25.5844 186.909 25.6727C186.709 25.7611 186.579 25.9082 186.509 26.1084C186.444 26.3085 186.409 26.5793 186.409 26.9267C186.409 27.221 186.432 27.4565 186.479 27.6331C186.526 27.8097 186.632 27.9451 186.797 28.0393C186.962 28.1335 187.215 28.1923 187.557 28.2277C187.898 28.263 188.369 28.2806 188.958 28.2924L192.19 28.3336C192.949 28.3454 193.555 28.3866 194.009 28.469C194.462 28.5456 194.803 28.6692 195.027 28.8458C195.251 29.0165 195.404 29.252 195.474 29.5463C195.551 29.8407 195.586 30.2115 195.586 30.659C195.586 31.1476 195.539 31.5538 195.451 31.8893C195.363 32.2249 195.18 32.4839 194.915 32.684C194.65 32.8842 194.268 33.0255 193.773 33.1138C193.273 33.2021 192.619 33.2433 191.807 33.2433H189.27C188.528 33.2433 187.91 33.208 187.404 33.1432C186.903 33.0785 186.503 32.949 186.203 32.7488C185.902 32.5545 185.69 32.2602 185.561 31.8658C185.431 31.4772 185.367 30.9533 185.367 30.3057H186.409C186.409 30.8179 186.45 31.2064 186.532 31.489C186.615 31.7657 186.762 31.9658 186.968 32.0895C187.174 32.2131 187.468 32.2837 187.839 32.3073C188.216 32.3308 188.687 32.3426 189.27 32.3426H191.754C192.402 32.3426 192.914 32.3191 193.285 32.2779C193.661 32.2366 193.938 32.1542 194.121 32.0424C194.303 31.9305 194.415 31.7539 194.468 31.5361C194.521 31.3183 194.544 31.0239 194.544 30.6648L194.562 30.659ZM189.947 23.8537L188.21 21.2517L188.905 20.7336L190.465 23.159L192.025 20.7336L192.719 21.2517L190.983 23.8537H189.941H189.947Z" fill="white"/>
<path d="M197.311 33.0667V24.7427H198.353V28.3867H199.737L205.117 24.7427H206.677L200.784 28.8164L206.854 33.0667H205.294L199.742 29.252H198.353V33.0667H197.311Z" fill="white"/>
<path d="M207.537 33.0667L212.393 24.7427H213.783L218.639 33.0667H217.427L216.385 31.1594H209.797L208.755 33.0667H207.543H207.537ZM210.309 30.294H215.861L213.088 25.4373L210.315 30.294H210.309Z" fill="white"/>
<path d="M226.858 33.2433C226.045 33.2433 225.374 33.1903 224.85 33.0785C224.326 32.9666 223.92 32.7665 223.626 32.4662C223.331 32.1719 223.125 31.7421 223.008 31.1888C222.89 30.6354 222.831 29.9054 222.831 29.0165V28.7987C222.831 28.0628 222.866 27.4447 222.937 26.9443C223.008 26.4439 223.131 26.0377 223.308 25.7198C223.484 25.4078 223.726 25.1665 224.032 25.0016C224.338 24.8368 224.721 24.725 225.186 24.6602C225.651 24.6013 226.204 24.5719 226.852 24.5719H229.036C229.683 24.5719 230.243 24.6013 230.702 24.6602C231.167 24.7191 231.549 24.8309 231.856 25.0016C232.162 25.1665 232.403 25.4078 232.58 25.7198C232.756 26.0318 232.88 26.4439 232.951 26.9443C233.021 27.4447 233.056 28.0628 233.056 28.7987V29.0165C233.056 29.9113 232.998 30.6354 232.88 31.1888C232.762 31.7421 232.556 32.1719 232.262 32.4662C231.967 32.7606 231.555 32.9666 231.037 33.0785C230.513 33.1903 229.842 33.2433 229.03 33.2433H226.846H226.858ZM226.858 32.3426H229.042C229.56 32.3426 229.995 32.3249 230.349 32.2896C230.702 32.2543 230.99 32.1778 231.214 32.0541C231.438 31.9364 231.608 31.7539 231.72 31.5126C231.832 31.2712 231.92 30.9474 231.962 30.5412C232.003 30.135 232.026 29.6287 232.026 29.0106V28.7928C232.026 28.157 232.003 27.6331 231.962 27.221C231.92 26.8089 231.838 26.4851 231.72 26.2438C231.602 26.0024 231.432 25.8317 231.214 25.7198C230.99 25.608 230.702 25.5374 230.349 25.5079C229.995 25.4785 229.56 25.4608 229.042 25.4608H226.858C226.34 25.4608 225.904 25.4785 225.551 25.5079C225.197 25.5374 224.909 25.608 224.685 25.7198C224.462 25.8317 224.291 26.0024 224.179 26.2438C224.061 26.4793 223.979 26.8089 223.938 27.221C223.896 27.6331 223.873 28.157 223.873 28.7928V29.0106C223.873 29.6229 223.896 30.135 223.938 30.5412C223.979 30.9474 224.061 31.2712 224.179 31.5126C224.297 31.7539 224.468 31.9364 224.685 32.0541C224.909 32.1719 225.197 32.2484 225.551 32.2896C225.904 32.3308 226.34 32.3426 226.858 32.3426Z" fill="white"/>
<path d="M234.823 24.7426H240.392C241.204 24.7426 241.857 24.778 242.358 24.8486C242.852 24.9192 243.229 25.0429 243.488 25.2195C243.747 25.3961 243.918 25.6374 244.006 25.9436C244.094 26.2497 244.141 26.6382 244.141 27.1092V27.327C244.141 27.7626 244.089 28.1335 243.988 28.4455C243.888 28.7575 243.688 29.0106 243.394 29.2049C243.1 29.3992 242.67 29.5346 242.093 29.6111L243.9 33.0549H242.858L241.086 29.6817C241.016 29.6817 240.939 29.6817 240.862 29.6817H235.859V33.049H234.817V24.725L234.823 24.7426ZM235.865 28.7987H240.462C241.08 28.7987 241.569 28.7752 241.922 28.734C242.275 28.6927 242.54 28.6221 242.705 28.5161C242.876 28.4102 242.982 28.263 243.029 28.0746C243.076 27.8862 243.1 27.6331 243.1 27.3329V27.1151C243.1 26.7736 243.064 26.5028 242.999 26.3027C242.935 26.1025 242.805 25.9553 242.611 25.8611C242.417 25.767 242.122 25.7081 241.74 25.6787C241.351 25.6492 240.839 25.6374 240.191 25.6374H235.865V28.7987Z" fill="white"/>
<path d="M246.131 33.0667V24.7427H252.307C253.119 24.7427 253.79 24.7898 254.314 24.8898C254.838 24.9899 255.244 25.1783 255.538 25.455C255.833 25.7317 256.039 26.1438 256.157 26.6795C256.274 27.2152 256.333 27.9216 256.333 28.7987V29.0166C256.333 29.8643 256.274 30.5589 256.157 31.0888C256.039 31.6186 255.833 32.0307 255.538 32.3191C255.244 32.6076 254.832 32.8018 254.314 32.9078C253.79 33.0138 253.125 33.0667 252.307 33.0667H246.131ZM247.173 32.1661H252.312C252.96 32.1661 253.478 32.1366 253.872 32.0719C254.267 32.013 254.567 31.8776 254.773 31.6716C254.979 31.4655 255.121 31.1535 255.191 30.7297C255.262 30.3058 255.297 29.7348 255.297 29.0107V28.7929C255.297 28.1924 255.274 27.6979 255.232 27.3094C255.191 26.9208 255.109 26.6088 254.991 26.3851C254.873 26.1614 254.703 25.9907 254.479 25.8847C254.255 25.7788 253.967 25.7081 253.613 25.6787C253.26 25.6493 252.825 25.6375 252.307 25.6375H247.167V32.1602L247.173 32.1661Z" fill="white"/>
<path d="M258.07 33.0667V24.7427H259.112V33.0667H258.07Z" fill="white"/>
<path d="M261.19 33.0667V24.7427H262.273L270.633 31.7834H270.644V24.7427H271.686V33.0667H270.603L262.244 25.9672H262.232V33.0667H261.19Z" fill="white"/>
<path d="M273.07 33.0667L277.926 24.7427H279.316L284.172 33.0667H282.96L281.918 31.1594H275.33L274.288 33.0667H273.076H273.07ZM275.842 30.294H281.394L278.621 25.4373L275.848 30.294H275.842Z" fill="white"/>
<path d="M285.209 29.0165V28.7987C285.209 28.0628 285.244 27.4447 285.314 26.9443C285.385 26.4439 285.509 26.0377 285.685 25.7198C285.862 25.4078 286.103 25.1665 286.409 25.0016C286.716 24.8368 287.098 24.725 287.563 24.6602C288.028 24.6013 288.582 24.5719 289.229 24.5719H291.413C292.155 24.5719 292.785 24.6072 293.297 24.6779C293.809 24.7485 294.221 24.8898 294.533 25.0958C294.845 25.3019 295.075 25.608 295.21 26.0142C295.352 26.4145 295.422 26.9502 295.422 27.6154H294.38C294.38 27.0915 294.333 26.6853 294.239 26.391C294.145 26.1025 293.986 25.8906 293.762 25.7611C293.538 25.6315 293.238 25.5491 292.856 25.5197C292.473 25.4903 291.99 25.4726 291.407 25.4726H289.223C288.705 25.4726 288.27 25.4903 287.916 25.5197C287.563 25.5491 287.275 25.6198 287.051 25.7316C286.827 25.8435 286.657 26.0142 286.545 26.2556C286.427 26.491 286.345 26.8207 286.303 27.2328C286.262 27.6449 286.239 28.1688 286.239 28.8046V29.0224C286.239 29.6346 286.262 30.1468 286.303 30.553C286.345 30.9592 286.427 31.283 286.545 31.5243C286.663 31.7657 286.833 31.9482 287.051 32.0659C287.275 32.1837 287.563 32.2602 287.916 32.3014C288.27 32.3426 288.705 32.3544 289.223 32.3544H291.407C291.99 32.3544 292.473 32.3426 292.856 32.3191C293.238 32.2955 293.538 32.219 293.762 32.0954C293.986 31.9717 294.145 31.7657 294.239 31.4831C294.333 31.1947 294.38 30.7943 294.38 30.2704H295.422C295.422 30.9356 295.352 31.4655 295.21 31.8658C295.069 32.2661 294.845 32.5604 294.533 32.7606C294.221 32.9607 293.809 33.0961 293.297 33.1609C292.785 33.2256 292.161 33.261 291.413 33.261H289.229C288.417 33.261 287.746 33.208 287.222 33.0961C286.698 32.9843 286.292 32.7841 285.997 32.4839C285.703 32.1895 285.497 31.7598 285.379 31.2064C285.261 30.6531 285.203 29.9231 285.203 29.0342L285.209 29.0165Z" fill="white"/>
<path d="M297.182 33.0667V24.7427H298.224V33.0667H297.182Z" fill="white"/>
<path d="M302.381 33.0667C301.692 33.0667 301.15 32.9666 300.762 32.7664C300.373 32.5663 300.132 32.1777 300.038 31.6008C299.979 31.2594 299.949 30.8237 299.949 30.288V29.9407H300.991V30.288C300.991 31.1122 301.091 31.6479 301.297 31.901C301.409 32.0364 301.556 32.1248 301.733 32.1601C301.91 32.1954 302.127 32.2131 302.381 32.2131H304.806C305.43 32.2131 305.877 32.1012 306.142 31.8775C306.407 31.6538 306.543 31.2358 306.543 30.6295V24.7367H307.585V30.6295C307.585 31.5125 307.384 32.1306 306.978 32.4956C306.56 32.8724 305.836 33.0608 304.812 33.0608H302.386L302.381 33.0667Z" fill="white"/>
<path d="M308.903 33.0667L313.76 24.7427H315.149L320.006 33.0667H318.793L317.751 31.1594H311.164L310.122 33.0667H308.909H308.903ZM311.676 30.294H317.227L314.455 25.4373L311.682 30.294H311.676Z" fill="white"/>
</g>
<defs>
<clipPath id="clip0_78_106">
<rect width="320" height="79.6615" fill="white"/>
</clipPath>
</defs>
</svg>
