<svg width="176" height="43" viewBox="0 0 176 43" fill="none" xmlns="http://www.w3.org/2000/svg">
<path d="M4.86629 18.4462C13.8706 24.4323 23.1242 28.8967 32.8603 30.3631C28.881 36.5736 24.1376 40.6575 18.6334 42.628C7.05504 38.1441 -0.427502 25.1509 0.0646422 14.9735L3.80753 17.7536C4.9699 26.6173 9.39272 33.9073 18.6334 38.8757C21.9424 37.2434 24.7852 35.0876 27.0711 32.3108C17.3124 28.8479 10.4612 23.9543 4.86629 18.4494V18.4462Z" fill="white"/>
<path d="M28.8649 4.56843V4.54892L21.7288 1.79486L21.1784 5.47561L22.2016 5.8658L24.0309 6.57139C24.0309 6.57464 24.0309 6.57789 24.0309 6.58114L33.5371 10.2359C33.55 10.4342 33.563 10.6293 33.5727 10.8244V11.3934H33.6018C33.8932 18.1404 32.2387 23.8176 30.0726 27.4236L33.822 27.9438C35.7906 25.18 37.3059 19.0346 37.3188 11.3934V7.84925L28.8746 4.56518L28.8649 4.56843ZM16.979 4.63671C17.1344 6.06089 17.3772 7.03961 17.8791 6.66568C17.9989 5.05616 18.2579 4.01892 18.7436 3.90186C19.2293 4.01892 19.4883 5.05616 19.6081 6.66568C20.1099 7.03961 20.3495 6.06089 20.5082 4.63671L20.5406 2.98818C20.8417 2.34762 21.0165 1.80461 21.0295 1.38191C20.9194 0.435708 20.5147 -0.0812886 19.6923 0.0130064V0C19.6437 0.0130062 19.5951 0.0227609 19.5466 0.0357671C19.5174 0.0422702 19.4883 0.0455219 19.4559 0.052025C19.43 0.0585281 19.4041 0.0650311 19.3782 0.0715342C19.1775 0.110553 18.9864 0.133314 18.8019 0.139817C18.7824 0.139817 18.763 0.139817 18.7404 0.139817C18.7209 0.139817 18.7015 0.139817 18.6788 0.139817C18.4975 0.133314 18.3032 0.110553 18.1025 0.0715342C18.0766 0.0650311 18.0507 0.0617796 18.0248 0.052025C17.9924 0.0455219 17.9633 0.0390186 17.9341 0.0357671C17.8856 0.0227609 17.837 0.0130062 17.7852 0V0.0130064C16.966 -0.0812886 16.5613 0.435708 16.4512 1.38191C16.4609 1.80136 16.6358 2.34437 16.9401 2.98818L16.9725 4.63671H16.979ZM3.77203 10.2489L6.06115 9.34496L16.2764 5.32929L15.6547 1.76234L14.6769 2.14277V2.13627L0 7.81998V11.5398C10.4646 20.3254 19.0836 24.598 26.4884 25.8954C26.4722 25.8889 26.456 25.8823 26.4431 25.8726C26.4657 25.8758 26.4884 25.8791 26.5078 25.8856C18.2191 22.0585 10.5034 17.1194 3.77203 10.2521V10.2489Z" fill="white"/>
<path d="M57.2186 19.3827C56.8527 19.1161 56.3152 18.9242 55.6191 18.8137C54.9359 18.7031 54.0261 18.6478 52.9123 18.6478H45.1675V30.3339H46.8414V25.9281H52.867C53.9808 25.9281 54.8938 25.8663 55.5802 25.7427C56.2764 25.6192 56.8203 25.4176 57.1959 25.1444C57.5779 24.8648 57.8402 24.4941 57.973 24.0389C58.1025 23.5999 58.1672 23.0602 58.1672 22.4359V22.1367C58.1672 21.4832 58.1025 20.9272 57.9762 20.4817C57.8467 20.02 57.5909 19.6493 57.2186 19.3794V19.3827ZM56.4933 22.14V22.4391C56.4933 22.8651 56.4512 23.2163 56.367 23.4829C56.2861 23.7333 56.1306 23.9218 55.8911 24.0584C55.6385 24.2015 55.2532 24.299 54.7449 24.3543C54.2236 24.4096 53.5145 24.4388 52.6371 24.4388H46.8414V20.137H52.6371C53.5113 20.137 54.2204 20.1598 54.7449 20.2086C55.2532 20.2541 55.6385 20.3451 55.8911 20.4817C56.1306 20.6118 56.2861 20.7971 56.3638 21.0475C56.448 21.3174 56.49 21.6848 56.49 22.14H56.4933Z" fill="white"/>
<path d="M74.2525 19.3307C73.8866 19.077 73.3491 18.8982 72.653 18.7974C71.9698 18.6966 71.06 18.6478 69.9462 18.6478H62.2014V30.3339H63.8754V25.7102H70.5938C70.6747 25.7102 70.7524 25.7102 70.8269 25.7069L73.2488 30.3339H74.9583L72.4685 25.5704C73.184 25.4566 73.7409 25.268 74.123 25.0144C74.5471 24.7347 74.8353 24.3608 74.9842 23.9056C75.1299 23.4666 75.2012 22.9366 75.2012 22.3286V22.0294C75.2012 21.3759 75.1364 20.8264 75.0101 20.3939C74.8774 19.9452 74.6216 19.5875 74.2492 19.3274L74.2525 19.3307ZM73.4366 23.3203C73.3815 23.5512 73.2552 23.7268 73.0513 23.8536C72.8376 23.9869 72.4944 24.0812 72.0281 24.1364C71.5489 24.1917 70.8819 24.221 70.0466 24.221H63.8786V20.1338H69.6742C70.5484 20.1338 71.2608 20.1533 71.7853 20.1891C72.2969 20.2248 72.6822 20.3061 72.9315 20.4264C73.1678 20.5402 73.32 20.7126 73.4009 20.9532C73.4851 21.2133 73.5272 21.5742 73.5272 22.0294V22.3286C73.5272 22.7318 73.4948 23.0667 73.4333 23.3171L73.4366 23.3203Z" fill="white"/>
<path d="M93.0219 20.0525C92.7694 19.6005 92.4197 19.2526 91.9826 19.012C91.552 18.7779 91.008 18.6153 90.3637 18.5308C89.7291 18.4495 88.9553 18.4072 88.0649 18.4072H85.0764C84.186 18.4072 83.4122 18.4495 82.7776 18.5308C82.1332 18.6153 81.586 18.7747 81.1587 19.012C80.7216 19.2494 80.3719 19.6005 80.1193 20.0525C79.87 20.4947 79.6919 21.0768 79.5916 21.7758C79.4912 22.4652 79.4426 23.3301 79.4426 24.3446V24.6437C79.4426 25.8728 79.5236 26.8873 79.6855 27.6546C79.8506 28.4383 80.1452 29.0528 80.5629 29.4755C80.9806 29.8982 81.5666 30.1908 82.3048 30.3469C83.0269 30.4997 83.9593 30.5778 85.0732 30.5778H88.0616C89.1787 30.5778 90.1079 30.4997 90.8299 30.3469C91.5682 30.1908 92.1542 29.8982 92.5719 29.4755C92.9896 29.0528 93.2842 28.4415 93.4493 27.6546C93.6112 26.884 93.6922 25.8728 93.6922 24.6437V24.3446C93.6922 23.3301 93.6404 22.4684 93.5432 21.7758C93.4428 21.0768 93.2648 20.4947 93.0155 20.0525H93.0219ZM92.0215 24.3413V24.6405C92.0215 25.4761 91.9923 26.1784 91.934 26.7247C91.8758 27.2645 91.7689 27.6969 91.6167 28.0156C91.4678 28.3212 91.2541 28.5521 90.9724 28.7049C90.6842 28.861 90.3022 28.9618 89.8359 29.0105C89.36 29.0593 88.761 29.0853 88.0616 29.0853H85.0732C84.3738 29.0853 83.778 29.0593 83.2988 29.0105C82.8326 28.9618 82.4505 28.861 82.1624 28.7049C81.8839 28.5553 81.667 28.3245 81.5181 28.0156C81.3659 27.6969 81.259 27.2645 81.2007 26.7247C81.1425 26.1752 81.1133 25.4728 81.1133 24.6405V24.3413C81.1133 23.4764 81.1425 22.7546 81.2007 22.1953C81.259 21.6458 81.3659 21.2101 81.5181 20.8979C81.6638 20.5988 81.8807 20.3744 82.1591 20.2378C82.4473 20.0948 82.8294 20.0005 83.2956 19.9615C83.7748 19.9192 84.3738 19.8997 85.0699 19.8997H88.0584C88.7578 19.8997 89.3535 19.9224 89.8327 19.9615C90.299 20.0037 90.681 20.0948 90.9692 20.2378C91.2509 20.3777 91.4581 20.5955 91.6103 20.8979C91.7624 21.2101 91.8693 21.649 91.9276 22.1953C91.9858 22.7546 92.015 23.4764 92.015 24.3413H92.0215Z" fill="white"/>
<path d="M97.3701 20.0915H103.062V30.3339H104.736V20.0915H110.431V18.6478H97.3701V20.0915Z" fill="white"/>
<path d="M116.25 25.0957H125.597V23.6487H116.25V20.0915H126.005V18.6478H114.576V30.3339H126.213V28.8902H116.25V25.0957Z" fill="white"/>
<path d="M143.476 18.6478H140.899L133.536 23.6487H131.811V18.6478H130.137V30.3339H131.811V25.0957H133.546L141.136 30.3339H143.71L135.227 24.3738L143.476 18.6478Z" fill="white"/>
<path d="M146.63 20.0915H152.325V30.3339H153.999V20.0915H159.691V18.6478H146.63V20.0915Z" fill="white"/>
<path d="M169.211 18.6478H167.168L160.378 30.3339H162.334L163.758 27.7132H172.623L174.048 30.3339H176.004L169.214 18.6478H169.211ZM171.768 26.2695H164.613L168.191 19.981L171.768 26.2695Z" fill="white"/>
<path d="M50.2151 15.5621C50.2151 15.3832 50.2022 15.2434 50.1731 15.1426C50.1439 15.0418 50.0824 14.967 49.9853 14.915C49.8881 14.8662 49.736 14.8337 49.532 14.8207C49.328 14.8044 49.0463 14.7947 48.6901 14.7882L47.0324 14.7654C46.6244 14.7589 46.2942 14.7362 46.0449 14.6906C45.7956 14.6451 45.6078 14.5768 45.4815 14.4825C45.3552 14.3882 45.2678 14.2614 45.2257 14.1021C45.1836 13.9428 45.161 13.7444 45.161 13.5038C45.161 13.2437 45.1901 13.0258 45.2484 12.8568C45.3067 12.6877 45.4135 12.5544 45.5657 12.4601C45.7211 12.3658 45.938 12.2975 46.2197 12.2585C46.5014 12.2195 46.8673 12.2 47.3141 12.2H48.5898C48.9945 12.2 49.3345 12.213 49.6032 12.239C49.8719 12.265 50.0889 12.3235 50.2475 12.4178C50.4062 12.5121 50.5195 12.6584 50.5875 12.8535C50.6555 13.0519 50.6911 13.3217 50.6911 13.6664H50.118C50.118 13.3998 50.0921 13.1982 50.0435 13.0616C49.9917 12.925 49.9108 12.8308 49.7942 12.782C49.6777 12.7332 49.5223 12.7039 49.3248 12.7007C49.1272 12.6974 48.8844 12.6942 48.593 12.6942H47.3465C46.9903 12.6942 46.7054 12.7007 46.4917 12.7137C46.278 12.7267 46.1161 12.7592 46.006 12.808C45.8959 12.8568 45.8247 12.9381 45.7858 13.0486C45.7502 13.1592 45.7308 13.3087 45.7308 13.5006C45.7308 13.6631 45.7438 13.7932 45.7697 13.8908C45.7956 13.9883 45.8538 14.0631 45.9445 14.1151C46.0352 14.1671 46.1744 14.1997 46.3622 14.2192C46.55 14.2387 46.809 14.2484 47.1328 14.2549L48.9103 14.2777C49.328 14.2842 49.6615 14.307 49.9108 14.3525C50.1601 14.3947 50.3479 14.463 50.4709 14.5606C50.594 14.6549 50.6782 14.7849 50.717 14.9475C50.7591 15.1101 50.7785 15.3149 50.7785 15.5621C50.7785 15.8319 50.7526 16.0563 50.7041 16.2416C50.6555 16.427 50.5551 16.57 50.4094 16.6806C50.2637 16.7911 50.0533 16.8692 49.7813 16.918C49.5061 16.9667 49.1467 16.9895 48.6999 16.9895H47.3044C46.8964 16.9895 46.5564 16.97 46.278 16.9342C46.0028 16.8984 45.7826 16.8269 45.6175 16.7164C45.4524 16.6091 45.3358 16.4465 45.2646 16.2286C45.1933 16.014 45.1577 15.7246 45.1577 15.367H45.7308C45.7308 15.6498 45.7535 15.8645 45.7988 16.0205C45.8441 16.1733 45.9251 16.2839 46.0384 16.3522C46.1517 16.4205 46.3136 16.4595 46.5176 16.4725C46.7248 16.4855 46.9838 16.492 47.3044 16.492H48.6707C49.0269 16.492 49.3086 16.479 49.5125 16.4562C49.7198 16.4335 49.8719 16.3879 49.9723 16.3262C50.0727 16.2644 50.1342 16.1668 50.1633 16.0465C50.1925 15.9262 50.2054 15.7637 50.2054 15.5653L50.2151 15.5621Z" fill="white"/>
<path d="M53.7217 16.892V12.7723H51.4326V12.2943H56.5839V12.7723H54.2948V16.892H53.7217Z" fill="white"/>
<path d="M59.459 16.9895C59.0122 16.9895 58.6431 16.9602 58.3549 16.8984C58.0668 16.8367 57.8434 16.7261 57.6815 16.5603C57.5196 16.3977 57.4063 16.1603 57.3415 15.8547C57.2768 15.549 57.2444 15.1459 57.2444 14.6549V14.5346C57.2444 14.1281 57.2638 13.7867 57.3027 13.5103C57.3415 13.2339 57.4095 13.0096 57.5066 12.834C57.6038 12.6617 57.7365 12.5284 57.9049 12.4373C58.0733 12.3463 58.2837 12.2845 58.5395 12.2487C58.7953 12.2162 59.0996 12.2 59.4558 12.2H60.657C61.0132 12.2 61.3208 12.2162 61.5733 12.2487C61.8291 12.2812 62.0396 12.343 62.2079 12.4373C62.3763 12.5284 62.509 12.6617 62.6062 12.834C62.7033 13.0063 62.7713 13.2339 62.8102 13.5103C62.849 13.7867 62.8684 14.1281 62.8684 14.5346V14.6549C62.8684 15.1491 62.8361 15.549 62.7713 15.8547C62.7065 16.1603 62.5932 16.3977 62.4313 16.5603C62.2694 16.7229 62.0428 16.8367 61.7579 16.8984C61.4697 16.9602 61.1006 16.9895 60.6538 16.9895H59.4526H59.459ZM59.459 16.492H60.6603C60.9452 16.492 61.1848 16.4822 61.379 16.4627C61.5733 16.4432 61.732 16.401 61.855 16.3327C61.978 16.2676 62.0719 16.1668 62.1335 16.0335C62.195 15.9002 62.2435 15.7214 62.2662 15.497C62.2889 15.2727 62.3018 14.993 62.3018 14.6516V14.5313C62.3018 14.1801 62.2889 13.8908 62.2662 13.6631C62.2435 13.4355 62.1982 13.2567 62.1335 13.1234C62.0687 12.9901 61.9748 12.8958 61.855 12.834C61.732 12.7722 61.5733 12.7332 61.379 12.7169C61.1848 12.7007 60.9452 12.6909 60.6603 12.6909H59.459C59.1741 12.6909 58.9345 12.7007 58.7402 12.7169C58.546 12.7332 58.3873 12.7722 58.2643 12.834C58.1413 12.8958 58.0474 12.9901 57.9858 13.1234C57.9211 13.2535 57.8758 13.4355 57.8531 13.6631C57.8304 13.8908 57.8175 14.1801 57.8175 14.5313V14.6516C57.8175 14.9898 57.8304 15.2727 57.8531 15.497C57.8758 15.7214 57.9211 15.9002 57.9858 16.0335C58.0506 16.1668 58.1445 16.2676 58.2643 16.3327C58.3873 16.3977 58.546 16.44 58.7402 16.4627C58.9345 16.4855 59.1741 16.492 59.459 16.492Z" fill="white"/>
<path d="M63.8397 16.892V12.2943H64.6912L67.4595 16.0434L70.1857 12.2943H71.0373V16.892H70.4642V12.8146L67.7315 16.5896H67.2134L64.4095 12.8146V16.892H63.8364H63.8397Z" fill="white"/>
<path d="M71.8145 16.892L74.4856 12.2943H75.2498L77.9209 16.892H77.2539L76.6809 15.8385H73.0578L72.4847 16.892H71.8177H71.8145ZM73.3395 15.3605H76.3927L74.8677 12.678L73.3427 15.3605H73.3395Z" fill="white"/>
<path d="M80.6795 16.892V12.7723H78.3904V12.2943H83.5417V12.7723H81.2526V16.892H80.6795Z" fill="white"/>
<path d="M86.4136 16.9895C85.9668 16.9895 85.5977 16.9602 85.3095 16.8984C85.0214 16.8367 84.798 16.7261 84.6361 16.5603C84.4742 16.3977 84.3609 16.1603 84.2961 15.8547C84.2314 15.549 84.199 15.1459 84.199 14.6549V14.5346C84.199 14.1281 84.2184 13.7867 84.2573 13.5103C84.2961 13.2339 84.3641 13.0096 84.4612 12.834C84.5584 12.6617 84.6911 12.5284 84.8595 12.4373C85.0279 12.3463 85.2383 12.2845 85.4941 12.2487C85.7499 12.2162 86.0542 12.2 86.4104 12.2H87.6116C87.9678 12.2 88.2754 12.2162 88.5279 12.2487C88.7837 12.2812 88.9942 12.343 89.1625 12.4373C89.3309 12.5284 89.4636 12.6617 89.5608 12.834C89.6579 13.0063 89.7259 13.2339 89.7647 13.5103C89.8036 13.7867 89.823 14.1281 89.823 14.5346V14.6549C89.823 15.1491 89.7906 15.549 89.7259 15.8547C89.6611 16.1603 89.5478 16.3977 89.3859 16.5603C89.224 16.7229 88.9974 16.8367 88.7125 16.8984C88.4243 16.9602 88.0552 16.9895 87.6084 16.9895H86.4072H86.4136ZM86.4136 16.492H87.6149C87.8998 16.492 88.1394 16.4822 88.3336 16.4627C88.5279 16.4432 88.6866 16.401 88.8096 16.3327C88.9326 16.2676 89.0265 16.1668 89.088 16.0335C89.1496 15.9002 89.1981 15.7214 89.2208 15.497C89.2435 15.2727 89.2564 14.993 89.2564 14.6516V14.5313C89.2564 14.1801 89.2435 13.8908 89.2208 13.6631C89.1981 13.4355 89.1528 13.2567 89.088 13.1234C89.0233 12.9901 88.9294 12.8958 88.8096 12.834C88.6866 12.7722 88.5279 12.7332 88.3336 12.7169C88.1394 12.7007 87.8998 12.6909 87.6149 12.6909H86.4136C86.1287 12.6909 85.8891 12.7007 85.6948 12.7169C85.5006 12.7332 85.3419 12.7722 85.2189 12.834C85.0959 12.8958 85.002 12.9901 84.9404 13.1234C84.8757 13.2535 84.8303 13.4355 84.8077 13.6631C84.785 13.8908 84.7721 14.1801 84.7721 14.5313V14.6516C84.7721 14.9898 84.785 15.2727 84.8077 15.497C84.8303 15.7214 84.8757 15.9002 84.9404 16.0335C85.0052 16.1668 85.0991 16.2676 85.2189 16.3327C85.3419 16.3977 85.5006 16.44 85.6948 16.4627C85.8891 16.4855 86.1287 16.492 86.4136 16.492Z" fill="white"/>
<path d="M90.7847 16.892V12.2943H91.3578V16.414H94.9808V16.892H90.7847Z" fill="white"/>
<path d="M97.7654 16.9895C97.3186 16.9895 96.9495 16.9602 96.6614 16.8984C96.3732 16.8367 96.1498 16.7261 95.9879 16.5603C95.826 16.3977 95.7127 16.1603 95.6479 15.8547C95.5832 15.549 95.5508 15.1459 95.5508 14.6549V14.5346C95.5508 14.1281 95.5702 13.7867 95.6091 13.5103C95.6479 13.2339 95.7159 13.0096 95.8131 12.834C95.9102 12.6617 96.0429 12.5284 96.2113 12.4373C96.3797 12.3463 96.5901 12.2845 96.8459 12.2487C97.1017 12.2162 97.406 12.2 97.7622 12.2H98.9634C99.3196 12.2 99.6272 12.2162 99.8797 12.2487C100.136 12.2812 100.346 12.343 100.514 12.4373C100.683 12.5284 100.815 12.6617 100.913 12.834C101.01 13.0063 101.078 13.2339 101.117 13.5103C101.155 13.7867 101.175 14.1281 101.175 14.5346V14.6549C101.175 15.1491 101.142 15.549 101.078 15.8547C101.013 16.1603 100.9 16.3977 100.738 16.5603C100.576 16.7229 100.349 16.8367 100.064 16.8984C99.7761 16.9602 99.407 16.9895 98.9602 16.9895H97.759H97.7654ZM97.7654 16.492H98.9667C99.2516 16.492 99.4912 16.4822 99.6855 16.4627C99.8797 16.4432 100.038 16.401 100.161 16.3327C100.284 16.2676 100.378 16.1668 100.44 16.0335C100.501 15.9002 100.55 15.7214 100.573 15.497C100.595 15.2727 100.608 14.993 100.608 14.6516V14.5313C100.608 14.1801 100.595 13.8908 100.573 13.6631C100.55 13.4355 100.505 13.2567 100.44 13.1234C100.375 12.9901 100.281 12.8958 100.161 12.834C100.038 12.7722 99.8797 12.7332 99.6855 12.7169C99.4912 12.7007 99.2516 12.6909 98.9667 12.6909H97.7654C97.4805 12.6909 97.2409 12.7007 97.0467 12.7169C96.8524 12.7332 96.6937 12.7722 96.5707 12.834C96.4477 12.8958 96.3538 12.9901 96.2922 13.1234C96.2275 13.2535 96.1822 13.4355 96.1595 13.6631C96.1368 13.8908 96.1239 14.1801 96.1239 14.5313V14.6516C96.1239 14.9898 96.1368 15.2727 96.1595 15.497C96.1822 15.7214 96.2275 15.9002 96.2922 16.0335C96.357 16.1668 96.4509 16.2676 96.5707 16.3327C96.6937 16.3977 96.8524 16.44 97.0467 16.4627C97.2409 16.4855 97.4805 16.492 97.7654 16.492Z" fill="white"/>
<path d="M107.009 15.5621C107.009 15.3832 106.996 15.2434 106.967 15.1426C106.938 15.0418 106.877 14.967 106.779 14.915C106.682 14.8662 106.53 14.8337 106.326 14.8207C106.122 14.8045 105.84 14.7947 105.484 14.7882L103.827 14.7654C103.419 14.7589 103.088 14.7362 102.839 14.6907C102.59 14.6451 102.402 14.5769 102.276 14.4826C102.149 14.3883 102.062 14.2615 102.02 14.1021C101.978 13.9428 101.955 13.7445 101.955 13.5038C101.955 13.2437 101.984 13.0259 102.043 12.8568C102.101 12.6877 102.208 12.5544 102.36 12.4601C102.515 12.3658 102.732 12.2975 103.014 12.2585C103.296 12.2195 103.661 12.2 104.108 12.2H105.384C105.789 12.2 106.129 12.213 106.397 12.239C106.666 12.265 106.883 12.3235 107.042 12.4178C107.2 12.5121 107.314 12.6584 107.382 12.8535C107.45 13.0519 107.485 13.3218 107.485 13.6664H106.912C106.912 13.3998 106.886 13.1982 106.838 13.0616C106.786 12.9251 106.705 12.8308 106.588 12.782C106.472 12.7332 106.316 12.704 106.119 12.7007C105.921 12.6975 105.679 12.6942 105.387 12.6942H104.141C103.784 12.6942 103.5 12.7007 103.286 12.7137C103.072 12.7267 102.91 12.7592 102.8 12.808C102.69 12.8568 102.619 12.9381 102.58 13.0486C102.544 13.1592 102.525 13.3087 102.525 13.5006C102.525 13.6632 102.538 13.7932 102.564 13.8908C102.59 13.9883 102.648 14.0631 102.739 14.1151C102.829 14.1672 102.969 14.1997 103.156 14.2192C103.344 14.2387 103.603 14.2484 103.927 14.2549L105.705 14.2777C106.122 14.2842 106.456 14.307 106.705 14.3525C106.954 14.3948 107.142 14.463 107.265 14.5606C107.388 14.6549 107.472 14.785 107.511 14.9475C107.553 15.1101 107.573 15.315 107.573 15.5621C107.573 15.832 107.547 16.0563 107.498 16.2416C107.45 16.427 107.349 16.5701 107.204 16.6806C107.058 16.7912 106.847 16.8692 106.575 16.918C106.3 16.9667 105.941 16.9895 105.494 16.9895H104.099C103.691 16.9895 103.351 16.97 103.072 16.9342C102.797 16.8985 102.577 16.8269 102.412 16.7164C102.247 16.6091 102.13 16.4465 102.059 16.2286C101.988 16.014 101.952 15.7246 101.952 15.367H102.525C102.525 15.6499 102.548 15.8645 102.593 16.0205C102.638 16.1734 102.719 16.2839 102.833 16.3522C102.946 16.4205 103.108 16.4595 103.312 16.4725C103.519 16.4855 103.778 16.492 104.099 16.492H105.465C105.821 16.492 106.103 16.479 106.307 16.4562C106.514 16.4335 106.666 16.388 106.767 16.3262C106.867 16.2644 106.928 16.1669 106.958 16.0466C106.987 15.9262 107 15.7637 107 15.5653L107.009 15.5621ZM104.471 11.8033L103.516 10.3661L103.898 10.08L104.756 11.4196L105.614 10.08L105.996 10.3661L105.041 11.8033H104.468H104.471Z" fill="white"/>
<path d="M108.521 16.892V12.2943H109.094V14.307H109.855L112.815 12.2943H113.673L110.432 14.5444L113.77 16.892H112.912L109.858 14.785H109.094V16.892H108.521Z" fill="white"/>
<path d="M114.146 16.892L116.817 12.2943H117.581L120.252 16.892H119.585L119.012 15.8385H115.389L114.816 16.892H114.149H114.146ZM115.671 15.3605H118.724L117.199 12.678L115.674 15.3605H115.671Z" fill="white"/>
<path d="M124.772 16.9895C124.325 16.9895 123.956 16.9602 123.668 16.8984C123.38 16.8367 123.156 16.7261 122.994 16.5603C122.832 16.3977 122.719 16.1603 122.654 15.8547C122.59 15.549 122.557 15.1459 122.557 14.6549V14.5346C122.557 14.1281 122.577 13.7867 122.615 13.5103C122.654 13.2339 122.722 13.0096 122.819 12.834C122.917 12.6617 123.049 12.5284 123.218 12.4373C123.386 12.3463 123.596 12.2845 123.852 12.2487C124.108 12.2162 124.412 12.2 124.769 12.2H125.97C126.326 12.2 126.634 12.2162 126.886 12.2487C127.142 12.2812 127.352 12.343 127.521 12.4373C127.689 12.5284 127.822 12.6617 127.919 12.834C128.016 13.0063 128.084 13.2339 128.123 13.5103C128.162 13.7867 128.181 14.1281 128.181 14.5346V14.6549C128.181 15.1491 128.149 15.549 128.084 15.8547C128.019 16.1603 127.906 16.3977 127.744 16.5603C127.582 16.7229 127.356 16.8367 127.071 16.8984C126.782 16.9602 126.413 16.9895 125.967 16.9895H124.765H124.772ZM124.772 16.492H125.973C126.258 16.492 126.498 16.4822 126.692 16.4627C126.886 16.4432 127.045 16.401 127.168 16.3327C127.291 16.2676 127.385 16.1668 127.446 16.0335C127.508 15.9002 127.556 15.7214 127.579 15.497C127.602 15.2727 127.615 14.993 127.615 14.6516V14.5313C127.615 14.1801 127.602 13.8908 127.579 13.6631C127.556 13.4355 127.511 13.2567 127.446 13.1234C127.381 12.9901 127.288 12.8958 127.168 12.834C127.045 12.7722 126.886 12.7332 126.692 12.7169C126.498 12.7007 126.258 12.6909 125.973 12.6909H124.772C124.487 12.6909 124.247 12.7007 124.053 12.7169C123.859 12.7332 123.7 12.7722 123.577 12.834C123.454 12.8958 123.36 12.9901 123.299 13.1234C123.234 13.2535 123.189 13.4355 123.166 13.6631C123.143 13.8908 123.13 14.1801 123.13 14.5313V14.6516C123.13 14.9898 123.143 15.2727 123.166 15.497C123.189 15.7214 123.234 15.9002 123.299 16.0335C123.363 16.1668 123.457 16.2676 123.577 16.3327C123.7 16.3977 123.859 16.44 124.053 16.4627C124.247 16.4855 124.487 16.492 124.772 16.492Z" fill="white"/>
<path d="M129.153 12.2943H132.216C132.662 12.2943 133.022 12.3138 133.297 12.3528C133.569 12.3918 133.776 12.4601 133.919 12.5577C134.061 12.6552 134.155 12.7885 134.204 12.9576C134.252 13.1267 134.278 13.3413 134.278 13.6014V13.7217C134.278 13.9623 134.249 14.1672 134.194 14.3395C134.139 14.5119 134.029 14.6517 133.867 14.759C133.705 14.8663 133.469 14.9411 133.151 14.9833L134.145 16.8855H133.572L132.598 15.0224C132.559 15.0224 132.517 15.0224 132.475 15.0224H129.723V16.8822H129.149V12.2845L129.153 12.2943ZM129.726 14.5346H132.254C132.594 14.5346 132.863 14.5216 133.057 14.4989C133.252 14.4761 133.397 14.4371 133.488 14.3785C133.582 14.32 133.64 14.2387 133.666 14.1347C133.692 14.0306 133.705 13.8908 133.705 13.725V13.6047C133.705 13.4161 133.686 13.2665 133.65 13.156C133.614 13.0454 133.543 12.9641 133.436 12.9121C133.329 12.8601 133.168 12.8276 132.957 12.8113C132.743 12.795 132.462 12.7885 132.106 12.7885H129.726V14.5346Z" fill="white"/>
<path d="M135.372 16.892V12.2943H138.769C139.216 12.2943 139.585 12.3203 139.873 12.3756C140.161 12.4309 140.384 12.5349 140.546 12.6878C140.708 12.8406 140.822 13.0682 140.886 13.3641C140.951 13.66 140.983 14.0501 140.983 14.5346V14.6549C140.983 15.1232 140.951 15.5068 140.886 15.7995C140.822 16.0921 140.708 16.3197 140.546 16.4791C140.384 16.6384 140.158 16.7457 139.873 16.8042C139.585 16.8627 139.219 16.892 138.769 16.892H135.372ZM135.945 16.3945H138.772C139.128 16.3945 139.413 16.3783 139.63 16.3425C139.847 16.31 140.012 16.2352 140.125 16.1214C140.239 16.0076 140.316 15.8353 140.355 15.6011C140.394 15.367 140.414 15.0516 140.414 14.6517V14.5314C140.414 14.1997 140.401 13.9266 140.378 13.712C140.355 13.4974 140.31 13.3251 140.245 13.2015C140.18 13.0779 140.087 12.9836 139.964 12.9251C139.84 12.8666 139.682 12.8276 139.488 12.8113C139.293 12.7951 139.054 12.7885 138.769 12.7885H135.942V16.3913L135.945 16.3945Z" fill="white"/>
<path d="M141.939 16.892V12.2943H142.512V16.892H141.939Z" fill="white"/>
<path d="M143.655 16.892V12.2943H144.25L148.848 16.1832H148.854V12.2943H149.428V16.892H148.832L144.234 12.9706H144.228V16.892H143.655Z" fill="white"/>
<path d="M150.188 16.892L152.86 12.2943H153.624L156.295 16.892H155.628L155.055 15.8385H151.432L150.859 16.892H150.192H150.188ZM151.713 15.3605H154.767L153.242 12.678L151.717 15.3605H151.713Z" fill="white"/>
<path d="M156.865 14.6549V14.5346C156.865 14.1281 156.884 13.7867 156.923 13.5103C156.962 13.2339 157.03 13.0096 157.127 12.834C157.224 12.6617 157.357 12.5284 157.525 12.4373C157.694 12.3463 157.904 12.2845 158.16 12.2487C158.416 12.2162 158.72 12.2 159.076 12.2H160.277C160.685 12.2 161.032 12.2195 161.314 12.2585C161.595 12.2975 161.822 12.3755 161.993 12.4893C162.165 12.6031 162.291 12.7722 162.366 12.9966C162.444 13.2177 162.482 13.5136 162.482 13.881H161.909C161.909 13.5916 161.883 13.3673 161.832 13.2047C161.78 13.0454 161.692 12.9283 161.569 12.8568C161.446 12.7852 161.281 12.7397 161.071 12.7234C160.86 12.7072 160.595 12.6974 160.274 12.6974H159.073C158.788 12.6974 158.548 12.7072 158.354 12.7234C158.16 12.7397 158.001 12.7787 157.878 12.8405C157.755 12.9023 157.661 12.9966 157.6 13.1299C157.535 13.26 157.49 13.442 157.467 13.6697C157.444 13.8973 157.431 14.1866 157.431 14.5378V14.6581C157.431 14.9963 157.444 15.2792 157.467 15.5035C157.49 15.7279 157.535 15.9067 157.6 16.04C157.665 16.1733 157.758 16.2741 157.878 16.3392C158.001 16.4042 158.16 16.4465 158.354 16.4692C158.548 16.492 158.788 16.4985 159.073 16.4985H160.274C160.595 16.4985 160.86 16.492 161.071 16.479C161.281 16.466 161.446 16.4237 161.569 16.3554C161.692 16.2872 161.78 16.1733 161.832 16.0173C161.883 15.8579 161.909 15.6368 161.909 15.3475H162.482C162.482 15.7149 162.444 16.0075 162.366 16.2286C162.288 16.4497 162.165 16.6123 161.993 16.7229C161.822 16.8334 161.595 16.9082 161.314 16.944C161.032 16.9797 160.689 16.9992 160.277 16.9992H159.076C158.629 16.9992 158.26 16.97 157.972 16.9082C157.684 16.8464 157.461 16.7359 157.299 16.57C157.137 16.4075 157.023 16.1701 156.959 15.8644C156.894 15.5588 156.862 15.1556 156.862 14.6646L156.865 14.6549Z" fill="white"/>
<path d="M163.45 16.892V12.2943H164.024V16.892H163.45Z" fill="white"/>
<path d="M166.309 16.892C165.931 16.892 165.633 16.8367 165.419 16.7261C165.205 16.6156 165.073 16.401 165.021 16.0823C164.988 15.8937 164.972 15.6531 164.972 15.3572V15.1654H165.545V15.3572C165.545 15.8124 165.6 16.1083 165.714 16.2482C165.775 16.3229 165.856 16.3717 165.953 16.3912C166.05 16.4107 166.17 16.4205 166.309 16.4205H167.643C167.987 16.4205 168.233 16.3587 168.378 16.2351C168.524 16.1116 168.598 15.8807 168.598 15.5458V12.291H169.172V15.5458C169.172 16.0336 169.062 16.375 168.838 16.5766C168.608 16.7847 168.21 16.8887 167.647 16.8887H166.313L166.309 16.892Z" fill="white"/>
<path d="M169.897 16.892L172.568 12.2943H173.332L176.003 16.892H175.336L174.763 15.8385H171.14L170.567 16.892H169.9H169.897ZM171.422 15.3605H174.475L172.95 12.678L171.425 15.3605H171.422Z" fill="white"/>
</svg>
