<svg width="53" height="60" viewBox="0 0 53 60" fill="none" xmlns="http://www.w3.org/2000/svg">
<path d="M7.54091 25.1297C20.0622 33.586 32.9268 39.8933 46.4654 41.966C40.9339 50.7403 34.3341 56.5092 26.6831 59.2941C10.5843 52.9614 0.17818 34.6033 0.869098 20.2212L6.07006 24.1463C7.68503 36.6676 13.8397 46.9678 26.6874 53.9914C31.2864 51.6855 35.2412 48.6421 38.4203 44.7127C24.852 39.8212 15.3275 32.9078 7.54515 25.1297H7.54091Z" fill="white"/>
<path d="M37.6324 35.6376C27.3576 33.8022 15.3959 27.7747 0.869629 15.3636V10.1118L21.2411 2.08354C21.2157 2.20223 21.1987 2.32092 21.1902 2.43536V2.47775C21.1436 3.44843 21.2284 4.88536 21.8769 6.22905C21.8896 6.25872 22.0253 6.57663 22.1016 7.09376L6.01972 13.5494C15.3789 23.2519 26.1072 30.2331 37.6282 35.6376H37.6324ZM52.6503 10.1626L32.2534 2.10474C32.2746 2.22766 32.2873 2.34635 32.2958 2.46503C32.3467 3.24073 32.3212 4.72005 31.6473 6.14004V7.3608L47.4112 13.5282C48.1233 23.9386 46.1142 31.0555 42.9393 36.4387L48.1403 37.1762C50.8743 33.2723 52.6334 25.9562 52.6503 15.1644V10.1584V10.1626ZM23.4283 7.76348C23.4283 8.70872 23.7886 10.7179 24.2549 11.6123C24.4626 12.0065 25.0645 11.9387 25.2001 11.5105C25.6282 10.0143 25.9207 6.2672 26.7473 6.28415C27.5569 6.2672 27.8663 10.0143 28.2944 11.5105C28.43 11.9387 29.032 12.0107 29.2397 11.6123C29.6847 10.7179 30.0493 8.70449 30.0493 7.76348C30.0493 6.49185 30.4435 5.68225 30.4435 5.68225C31.0115 4.54626 31.0623 3.30855 31.0115 2.53709C30.9945 2.08778 30.7529 1.54098 30.5282 1.28242C30.3036 1.02385 29.8924 0.782246 29.5999 0.73138C29.3244 0.69747 28.7225 0.69747 28.2944 0.76529L26.7473 0.97299L25.2001 0.76529C24.755 0.69747 24.1701 0.69747 23.8776 0.73138C23.6021 0.782246 23.1909 1.02385 22.9663 1.28242C22.7416 1.54098 22.5 2.09202 22.4661 2.53709C22.4322 3.31278 22.4831 4.5505 23.0341 5.68225C23.0341 5.68225 23.4283 6.49185 23.4283 7.76348Z" fill="white"/>
</svg>
