<svg width="150" height="150" viewBox="0 0 150 150" fill="none" xmlns="http://www.w3.org/2000/svg">
<rect width="150" height="150" fill="#74D2B0"/>
<g clip-path="url(#clip0_565_861)">
<path d="M48.1738 67.7703C65.2969 79.1169 82.8856 87.5797 101.403 90.3582C93.8384 102.132 84.8156 109.87 74.3525 113.606C52.3354 105.11 38.104 80.4821 39.0439 61.1855L46.1585 66.4534C48.3683 83.254 56.7812 97.0746 74.3503 106.493C80.6409 103.397 86.0462 99.3141 90.3937 94.0462C71.8389 87.4811 58.814 78.2097 48.1738 67.7703Z" fill="white"/>
<path d="M89.2749 81.8649C75.2249 79.4062 58.8646 71.316 39.0005 54.6665V47.6192L66.8601 36.8468C66.8273 37.0068 66.8054 37.1667 66.7923 37.3201L66.7879 37.3771C66.7289 38.6787 66.8448 40.6071 67.7322 42.4127C67.7497 42.45 67.9376 42.8817 68.0382 43.5763L46.0495 52.2319C58.8471 65.2482 73.5201 74.6139 89.2771 81.8671L89.2749 81.8649ZM109.814 47.685L81.9177 36.8775C81.9461 37.0418 81.9658 37.2018 81.9745 37.3596C82.0423 38.4026 82.0095 40.388 81.0871 42.2922V43.9313L102.645 52.2078C103.62 66.173 100.875 75.7249 96.5316 82.9474L103.646 83.9357C107.384 78.6963 109.792 68.8792 109.814 54.4035V47.6872V47.685ZM69.8546 44.4638C69.8546 45.7325 70.3485 48.43 70.9824 49.6309C71.2644 50.1611 72.0884 50.0691 72.2764 49.4928C72.8643 47.4856 73.2643 42.4565 74.3922 42.4806C75.4982 42.4565 75.92 47.4856 76.508 49.4928C76.6959 50.0691 77.5178 50.1611 77.7997 49.6309C78.4118 48.43 78.9057 45.7325 78.9057 44.4638C78.9057 42.7567 79.4456 41.6721 79.4456 41.6721C80.2216 40.1513 80.2915 38.4903 80.2216 37.4516C80.1975 36.8512 79.8675 36.1127 79.5636 35.7687C79.2576 35.4225 78.6937 35.1003 78.2937 35.0302C77.9178 34.9842 77.0937 34.9842 76.508 35.0762L74.3922 35.3523L72.2764 35.0762C71.6643 34.9842 70.8666 34.9842 70.4666 35.0302C70.0906 35.1003 69.5267 35.4225 69.2207 35.7687C68.9147 36.1149 68.5868 36.8534 68.5387 37.4516C68.4906 38.4903 68.5628 40.1513 69.3147 41.6721C69.3147 41.6721 69.8546 42.7567 69.8546 44.4638Z" fill="white"/>
</g>
<defs>
<clipPath id="clip0_565_861">
<rect width="71" height="79" fill="white" transform="translate(39 35)"/>
</clipPath>
</defs>
</svg>
